# 3ds Max Wavefront OBJ Exporter v0.99 - (c)2007 guruware
# File Created: 22.04.2024 20:20:13

mtllib Banca2.mtl

#
# object Banca_001
#

v  0.0751 0.0561 0.5345
v  0.0751 0.0561 0.4835
v  0.0751 0.0028 0.4835
v  0.0751 0.0028 0.5345
v  0.1261 0.0561 0.4835
v  0.1261 0.0028 0.4835
v  0.1261 0.0561 0.5345
v  0.1261 0.0028 0.5345
v  0.0751 0.3859 0.4835
v  0.1261 0.3859 0.4835
v  0.1428 0.3865 0.4835
v  0.1428 0.3865 0.5345
v  0.1261 0.3859 0.5345
v  0.0751 0.3859 0.5345
v  0.0751 0.4316 0.4835
v  0.0751 0.4316 0.5345
v  0.1261 0.4316 0.5345
v  0.1261 0.4316 0.4835
v  -0.3468 0.4316 0.4835
v  -0.3468 0.4316 0.5345
v  -0.3468 0.3859 0.4835
v  -0.3929 0.3859 0.4835
v  -0.3929 0.4316 0.4835
v  -0.3468 0.3859 0.5345
v  -0.3929 0.3859 0.5345
v  -0.3929 0.4316 0.5345
v  -0.3468 0.0103 0.4835
v  -0.3929 0.0103 0.4835
v  -0.3468 0.0103 0.5345
v  -0.3929 0.0103 0.5345
v  0.1363 0.4305 0.4835
v  0.1620 0.3927 0.4835
v  0.1321 0.4310 0.4835
v  0.1321 0.4310 0.5345
v  0.1620 0.3927 0.5345
v  0.1706 0.3993 0.5345
v  0.1366 0.4299 0.5345
v  0.1363 0.4305 0.5345
v  0.1371 0.4275 0.4835
v  0.1806 0.4133 0.4835
v  0.1706 0.3993 0.4835
v  0.1366 0.4299 0.4835
v  0.2852 0.8809 0.4835
v  0.3287 0.8667 0.4835
v  0.1806 0.4133 0.5345
v  0.1371 0.4275 0.5345
v  0.2852 0.8809 0.5345
v  0.3287 0.8667 0.5345
v  0.0751 0.0561 -0.4823
v  0.0751 0.0561 -0.5333
v  0.0751 0.0028 -0.5333
v  0.0751 0.0028 -0.4823
v  0.1261 0.0561 -0.5333
v  0.1261 0.0028 -0.5333
v  0.1261 0.0561 -0.4823
v  0.1261 0.0028 -0.4823
v  0.0751 0.3859 -0.5333
v  0.1261 0.3859 -0.5333
v  0.1428 0.3865 -0.5333
v  0.1428 0.3865 -0.4823
v  0.1261 0.3859 -0.4823
v  0.0751 0.3859 -0.4823
v  0.0751 0.4316 -0.5333
v  0.0751 0.4316 -0.4823
v  0.1261 0.4316 -0.4823
v  0.1261 0.4316 -0.5333
v  -0.3468 0.4316 -0.5333
v  -0.3468 0.4316 -0.4823
v  -0.3468 0.3859 -0.5333
v  -0.3929 0.3859 -0.5333
v  -0.3929 0.4316 -0.5333
v  -0.3468 0.3859 -0.4823
v  -0.3929 0.3859 -0.4823
v  -0.3929 0.4316 -0.4823
v  -0.3468 0.0103 -0.5333
v  -0.3929 0.0103 -0.5333
v  -0.3468 0.0103 -0.4823
v  -0.3929 0.0103 -0.4823
v  0.1363 0.4305 -0.5333
v  0.1620 0.3927 -0.5333
v  0.1321 0.4310 -0.5333
v  0.1321 0.4310 -0.4823
v  0.1620 0.3927 -0.4823
v  0.1706 0.3993 -0.4823
v  0.1366 0.4299 -0.4823
v  0.1363 0.4305 -0.4823
v  0.1371 0.4275 -0.5333
v  0.1806 0.4133 -0.5333
v  0.1706 0.3993 -0.5333
v  0.1366 0.4299 -0.5333
v  0.2852 0.8809 -0.5333
v  0.3287 0.8667 -0.5333
v  0.1806 0.4133 -0.4823
v  0.1371 0.4275 -0.4823
v  0.2852 0.8809 -0.4823
v  0.3287 0.8667 -0.4823
# 96 vertices

vn -1.0000 0.0000 -0.0000
vn 0.0000 0.0000 -1.0000
vn 1.0000 0.0000 -0.0000
vn 0.0000 0.0000 1.0000
vn 0.0000 -1.0000 -0.0000
vn 0.0383 -0.9993 -0.0000
vn 0.0000 1.0000 -0.0000
vn 0.1067 0.9943 -0.0000
vn 0.3046 -0.9525 -0.0000
vn 0.1167 0.9932 -0.0000
vn 0.0001 0.0001 -1.0000
vn 0.8889 0.4581 -0.0000
vn 0.6119 -0.7910 -0.0000
vn 0.8151 -0.5793 -0.0000
vn -0.0001 -0.0001 1.0000
vn 0.9825 0.1863 -0.0000
vn 0.3106 0.9505 -0.0000
vn 0.9505 -0.3106 -0.0000
vn -0.9505 0.3106 -0.0000
# 19 vertex normals

vt 0.0000 0.0000 0.0000
# 1 texture coords

o Banca_001
g Banca_001
usemtl Banca2_Madera
s off
f 1/1/1 2/1/1 3/1/1 
f 3/1/1 4/1/1 1/1/1 
f 2/1/2 5/1/2 6/1/2 
f 6/1/2 3/1/2 2/1/2 
f 5/1/3 7/1/3 8/1/3 
f 8/1/3 6/1/3 5/1/3 
f 7/1/4 1/1/4 4/1/4 
f 4/1/4 8/1/4 7/1/4 
f 6/1/5 8/1/5 4/1/5 
f 4/1/5 3/1/5 6/1/5 
f 2/1/2 9/1/2 10/1/2 
f 10/1/2 5/1/2 2/1/2 
f 10/1/6 11/1/6 12/1/6 
f 12/1/6 13/1/6 10/1/6 
f 5/1/3 10/1/3 13/1/3 
f 13/1/3 7/1/3 5/1/3 
f 1/1/1 14/1/1 9/1/1 
f 9/1/1 2/1/1 1/1/1 
f 7/1/4 13/1/4 14/1/4 
f 14/1/4 1/1/4 7/1/4 
f 15/1/7 16/1/7 17/1/7 
f 17/1/7 18/1/7 15/1/7 
f 15/1/7 19/1/7 20/1/7 
f 20/1/7 16/1/7 15/1/7 
f 13/1/4 17/1/4 16/1/4 
f 16/1/4 14/1/4 13/1/4 
f 9/1/2 15/1/2 18/1/2 
f 18/1/2 10/1/2 9/1/2 
f 21/1/2 22/1/2 23/1/2 
f 23/1/2 19/1/2 21/1/2 
f 9/1/2 21/1/2 19/1/2 
f 19/1/2 15/1/2 9/1/2 
f 14/1/5 24/1/5 21/1/5 
f 21/1/5 9/1/5 14/1/5 
f 16/1/4 20/1/4 24/1/4 
f 24/1/4 14/1/4 16/1/4 
f 25/1/1 26/1/1 23/1/1 
f 23/1/1 22/1/1 25/1/1 
f 19/1/7 23/1/7 26/1/7 
f 26/1/7 20/1/7 19/1/7 
f 20/1/4 26/1/4 25/1/4 
f 25/1/4 24/1/4 20/1/4 
f 21/1/2 27/1/2 28/1/2 
f 28/1/2 22/1/2 21/1/2 
f 29/1/5 30/1/5 28/1/5 
f 28/1/5 27/1/5 29/1/5 
f 22/1/1 28/1/1 30/1/1 
f 30/1/1 25/1/1 22/1/1 
f 25/1/4 30/1/4 29/1/4 
f 29/1/4 24/1/4 25/1/4 
f 24/1/3 29/1/3 27/1/3 
f 27/1/3 21/1/3 24/1/3 
f 31/1/2 32/1/2 11/1/2 
f 11/1/2 33/1/2 31/1/2 
f 13/1/4 12/1/4 34/1/4 
f 34/1/4 17/1/4 13/1/4 
f 10/1/2 18/1/2 33/1/2 
f 33/1/2 11/1/2 10/1/2 
f 17/1/8 34/1/8 33/1/8 
f 33/1/8 18/1/8 17/1/8 
f 35/1/4 36/1/4 37/1/4 
f 37/1/4 38/1/4 35/1/4 
f 11/1/9 32/1/9 35/1/9 
f 35/1/9 12/1/9 11/1/9 
f 34/1/4 12/1/4 35/1/4 
f 35/1/4 38/1/4 34/1/4 
f 34/1/10 38/1/10 31/1/10 
f 31/1/10 33/1/10 34/1/10 
f 39/1/11 40/1/11 41/1/11 
f 41/1/11 42/1/11 39/1/11 
f 37/1/12 42/1/12 31/1/12 
f 31/1/12 38/1/12 37/1/12 
f 42/1/2 41/1/2 32/1/2 
f 32/1/2 31/1/2 42/1/2 
f 32/1/13 41/1/13 36/1/13 
f 36/1/13 35/1/13 32/1/13 
f 39/1/2 43/1/2 44/1/2 
f 44/1/2 40/1/2 39/1/2 
f 41/1/14 40/1/14 45/1/14 
f 45/1/14 36/1/14 41/1/14 
f 37/1/15 36/1/15 45/1/15 
f 45/1/15 46/1/15 37/1/15 
f 46/1/16 39/1/16 42/1/16 
f 42/1/16 37/1/16 46/1/16 
f 44/1/17 43/1/17 47/1/17 
f 47/1/17 48/1/17 44/1/17 
f 40/1/18 44/1/18 48/1/18 
f 48/1/18 45/1/18 40/1/18 
f 45/1/4 48/1/4 47/1/4 
f 47/1/4 46/1/4 45/1/4 
f 46/1/19 47/1/19 43/1/19 
f 43/1/19 39/1/19 46/1/19 
f 49/1/1 50/1/1 51/1/1 
f 51/1/1 52/1/1 49/1/1 
f 50/1/2 53/1/2 54/1/2 
f 54/1/2 51/1/2 50/1/2 
f 53/1/3 55/1/3 56/1/3 
f 56/1/3 54/1/3 53/1/3 
f 55/1/4 49/1/4 52/1/4 
f 52/1/4 56/1/4 55/1/4 
f 54/1/5 56/1/5 52/1/5 
f 52/1/5 51/1/5 54/1/5 
f 50/1/2 57/1/2 58/1/2 
f 58/1/2 53/1/2 50/1/2 
f 58/1/6 59/1/6 60/1/6 
f 60/1/6 61/1/6 58/1/6 
f 53/1/3 58/1/3 61/1/3 
f 61/1/3 55/1/3 53/1/3 
f 49/1/1 62/1/1 57/1/1 
f 57/1/1 50/1/1 49/1/1 
f 55/1/4 61/1/4 62/1/4 
f 62/1/4 49/1/4 55/1/4 
f 63/1/7 64/1/7 65/1/7 
f 65/1/7 66/1/7 63/1/7 
f 63/1/7 67/1/7 68/1/7 
f 68/1/7 64/1/7 63/1/7 
f 61/1/4 65/1/4 64/1/4 
f 64/1/4 62/1/4 61/1/4 
f 57/1/2 63/1/2 66/1/2 
f 66/1/2 58/1/2 57/1/2 
f 69/1/2 70/1/2 71/1/2 
f 71/1/2 67/1/2 69/1/2 
f 57/1/2 69/1/2 67/1/2 
f 67/1/2 63/1/2 57/1/2 
f 62/1/5 72/1/5 69/1/5 
f 69/1/5 57/1/5 62/1/5 
f 64/1/4 68/1/4 72/1/4 
f 72/1/4 62/1/4 64/1/4 
f 73/1/1 74/1/1 71/1/1 
f 71/1/1 70/1/1 73/1/1 
f 67/1/7 71/1/7 74/1/7 
f 74/1/7 68/1/7 67/1/7 
f 68/1/4 74/1/4 73/1/4 
f 73/1/4 72/1/4 68/1/4 
f 69/1/2 75/1/2 76/1/2 
f 76/1/2 70/1/2 69/1/2 
f 77/1/5 78/1/5 76/1/5 
f 76/1/5 75/1/5 77/1/5 
f 70/1/1 76/1/1 78/1/1 
f 78/1/1 73/1/1 70/1/1 
f 73/1/4 78/1/4 77/1/4 
f 77/1/4 72/1/4 73/1/4 
f 72/1/3 77/1/3 75/1/3 
f 75/1/3 69/1/3 72/1/3 
f 79/1/2 80/1/2 59/1/2 
f 59/1/2 81/1/2 79/1/2 
f 61/1/4 60/1/4 82/1/4 
f 82/1/4 65/1/4 61/1/4 
f 58/1/2 66/1/2 81/1/2 
f 81/1/2 59/1/2 58/1/2 
f 65/1/8 82/1/8 81/1/8 
f 81/1/8 66/1/8 65/1/8 
f 83/1/4 84/1/4 85/1/4 
f 85/1/4 86/1/4 83/1/4 
f 59/1/9 80/1/9 83/1/9 
f 83/1/9 60/1/9 59/1/9 
f 82/1/4 60/1/4 83/1/4 
f 83/1/4 86/1/4 82/1/4 
f 82/1/10 86/1/10 79/1/10 
f 79/1/10 81/1/10 82/1/10 
f 87/1/11 88/1/11 89/1/11 
f 89/1/11 90/1/11 87/1/11 
f 85/1/12 90/1/12 79/1/12 
f 79/1/12 86/1/12 85/1/12 
f 90/1/2 89/1/2 80/1/2 
f 80/1/2 79/1/2 90/1/2 
f 80/1/13 89/1/13 84/1/13 
f 84/1/13 83/1/13 80/1/13 
f 87/1/2 91/1/2 92/1/2 
f 92/1/2 88/1/2 87/1/2 
f 89/1/14 88/1/14 93/1/14 
f 93/1/14 84/1/14 89/1/14 
f 85/1/15 84/1/15 93/1/15 
f 93/1/15 94/1/15 85/1/15 
f 94/1/16 87/1/16 90/1/16 
f 90/1/16 85/1/16 94/1/16 
f 92/1/17 91/1/17 95/1/17 
f 95/1/17 96/1/17 92/1/17 
f 88/1/18 92/1/18 96/1/18 
f 96/1/18 93/1/18 88/1/18 
f 93/1/4 96/1/4 95/1/4 
f 95/1/4 94/1/4 93/1/4 
f 94/1/19 95/1/19 91/1/19 
f 91/1/19 87/1/19 94/1/19 
# 184 faces

#
# object Banca_Patas_001
#

v  0.1625 0.4764 -0.6395
v  0.1625 0.4764 0.6425
v  0.2068 0.6096 0.6425
v  0.2068 0.6096 -0.6395
v  0.1660 0.6234 -0.6395
v  0.1660 0.6234 0.6425
v  0.1217 0.4902 0.6425
v  0.1217 0.4902 -0.6395
v  -0.4554 0.4233 -0.6395
v  -0.4554 0.4664 -0.6395
v  -0.4554 0.4664 0.6425
v  -0.4554 0.4233 0.6425
v  -0.2628 0.4233 -0.6395
v  -0.2628 0.4664 -0.6395
v  -0.2628 0.4233 0.6425
v  -0.2628 0.4664 0.6425
v  -0.2420 0.4233 0.6425
v  -0.2420 0.4233 -0.6395
v  -0.2420 0.4664 -0.6395
v  -0.2420 0.4664 0.6425
v  -0.0495 0.4233 -0.6395
v  -0.0495 0.4664 -0.6395
v  -0.0495 0.4233 0.6425
v  -0.0495 0.4664 0.6425
v  -0.0260 0.4233 0.6425
v  -0.0260 0.4233 -0.6395
v  -0.0260 0.4664 -0.6395
v  -0.0260 0.4664 0.6425
v  0.1665 0.4233 -0.6395
v  0.1665 0.4664 -0.6395
v  0.1665 0.4233 0.6425
v  0.1665 0.4664 0.6425
v  0.2116 0.6240 0.6425
v  0.2116 0.6240 -0.6395
v  0.1707 0.6378 -0.6395
v  0.1707 0.6378 0.6425
v  0.2559 0.7573 -0.6395
v  0.2150 0.7710 -0.6395
v  0.2559 0.7573 0.6425
v  0.2150 0.7710 0.6425
v  0.2612 0.7735 0.6425
v  0.2612 0.7735 -0.6395
v  0.2204 0.7872 -0.6395
v  0.2204 0.7872 0.6425
v  0.3055 0.9067 -0.6395
v  0.2647 0.9205 -0.6395
v  0.3055 0.9067 0.6425
v  0.2647 0.9205 0.6425
# 48 vertices

vn -0.9489 0.3154 -0.0000
vn 0.9489 -0.3155 -0.0000
vn 0.0000 0.0000 -1.0000
vn -0.3197 -0.9475 -0.0000
vn 0.0000 0.0000 1.0000
vn 0.3196 0.9475 -0.0000
vn 1.0000 0.0000 -0.0000
vn -1.0000 0.0000 -0.0000
vn 0.0000 -1.0000 -0.0000
vn 0.0000 1.0000 -0.0000
vn 0.3197 0.9475 -0.0000
vn 0.9489 -0.3154 -0.0000
vn -0.9489 0.3155 -0.0000
# 13 vertex normals

vt 0.0000 0.0000 0.0000
# 1 texture coords

o Banca_Patas_001
g Banca_Patas_001
usemtl Banca2_Madera_Banca
s off
f 97/2/20 98/2/20 99/2/20 
f 99/2/20 100/2/20 97/2/20 
f 101/2/21 102/2/21 103/2/21 
f 103/2/21 104/2/21 101/2/21 
f 99/2/22 98/2/22 103/2/22 
f 103/2/22 102/2/22 99/2/22 
f 100/2/23 99/2/23 102/2/23 
f 102/2/23 101/2/23 100/2/23 
f 97/2/24 100/2/24 101/2/24 
f 101/2/24 104/2/24 97/2/24 
f 98/2/25 97/2/25 104/2/25 
f 104/2/25 103/2/25 98/2/25 
f 105/2/26 106/2/26 107/2/26 
f 107/2/26 108/2/26 105/2/26 
f 105/2/24 109/2/24 110/2/24 
f 110/2/24 106/2/24 105/2/24 
f 111/2/27 112/2/27 110/2/27 
f 110/2/27 109/2/27 111/2/27 
f 111/2/22 108/2/22 107/2/22 
f 107/2/22 112/2/22 111/2/22 
f 110/2/28 112/2/28 107/2/28 
f 107/2/28 106/2/28 110/2/28 
f 105/2/29 108/2/29 111/2/29 
f 111/2/29 109/2/29 105/2/29 
f 113/2/26 114/2/26 115/2/26 
f 115/2/26 116/2/26 113/2/26 
f 114/2/24 117/2/24 118/2/24 
f 118/2/24 115/2/24 114/2/24 
f 117/2/27 119/2/27 120/2/27 
f 120/2/27 118/2/27 117/2/27 
f 119/2/22 113/2/22 116/2/22 
f 116/2/22 120/2/22 119/2/22 
f 118/2/28 120/2/28 116/2/28 
f 116/2/28 115/2/28 118/2/28 
f 114/2/29 113/2/29 119/2/29 
f 119/2/29 117/2/29 114/2/29 
f 121/2/26 122/2/26 123/2/26 
f 123/2/26 124/2/26 121/2/26 
f 125/2/24 126/2/24 123/2/24 
f 123/2/24 122/2/24 125/2/24 
f 125/2/27 127/2/27 128/2/27 
f 128/2/27 126/2/27 125/2/27 
f 124/2/22 128/2/22 127/2/22 
f 127/2/22 121/2/22 124/2/22 
f 126/2/28 128/2/28 124/2/28 
f 124/2/28 123/2/28 126/2/28 
f 125/2/29 122/2/29 121/2/29 
f 121/2/29 127/2/29 125/2/29 
f 129/2/30 130/2/30 131/2/30 
f 131/2/30 132/2/30 129/2/30 
f 133/2/24 134/2/24 131/2/24 
f 131/2/24 130/2/24 133/2/24 
f 133/2/23 135/2/23 136/2/23 
f 136/2/23 134/2/23 133/2/23 
f 135/2/22 129/2/22 132/2/22 
f 132/2/22 136/2/22 135/2/22 
f 134/2/31 136/2/31 132/2/31 
f 132/2/31 131/2/31 134/2/31 
f 129/2/32 135/2/32 133/2/32 
f 133/2/32 130/2/32 129/2/32 
f 137/2/30 138/2/30 139/2/30 
f 139/2/30 140/2/30 137/2/30 
f 138/2/24 141/2/24 142/2/24 
f 142/2/24 139/2/24 138/2/24 
f 141/2/23 143/2/23 144/2/23 
f 144/2/23 142/2/23 141/2/23 
f 143/2/22 137/2/22 140/2/22 
f 140/2/22 144/2/22 143/2/22 
f 142/2/21 144/2/21 140/2/21 
f 140/2/21 139/2/21 142/2/21 
f 138/2/20 137/2/20 143/2/20 
f 143/2/20 141/2/20 138/2/20 
# 72 faces

