# Blender 4.1.0
# www.blender.org
mtllib Banca2.mtl
o Banca_001
v 0.075100 0.056100 0.534500
v 0.075100 0.056100 0.483500
v 0.075100 0.002800 0.483500
v 0.075100 0.002800 0.534500
v 0.126100 0.056100 0.483500
v 0.126100 0.002800 0.483500
v 0.126100 0.056100 0.534500
v 0.126100 0.002800 0.534500
v 0.075100 0.385900 0.483500
v 0.126100 0.385900 0.483500
v 0.142800 0.386500 0.483500
v 0.142800 0.386500 0.534500
v 0.126100 0.385900 0.534500
v 0.075100 0.385900 0.534500
v 0.075100 0.431600 0.483500
v 0.075100 0.431600 0.534500
v 0.126100 0.431600 0.534500
v 0.126100 0.431600 0.483500
v -0.346800 0.431600 0.483500
v -0.346800 0.431600 0.534500
v -0.346800 0.385900 0.483500
v -0.392900 0.385900 0.483500
v -0.392900 0.431600 0.483500
v -0.346800 0.385900 0.534500
v -0.392900 0.385900 0.534500
v -0.392900 0.431600 0.534500
v -0.346800 0.010300 0.483500
v -0.392900 0.010300 0.483500
v -0.346800 0.010300 0.534500
v -0.392900 0.010300 0.534500
v 0.136300 0.430500 0.483500
v 0.162000 0.392700 0.483500
v 0.132100 0.431000 0.483500
v 0.132100 0.431000 0.534500
v 0.162000 0.392700 0.534500
v 0.170600 0.399300 0.534500
v 0.136600 0.429900 0.534500
v 0.136300 0.430500 0.534500
v 0.137100 0.427500 0.483500
v 0.180600 0.413300 0.483500
v 0.170600 0.399300 0.483500
v 0.136600 0.429900 0.483500
v 0.285200 0.880900 0.483500
v 0.328700 0.866700 0.483500
v 0.180600 0.413300 0.534500
v 0.137100 0.427500 0.534500
v 0.285200 0.880900 0.534500
v 0.328700 0.866700 0.534500
v 0.075100 0.056100 -0.482300
v 0.075100 0.056100 -0.533300
v 0.075100 0.002800 -0.533300
v 0.075100 0.002800 -0.482300
v 0.126100 0.056100 -0.533300
v 0.126100 0.002800 -0.533300
v 0.126100 0.056100 -0.482300
v 0.126100 0.002800 -0.482300
v 0.075100 0.385900 -0.533300
v 0.126100 0.385900 -0.533300
v 0.142800 0.386500 -0.533300
v 0.142800 0.386500 -0.482300
v 0.126100 0.385900 -0.482300
v 0.075100 0.385900 -0.482300
v 0.075100 0.431600 -0.533300
v 0.075100 0.431600 -0.482300
v 0.126100 0.431600 -0.482300
v 0.126100 0.431600 -0.533300
v -0.346800 0.431600 -0.533300
v -0.346800 0.431600 -0.482300
v -0.346800 0.385900 -0.533300
v -0.392900 0.385900 -0.533300
v -0.392900 0.431600 -0.533300
v -0.346800 0.385900 -0.482300
v -0.392900 0.385900 -0.482300
v -0.392900 0.431600 -0.482300
v -0.346800 0.010300 -0.533300
v -0.392900 0.010300 -0.533300
v -0.346800 0.010300 -0.482300
v -0.392900 0.010300 -0.482300
v 0.136300 0.430500 -0.533300
v 0.162000 0.392700 -0.533300
v 0.132100 0.431000 -0.533300
v 0.132100 0.431000 -0.482300
v 0.162000 0.392700 -0.482300
v 0.170600 0.399300 -0.482300
v 0.136600 0.429900 -0.482300
v 0.136300 0.430500 -0.482300
v 0.137100 0.427500 -0.533300
v 0.180600 0.413300 -0.533300
v 0.170600 0.399300 -0.533300
v 0.136600 0.429900 -0.533300
v 0.285200 0.880900 -0.533300
v 0.328700 0.866700 -0.533300
v 0.180600 0.413300 -0.482300
v 0.137100 0.427500 -0.482300
v 0.285200 0.880900 -0.482300
v 0.328700 0.866700 -0.482300
vn -1.0000 -0.0000 -0.0000
vn -0.0000 -0.0000 -1.0000
vn 1.0000 -0.0000 -0.0000
vn -0.0000 -0.0000 1.0000
vn -0.0000 -1.0000 -0.0000
vn 0.0383 -0.9993 -0.0000
vn -0.0000 1.0000 -0.0000
vn 0.1067 0.9943 -0.0000
vn 0.0001 -0.0000 1.0000
vn 0.3046 -0.9525 -0.0000
vn 0.1167 0.9932 -0.0000
vn 0.8889 0.4581 -0.0000
vn 0.0002 -0.0000 -1.0000
vn 0.0001 -0.0000 -1.0000
vn 0.6119 -0.7910 -0.0000
vn 0.8151 -0.5793 -0.0000
vn -0.0002 -0.0002 1.0000
vn 0.9825 0.1863 -0.0000
vn 0.3106 0.9505 -0.0000
vn 0.3103 0.9506 -0.0000
vn 0.9506 -0.3105 -0.0000
vn -0.9506 0.3105 -0.0000
vn 0.0002 0.0002 -1.0000
vn -0.0001 -0.0000 -1.0000
vn -0.0002 -0.0000 -1.0000
vt 0.000000 0.000000
s 0
usemtl Banca2_Madera
f 1/1/1 2/1/1 3/1/1
f 3/1/1 4/1/1 1/1/1
f 2/1/2 5/1/2 6/1/2
f 6/1/2 3/1/2 2/1/2
f 5/1/3 7/1/3 8/1/3
f 8/1/3 6/1/3 5/1/3
f 7/1/4 1/1/4 4/1/4
f 4/1/4 8/1/4 7/1/4
f 6/1/5 8/1/5 4/1/5
f 4/1/5 3/1/5 6/1/5
f 2/1/2 9/1/2 10/1/2
f 10/1/2 5/1/2 2/1/2
f 10/1/6 11/1/6 12/1/6
f 12/1/6 13/1/6 10/1/6
f 5/1/3 10/1/3 13/1/3
f 13/1/3 7/1/3 5/1/3
f 1/1/1 14/1/1 9/1/1
f 9/1/1 2/1/1 1/1/1
f 7/1/4 13/1/4 14/1/4
f 14/1/4 1/1/4 7/1/4
f 15/1/7 16/1/7 17/1/7
f 17/1/7 18/1/7 15/1/7
f 15/1/7 19/1/7 20/1/7
f 20/1/7 16/1/7 15/1/7
f 13/1/4 17/1/4 16/1/4
f 16/1/4 14/1/4 13/1/4
f 9/1/2 15/1/2 18/1/2
f 18/1/2 10/1/2 9/1/2
f 21/1/2 22/1/2 23/1/2
f 23/1/2 19/1/2 21/1/2
f 9/1/2 21/1/2 19/1/2
f 19/1/2 15/1/2 9/1/2
f 14/1/5 24/1/5 21/1/5
f 21/1/5 9/1/5 14/1/5
f 16/1/4 20/1/4 24/1/4
f 24/1/4 14/1/4 16/1/4
f 25/1/1 26/1/1 23/1/1
f 23/1/1 22/1/1 25/1/1
f 19/1/7 23/1/7 26/1/7
f 26/1/7 20/1/7 19/1/7
f 20/1/4 26/1/4 25/1/4
f 25/1/4 24/1/4 20/1/4
f 21/1/2 27/1/2 28/1/2
f 28/1/2 22/1/2 21/1/2
f 29/1/5 30/1/5 28/1/5
f 28/1/5 27/1/5 29/1/5
f 22/1/1 28/1/1 30/1/1
f 30/1/1 25/1/1 22/1/1
f 25/1/4 30/1/4 29/1/4
f 29/1/4 24/1/4 25/1/4
f 24/1/3 29/1/3 27/1/3
f 27/1/3 21/1/3 24/1/3
f 31/1/2 32/1/2 11/1/2
f 11/1/2 33/1/2 31/1/2
f 13/1/4 12/1/4 34/1/4
f 34/1/4 17/1/4 13/1/4
f 10/1/2 18/1/2 33/1/2
f 33/1/2 11/1/2 10/1/2
f 17/1/8 34/1/8 33/1/8
f 33/1/8 18/1/8 17/1/8
f 35/1/4 36/1/4 37/1/4
f 37/1/4 38/1/4 35/1/9
f 11/1/10 32/1/10 35/1/10
f 35/1/10 12/1/10 11/1/10
f 34/1/4 12/1/4 35/1/4
f 35/1/4 38/1/4 34/1/4
f 34/1/11 38/1/11 31/1/11
f 31/1/11 33/1/11 34/1/11
f 39/1/2 40/1/2 41/1/2
f 41/1/2 42/1/2 39/1/2
f 37/1/12 42/1/12 31/1/12
f 31/1/12 38/1/12 37/1/12
f 42/1/2 41/1/2 32/1/2
f 32/1/13 31/1/14 42/1/14
f 32/1/15 41/1/15 36/1/15
f 36/1/15 35/1/15 32/1/15
f 39/1/2 43/1/2 44/1/2
f 44/1/2 40/1/2 39/1/2
f 41/1/16 40/1/16 45/1/16
f 45/1/16 36/1/16 41/1/16
f 37/1/4 36/1/4 45/1/4
f 45/1/17 46/1/17 37/1/17
f 46/1/18 39/1/18 42/1/18
f 42/1/18 37/1/18 46/1/18
f 44/1/19 43/1/19 47/1/19
f 47/1/20 48/1/20 44/1/20
f 40/1/21 44/1/21 48/1/21
f 48/1/21 45/1/21 40/1/21
f 45/1/4 48/1/4 47/1/4
f 47/1/4 46/1/4 45/1/4
f 46/1/22 47/1/22 43/1/22
f 43/1/22 39/1/22 46/1/22
f 49/1/1 50/1/1 51/1/1
f 51/1/1 52/1/1 49/1/1
f 50/1/2 53/1/2 54/1/2
f 54/1/2 51/1/2 50/1/2
f 53/1/3 55/1/3 56/1/3
f 56/1/3 54/1/3 53/1/3
f 55/1/4 49/1/4 52/1/4
f 52/1/4 56/1/4 55/1/4
f 54/1/5 56/1/5 52/1/5
f 52/1/5 51/1/5 54/1/5
f 50/1/2 57/1/2 58/1/2
f 58/1/2 53/1/2 50/1/2
f 58/1/6 59/1/6 60/1/6
f 60/1/6 61/1/6 58/1/6
f 53/1/3 58/1/3 61/1/3
f 61/1/3 55/1/3 53/1/3
f 49/1/1 62/1/1 57/1/1
f 57/1/1 50/1/1 49/1/1
f 55/1/4 61/1/4 62/1/4
f 62/1/4 49/1/4 55/1/4
f 63/1/7 64/1/7 65/1/7
f 65/1/7 66/1/7 63/1/7
f 63/1/7 67/1/7 68/1/7
f 68/1/7 64/1/7 63/1/7
f 61/1/4 65/1/4 64/1/4
f 64/1/4 62/1/4 61/1/4
f 57/1/2 63/1/2 66/1/2
f 66/1/2 58/1/2 57/1/2
f 69/1/2 70/1/2 71/1/2
f 71/1/2 67/1/2 69/1/2
f 57/1/2 69/1/2 67/1/2
f 67/1/2 63/1/2 57/1/2
f 62/1/5 72/1/5 69/1/5
f 69/1/5 57/1/5 62/1/5
f 64/1/4 68/1/4 72/1/4
f 72/1/4 62/1/4 64/1/4
f 73/1/1 74/1/1 71/1/1
f 71/1/1 70/1/1 73/1/1
f 67/1/7 71/1/7 74/1/7
f 74/1/7 68/1/7 67/1/7
f 68/1/4 74/1/4 73/1/4
f 73/1/4 72/1/4 68/1/4
f 69/1/2 75/1/2 76/1/2
f 76/1/2 70/1/2 69/1/2
f 77/1/5 78/1/5 76/1/5
f 76/1/5 75/1/5 77/1/5
f 70/1/1 76/1/1 78/1/1
f 78/1/1 73/1/1 70/1/1
f 73/1/4 78/1/4 77/1/4
f 77/1/4 72/1/4 73/1/4
f 72/1/3 77/1/3 75/1/3
f 75/1/3 69/1/3 72/1/3
f 79/1/2 80/1/2 59/1/2
f 59/1/2 81/1/2 79/1/2
f 61/1/4 60/1/4 82/1/4
f 82/1/4 65/1/4 61/1/4
f 58/1/2 66/1/2 81/1/2
f 81/1/2 59/1/2 58/1/2
f 65/1/8 82/1/8 81/1/8
f 81/1/8 66/1/8 65/1/8
f 83/1/4 84/1/4 85/1/4
f 85/1/4 86/1/4 83/1/4
f 59/1/10 80/1/10 83/1/10
f 83/1/10 60/1/10 59/1/10
f 82/1/4 60/1/4 83/1/4
f 83/1/4 86/1/4 82/1/4
f 82/1/11 86/1/11 79/1/11
f 79/1/11 81/1/11 82/1/11
f 87/1/23 88/1/23 89/1/23
f 89/1/2 90/1/2 87/1/2
f 85/1/12 90/1/12 79/1/12
f 79/1/12 86/1/12 85/1/12
f 90/1/2 89/1/2 80/1/2
f 80/1/24 79/1/25 90/1/24
f 80/1/15 89/1/15 84/1/15
f 84/1/15 83/1/15 80/1/15
f 87/1/2 91/1/2 92/1/2
f 92/1/2 88/1/2 87/1/2
f 89/1/16 88/1/16 93/1/16
f 93/1/16 84/1/16 89/1/16
f 85/1/4 84/1/4 93/1/4
f 93/1/17 94/1/17 85/1/17
f 94/1/18 87/1/18 90/1/18
f 90/1/18 85/1/18 94/1/18
f 92/1/20 91/1/20 95/1/20
f 95/1/19 96/1/19 92/1/19
f 88/1/21 92/1/21 96/1/21
f 96/1/21 93/1/21 88/1/21
f 93/1/4 96/1/4 95/1/4
f 95/1/4 94/1/4 93/1/4
f 94/1/22 95/1/22 91/1/22
f 91/1/22 87/1/22 94/1/22
o Banca_Patas_001
v 0.162500 0.476400 -0.639500
v 0.162500 0.476400 0.642500
v 0.206800 0.609600 0.642500
v 0.206800 0.609600 -0.639500
v 0.166000 0.623400 -0.639500
v 0.166000 0.623400 0.642500
v 0.121700 0.490200 0.642500
v 0.121700 0.490200 -0.639500
v -0.455400 0.423300 -0.639500
v -0.455400 0.466400 -0.639500
v -0.455400 0.466400 0.642500
v -0.455400 0.423300 0.642500
v -0.262800 0.423300 -0.639500
v -0.262800 0.466400 -0.639500
v -0.262800 0.423300 0.642500
v -0.262800 0.466400 0.642500
v -0.242000 0.423300 0.642500
v -0.242000 0.423300 -0.639500
v -0.242000 0.466400 -0.639500
v -0.242000 0.466400 0.642500
v -0.049500 0.423300 -0.639500
v -0.049500 0.466400 -0.639500
v -0.049500 0.423300 0.642500
v -0.049500 0.466400 0.642500
v -0.026000 0.423300 0.642500
v -0.026000 0.423300 -0.639500
v -0.026000 0.466400 -0.639500
v -0.026000 0.466400 0.642500
v 0.166500 0.423300 -0.639500
v 0.166500 0.466400 -0.639500
v 0.166500 0.423300 0.642500
v 0.166500 0.466400 0.642500
v 0.211600 0.624000 0.642500
v 0.211600 0.624000 -0.639500
v 0.170700 0.637800 -0.639500
v 0.170700 0.637800 0.642500
v 0.255900 0.757300 -0.639500
v 0.215000 0.771000 -0.639500
v 0.255900 0.757300 0.642500
v 0.215000 0.771000 0.642500
v 0.261200 0.773500 0.642500
v 0.261200 0.773500 -0.639500
v 0.220400 0.787200 -0.639500
v 0.220400 0.787200 0.642500
v 0.305500 0.906700 -0.639500
v 0.264700 0.920500 -0.639500
v 0.305500 0.906700 0.642500
v 0.264700 0.920500 0.642500
vn 0.9489 -0.3156 -0.0000
vn -0.9489 0.3156 -0.0000
vn -0.0000 -0.0000 1.0000
vn 0.3195 0.9476 -0.0000
vn -0.0000 -0.0000 -1.0000
vn -0.3196 -0.9476 -0.0000
vn -1.0000 -0.0000 -0.0000
vn 1.0000 -0.0000 -0.0000
vn -0.0000 1.0000 -0.0000
vn -0.0000 -1.0000 -0.0000
vn -0.3197 -0.9475 -0.0000
vn 0.3198 0.9475 -0.0000
vn 0.9490 -0.3154 -0.0000
vn 0.9489 -0.3157 -0.0000
vn -0.3198 -0.9475 -0.0000
vn 0.3197 0.9475 -0.0000
vn 0.3196 0.9476 -0.0000
vn 0.3194 0.9476 -0.0000
vn -0.9490 0.3154 -0.0000
vt 0.000000 0.000000
s 0
usemtl Banca2_Madera_Banca
f 97/2/26 99/2/26 98/2/26
f 99/2/26 97/2/26 100/2/26
f 101/2/27 103/2/27 102/2/27
f 103/2/27 101/2/27 104/2/27
f 99/2/28 103/2/28 98/2/28
f 103/2/28 99/2/28 102/2/28
f 100/2/29 102/2/29 99/2/29
f 102/2/29 100/2/29 101/2/29
f 97/2/30 101/2/30 100/2/30
f 101/2/30 97/2/30 104/2/30
f 98/2/31 104/2/31 97/2/31
f 104/2/31 98/2/31 103/2/31
f 105/2/32 107/2/32 106/2/32
f 107/2/32 105/2/32 108/2/32
f 105/2/30 110/2/30 109/2/30
f 110/2/30 105/2/30 106/2/30
f 111/2/33 110/2/33 112/2/33
f 110/2/33 111/2/33 109/2/33
f 111/2/28 107/2/28 108/2/28
f 107/2/28 111/2/28 112/2/28
f 110/2/34 107/2/34 112/2/34
f 107/2/34 110/2/34 106/2/34
f 105/2/35 111/2/35 108/2/35
f 111/2/35 105/2/35 109/2/35
f 113/2/32 115/2/32 114/2/32
f 115/2/32 113/2/32 116/2/32
f 114/2/30 118/2/30 117/2/30
f 118/2/30 114/2/30 115/2/30
f 117/2/33 120/2/33 119/2/33
f 120/2/33 117/2/33 118/2/33
f 119/2/28 116/2/28 113/2/28
f 116/2/28 119/2/28 120/2/28
f 118/2/34 116/2/34 120/2/34
f 116/2/34 118/2/34 115/2/34
f 114/2/35 119/2/35 113/2/35
f 119/2/35 114/2/35 117/2/35
f 121/2/32 123/2/32 122/2/32
f 123/2/32 121/2/32 124/2/32
f 125/2/30 123/2/30 126/2/30
f 123/2/30 125/2/30 122/2/30
f 125/2/33 128/2/33 127/2/33
f 128/2/33 125/2/33 126/2/33
f 124/2/28 127/2/28 128/2/28
f 127/2/28 124/2/28 121/2/28
f 126/2/34 124/2/34 128/2/34
f 124/2/34 126/2/34 123/2/34
f 125/2/35 121/2/35 122/2/35
f 121/2/35 125/2/35 127/2/35
f 129/2/36 131/2/36 130/2/36
f 131/2/36 129/2/36 132/2/36
f 133/2/30 131/2/30 134/2/30
f 131/2/30 133/2/30 130/2/30
f 133/2/37 136/2/37 135/2/37
f 136/2/37 133/2/37 134/2/37
f 135/2/28 132/2/28 129/2/28
f 132/2/28 135/2/28 136/2/28
f 134/2/27 132/2/27 136/2/27
f 132/2/27 134/2/27 131/2/27
f 129/2/38 133/2/38 135/2/38
f 133/2/39 129/2/39 130/2/39
f 137/2/36 139/2/36 138/2/40
f 139/2/36 137/2/36 140/2/36
f 138/2/30 142/2/30 141/2/30
f 142/2/30 138/2/30 139/2/30
f 141/2/29 144/2/41 143/2/41
f 144/2/42 141/2/43 142/2/43
f 143/2/28 140/2/28 137/2/28
f 140/2/28 143/2/28 144/2/28
f 142/2/44 140/2/44 144/2/44
f 140/2/44 142/2/44 139/2/44
f 138/2/26 143/2/26 137/2/26
f 143/2/26 138/2/26 141/2/26
