# Blender 4.1.0
# www.blender.org
mtllib Piso2.mtl
o Carretera2Carriles
v -1200.000610 0.000000 -149.999893
v 1200.000610 0.000000 149.999771
v 1200.000610 0.000000 -150.000351
v -900.000488 0.000000 -149.999954
v 1200.000488 0.000000 -600.000549
v 900.000549 0.000000 149.999832
v 900.000549 0.000000 -150.000290
v -1200.000732 0.000000 -600.000061
v -900.000610 0.000000 -600.000122
v -900.000671 0.000000 -900.000244
v -150.171646 0.000000 -600.000305
v -150.171692 0.000000 -900.000427
v 900.000427 0.000000 -600.000488
v 900.000366 0.000000 -900.000610
v 150.171371 0.000000 -600.000305
v 150.171295 0.000000 -900.000427
v 1200.000732 0.000000 600.000061
v -900.000305 0.000000 900.000610
v -900.000366 0.000000 600.000488
v -150.171295 0.000000 900.000427
v -150.171371 0.000000 600.000305
v 900.000732 0.000000 900.000244
v 900.000671 0.000000 600.000122
v 150.171692 0.000000 900.000427
v 150.171646 0.000000 600.000305
v -1200.000610 0.000000 150.000229
v -900.000488 0.000000 150.000168
v -1200.000488 0.000000 600.000549
v -900.000366 0.000000 600.000488
v -1200.000610 -25.280226 150.000229
v -900.000488 -25.280226 150.000168
v -1200.000488 -25.280226 600.000549
v -900.000366 -25.280226 600.000488
vn -0.0000 1.0000 -0.0000
vn 1.0000 -0.0000 -0.0000
vn -1.0000 -0.0000 -0.0000
vn -0.0000 -0.0000 1.0000
vn -0.0000 -0.0000 -1.0000
vt 0.998504 -0.000457
vt 0.998504 0.996551
vt -0.001355 0.996551
vt -0.001355 -0.000457
vt 0.999110 -0.003017
vt 0.999110 0.999111
vt -0.000743 1.006923
vt -0.000743 -0.006923
vt 0.998988 0.997035
vt -0.000871 0.993129
vt -0.000871 0.001012
vt 0.998988 0.004918
vt -0.001720 0.001866
vt 0.998134 -0.007900
vt 0.998134 1.002040
vt -0.001720 0.996181
vt -0.001720 1.004335
vt -0.001720 -0.007435
vt 0.998134 -0.001234
vt 0.998134 0.996584
vt 1.000864 0.999065
vt 0.001006 0.995005
vt 0.001159 0.002888
vt 1.001018 0.004995
vt -0.000636 0.995312
vt -0.000636 0.000782
vt 0.999218 -0.005077
vt 0.999218 1.007031
vt 0.000106 0.001989
vt 0.999964 -0.001918
vt 0.999964 0.999964
vt 0.000106 0.999965
s 0
usemtl Pista
f 7/1/1 3/2/1 5/3/1 13/4/1
f 11/5/1 12/6/1 10/7/1 9/8/1
f 8/9/1 1/10/1 4/11/1 9/12/1
f 15/13/1 13/14/1 14/15/1 16/16/1
f 22/17/1 23/18/1 25/19/1 24/20/1
f 17/21/1 2/22/1 6/23/1 23/24/1
f 20/25/1 21/26/1 19/27/1 18/28/1
f 29/29/1 27/30/1 26/31/1 28/32/1
f 33/29/1 31/30/1 30/31/1 32/32/1
f 26/31/2 28/32/2 32/32/2 30/31/2
f 29/29/3 27/30/3 31/30/3 33/29/3
f 27/30/4 26/31/4 30/31/4 31/30/4
f 28/32/5 29/29/5 33/29/5 32/32/5
o Cruces_3
v -1200.000610 0.000000 150.000229
v -1200.000610 0.000000 -149.999893
v 1200.000610 0.000000 149.999771
v 1200.000610 0.000000 -150.000351
v -900.000488 0.000000 150.000168
v -900.000488 0.000000 -149.999954
v 1200.000488 0.000000 -600.000549
v -1200.000732 0.000000 -900.000183
v 900.000549 0.000000 149.999832
v 900.000549 0.000000 -150.000290
v -1200.000732 0.000000 -600.000061
v 1200.000488 0.000000 -900.000671
v -900.000610 0.000000 -600.000122
v -900.000671 0.000000 -900.000244
v -150.171646 0.000000 -600.000305
v -150.171692 0.000000 -900.000427
v 900.000427 0.000000 -600.000488
v 900.000366 0.000000 -900.000610
v 150.171371 0.000000 -600.000305
v 150.171295 0.000000 -900.000427
v -1200.000488 0.000000 900.000671
v -1200.000488 0.000000 600.000549
v 1200.000732 0.000000 900.000183
v 1200.000732 0.000000 600.000061
v -900.000305 0.000000 900.000610
v -900.000366 0.000000 600.000488
v -150.171295 0.000000 900.000427
v -150.171371 0.000000 600.000305
v 900.000732 0.000000 900.000244
v 900.000671 0.000000 600.000122
v 150.171692 0.000000 900.000427
v 150.171646 0.000000 600.000305
v -1200.000488 -25.280226 900.000671
v -1200.000488 -25.280226 600.000549
v -900.000305 -25.280226 900.000610
v -900.000366 -25.280226 600.000488
vn -0.0000 1.0000 -0.0000
vn 1.0000 -0.0000 -0.0000
vn -0.0000 -0.0000 1.0000
vn -0.0000 -0.0000 -1.0000
vn -1.0000 -0.0000 -0.0000
vt 0.000087 0.999913
vt 0.000087 0.000087
vt 0.998861 0.000087
vt 0.998861 0.999913
vt 0.000108 0.000065
vt 0.999935 0.000065
vt 0.999935 0.999935
vt 0.000108 0.999935
vt 0.998958 0.998958
vt -0.000868 0.998958
vt -0.000868 0.001042
vt 0.998958 0.001042
vt -0.000868 0.001042
vt 0.998958 0.001041
vt 0.998958 0.998958
vt -0.000868 0.998958
vt 0.998958 0.998958
vt -0.000868 0.998958
vt -0.000868 0.001042
vt 0.000087 0.999914
vt 0.000087 0.000087
vt 0.996907 0.000087
vt 0.996907 0.999913
vt -0.000868 0.001042
vt 0.998958 0.001042
vt -0.000868 0.998959
vt -0.000868 0.998959
vt -0.000868 0.001042
vt 0.998958 0.001042
s 0
usemtl Cruces
f 49/33/6 48/34/6 52/35/6 53/36/6
f 41/37/6 44/38/6 46/39/6 47/40/6
f 35/41/6 34/42/6 38/43/6 39/44/6
f 43/45/6 42/46/6 36/47/6 37/48/6
f 58/49/6 59/50/6 55/51/6 54/44/6
f 64/52/6 65/53/6 61/54/6 60/55/6
f 56/56/6 57/57/6 63/41/6 62/58/6
f 50/59/6 40/60/6 45/61/6 51/41/6
f 68/49/6 69/50/6 67/51/6 66/44/6
f 55/51/7 54/44/7 66/44/7 67/51/7
f 59/50/8 55/51/8 67/51/8 69/50/8
f 54/44/9 58/49/9 68/49/9 66/44/9
f 58/49/10 59/50/10 69/50/10 68/49/10
o Carretera4carriles
v 1200.000366 0.000000 -1350.000854
v 150.171814 0.000000 1350.000610
v -150.171188 0.000000 1350.000610
v -1200.000854 0.000000 -1350.000366
v -1200.000366 0.000000 1350.000854
v 900.000244 0.000000 -1350.000732
v 1200.000854 0.000000 1350.000366
v -900.000793 0.000000 -1350.000488
v -900.000244 0.000000 1350.000732
v -150.171814 0.000000 -1350.000610
v 150.171188 0.000000 -1350.000610
v 900.000793 0.000000 1350.000488
v -1800.000977 0.000000 -149.999680
v -1800.000977 0.000000 150.000443
v 1800.000977 0.000000 149.999649
v 1800.000977 0.000000 -150.000473
v -1200.000610 0.000000 150.000229
v -1200.000610 0.000000 -149.999893
v 1200.000610 0.000000 149.999771
v 1200.000610 0.000000 -150.000351
v -1200.000732 0.000000 -900.000183
v 1200.000488 0.000000 -900.000671
v -900.000671 0.000000 -900.000244
v -150.171692 0.000000 -900.000427
v 900.000366 0.000000 -900.000610
v 150.171295 0.000000 -900.000427
v -1200.000488 0.000000 900.000671
v 1200.000732 0.000000 900.000183
v -900.000305 0.000000 900.000610
v -150.171295 0.000000 900.000427
v 900.000732 0.000000 900.000244
v 150.171692 0.000000 900.000427
v -25.163548 0.000000 1350.000610
v 25.164131 0.000000 1350.000610
v 25.164024 0.000000 900.000427
v -25.163647 0.000000 900.000427
v 25.163548 0.000000 -1350.000610
v -25.164131 0.000000 -1350.000610
v -25.164024 0.000000 -900.000427
v 25.163647 0.000000 -900.000427
v -1800.000977 0.000000 -24.941523
v -1800.000977 0.000000 24.942257
v -1200.000610 0.000000 24.942091
v -1200.000610 0.000000 -24.941689
v 3750.001709 0.000000 149.999649
v 3750.001709 0.000000 -150.000473
v -3750.001709 0.000000 -149.999680
v -3750.001709 0.000000 150.000443
v -3750.001709 0.000000 -24.941523
v -3750.001709 0.000000 24.942257
v 1200.000366 0.000000 -3000.001465
v -1200.000977 0.000000 -3000.000977
v 900.000183 0.000000 -3000.001465
v -900.000793 0.000000 -3000.000977
v -150.171814 0.000000 -3000.001221
v 150.171204 0.000000 -3000.001221
v 25.163549 0.000000 -3000.001221
v -25.164129 0.000000 -3000.001221
v 150.171814 0.000000 3000.001221
v -150.171204 0.000000 3000.001221
v -1200.000366 0.000000 3000.001465
v 1200.000977 0.000000 3000.000977
v -900.000183 0.000000 3000.001465
v 900.000793 0.000000 3000.000977
v -25.163549 0.000000 3000.001221
v 25.164129 0.000000 3000.001221
v -1200.000366 -25.280226 1350.000854
v -900.000244 -25.280226 1350.000732
v -1800.000977 -25.280226 24.942257
v -1800.000977 -25.280226 150.000443
v -1200.000610 -25.280226 150.000229
v -1200.000488 -25.280226 900.000671
v -900.000305 -25.280226 900.000610
v -1200.000610 -25.280226 24.942091
v -3750.001709 -25.280226 24.942257
v -3750.001709 -25.280226 150.000443
v -1200.000366 -25.280226 3000.001465
v -900.000183 -25.280226 3000.001465
vn -0.0000 1.0000 -0.0000
vn -0.0000 -0.0000 1.0000
vn -0.0000 -0.0000 -1.0000
vn 1.0000 -0.0000 -0.0000
vn -1.0000 -0.0000 -0.0000
vt -0.001515 0.420470
vt -0.001506 -0.012002
vt 0.998330 -0.011977
vt 0.998322 0.420495
vt -0.001519 1.008084
vt -0.001519 -0.006130
vt 0.998318 -0.006130
vt 0.998318 1.008084
vt 0.000106 0.007848
vt 0.999964 0.007848
vt 0.999964 0.998011
vt 0.000106 0.998011
vt -0.000871 -0.002894
vt 0.998988 -0.002894
vt 0.998988 0.997035
vt -0.000870 0.997035
vt -0.001561 0.606203
vt 0.998297 0.606203
vt 0.998297 0.990485
vt -0.001561 0.990485
vt 0.998988 0.001012
vt 0.998988 1.000941
vt -0.000871 1.000941
vt -0.000871 0.001012
vt 0.998988 0.002965
vt 0.998988 0.991176
vt -0.000871 0.991176
vt -0.000871 0.002965
vt -0.000585 0.381753
vt -0.000585 0.016352
vt 0.999274 0.016351
vt 0.999274 0.381753
vt -0.000585 1.001227
vt -0.000585 0.585045
vt 0.999274 0.585044
vt 0.999274 1.001227
vt -0.001561 0.011468
vt 0.998297 0.011468
vt 0.998297 0.389890
vt -0.001561 0.389890
vt -0.001531 0.986586
vt -0.003476 0.614661
vt 0.996360 0.614686
vt 0.998305 0.986612
s 0
usemtl Pista2
f 111/62/11 83/63/11 86/64/11 112/65/11
f 89/66/11 88/67/11 84/68/11 85/69/11
f 75/70/11 94/71/11 91/72/11 70/73/11
f 73/74/11 90/75/11 92/76/11 77/77/11
f 106/78/11 109/79/11 95/80/11 80/81/11
f 81/82/11 76/83/11 97/84/11 100/85/11
f 74/86/11 78/87/11 98/88/11 96/89/11
f 103/90/11 71/91/11 101/92/11 104/93/11
f 72/94/11 102/95/11 105/96/11 99/97/11
f 79/98/11 93/99/11 108/100/11 107/101/11
f 82/102/11 110/103/11 113/104/11 87/105/11
f 85/69/11 84/68/11 114/68/11 115/69/11
f 110/103/11 82/102/11 116/102/11 118/103/11
f 83/63/11 111/62/11 119/62/11 117/63/11
f 75/70/11 70/73/11 120/73/11 122/70/11
f 79/98/11 107/101/11 127/101/11 124/98/11
f 106/78/11 80/81/11 125/81/11 126/78/11
f 73/74/11 77/77/11 123/77/11 121/74/11
f 71/91/11 103/90/11 135/90/11 128/91/11
f 76/83/11 81/82/11 133/82/11 131/83/11
f 102/95/11 72/94/11 129/94/11 134/95/11
f 78/87/11 74/86/11 130/86/11 132/87/11
f 138/62/11 139/63/11 140/64/11 143/65/11
f 136/86/11 137/87/11 142/88/11 141/89/11
f 139/63/11 138/62/11 144/62/11 145/63/11
f 137/87/11 136/86/11 146/86/11 147/87/11
f 112/65/12 111/62/12 138/62/12 143/65/12
f 130/86/13 132/87/13 147/87/13 146/86/13
f 96/89/14 74/86/14 136/86/14 141/89/14
f 119/62/14 117/63/14 145/63/14 144/62/14
f 98/88/12 96/89/12 141/89/12 142/88/12
f 117/63/13 83/63/13 139/63/13 145/63/13
f 132/87/15 78/87/15 137/87/15 147/87/15
f 86/64/15 112/65/15 143/65/15 140/64/15
f 111/62/12 119/62/12 144/62/12 138/62/12
f 74/86/14 130/86/14 146/86/14 136/86/14
f 78/87/15 98/88/15 142/88/15 137/87/15
f 83/63/13 86/64/13 140/64/13 139/63/13
o Jardineras
v -25.163548 0.000000 1350.000610
v 25.164131 0.000000 1350.000610
v 25.164024 0.000000 900.000427
v -25.163647 0.000000 900.000427
v 25.163548 0.000000 -1350.000610
v -25.164131 0.000000 -1350.000610
v -25.164024 0.000000 -900.000427
v 25.163647 0.000000 -900.000427
v -1800.000977 0.000000 -24.941523
v -1800.000977 0.000000 24.942257
v -1200.000610 0.000000 24.942091
v -1200.000610 0.000000 -24.941689
v -3750.001709 0.000000 -24.941523
v -3750.001709 0.000000 24.942257
v 25.163549 0.000000 -3000.001221
v -25.164129 0.000000 -3000.001221
v -25.163549 0.000000 3000.001221
v 25.164129 0.000000 3000.001221
vn -0.0000 1.0000 -0.0000
vt 0.000029 0.000029
vt 0.990153 0.000029
vt 0.990153 9.013144
vt 0.000029 9.013144
vt 0.000029 8.460820
vt 0.000029 0.000029
vt 0.992106 0.000029
vt 0.992107 8.460820
vt 0.995644 11.988311
vt 0.000033 11.988311
vt 0.000033 0.000033
vt 0.995644 0.000033
s 0
usemtl Pasto
f 148/106/16 149/107/16 150/108/16 151/109/16
f 153/110/16 154/111/16 155/112/16 152/113/16
f 156/114/16 157/115/16 158/116/16 159/117/16
f 157/115/16 156/114/16 160/114/16 161/115/16
f 153/110/16 152/113/16 162/113/16 163/110/16
f 149/107/16 148/106/16 164/106/16 165/107/16
