# 3ds Max Wavefront OBJ Exporter v0.99 - (c)2007 guruware
# File Created: 23.04.2024 23:51:18

mtllib DonutVanLlanta02.mtl

#
# object Llanta01
#

v  1.1139 0.0756 1.2543
v  1.1139 -0.1135 1.5818
v  1.1139 -0.0628 1.3927
v  1.1139 0.2647 1.2036
v  1.1139 -0.0628 1.7709
v  1.1139 0.0756 1.9093
v  1.1139 0.4538 1.2543
v  1.1139 0.2647 1.9600
v  1.1139 0.5922 1.3927
v  1.1139 0.4538 1.9093
v  1.1139 0.6429 1.5818
v  1.1139 0.5922 1.7709
v  0.8694 -0.0628 1.3927
v  0.8694 -0.1135 1.5818
v  0.8694 0.0756 1.2543
v  0.8694 -0.0628 1.7709
v  0.8694 0.0756 1.9093
v  0.8694 0.2647 1.2036
v  0.8694 0.2647 1.9600
v  0.8694 0.4538 1.2543
v  0.8694 0.4538 1.9093
v  0.8694 0.5922 1.3927
v  0.8694 0.5922 1.7709
v  0.8694 0.6429 1.5818
# 24 vertices

vn 0.7193 -0.3474 -0.6017
vn 0.7193 0.0000 -0.6947
vn 0.4597 -0.7691 0.4440
vn 0.7193 0.3474 -0.6017
vn 0.7193 -0.3474 0.6017
vn 0.7193 0.6017 -0.3474
vn 0.7193 0.0000 0.6947
vn 0.7193 0.6947 -0.0000
vn 0.7193 0.3474 0.6017
vn 0.7193 0.6017 0.3474
vn -0.4597 -0.7691 -0.4440
vn 0.9818 -0.1897 -0.0000
vn 0.4597 -0.7691 -0.4440
vn -0.7193 -0.3474 -0.6017
vn -0.9818 -0.1897 -0.0000
vn -0.7193 -0.3474 0.6017
vn -0.7193 0.0000 -0.6947
vn -0.4597 -0.7691 0.4440
vn -0.7193 0.0000 0.6947
vn -0.7193 0.3474 -0.6017
vn -0.7193 0.3474 0.6017
vn -0.7193 0.6017 -0.3474
vn -0.7193 0.6017 0.3474
vn -0.7193 0.6947 -0.0000
# 24 vertex normals

vt 0.9161 0.2503 0.0000
vt 0.4925 0.0005 0.0000
vt 0.7370 0.0675 0.0000
vt 0.9816 0.5000 0.0000
vt 0.9161 0.7497 0.0000
vt 0.7370 0.9325 0.0000
vt 0.4925 0.9995 0.0000
# 7 texture coords

o Llanta01
g Llanta01
usemtl cDonutShape_cdonutWheel_m
s 1
f 1/1/1 2/2/1 3/3/1 
f 4/4/2 2/2/2 1/1/2 
f 5/3/3 2/2/3 6/1/3 
f 7/5/4 2/2/4 4/4/4 
f 6/1/5 2/2/5 8/4/5 
f 9/6/6 2/2/6 7/5/6 
f 8/4/7 2/2/7 10/5/7 
f 11/7/8 2/2/8 9/6/8 
f 10/5/9 2/2/9 12/6/9 
f 12/6/10 2/2/10 11/7/10 
f 13/3/11 2/2/11 14/2/11 
f 2/2/12 5/3/12 14/2/12 
f 3/3/13 2/2/13 13/3/13 
f 15/1/14 3/3/14 13/3/14 
f 14/2/15 5/3/15 16/3/15 
f 5/3/3 6/1/3 16/3/3 
f 17/1/16 14/2/16 16/3/16 
f 1/1/1 3/3/1 15/1/1 
f 18/4/17 1/1/17 15/1/17 
f 13/3/11 14/2/11 15/1/11 
f 16/3/18 6/1/18 17/1/18 
f 6/1/5 8/4/5 17/1/5 
f 19/4/19 14/2/19 17/1/19 
f 4/4/2 1/1/2 18/4/2 
f 20/5/20 4/4/20 18/4/20 
f 15/1/14 14/2/14 18/4/14 
f 17/1/16 8/4/16 19/4/16 
f 8/4/7 10/5/7 19/4/7 
f 21/5/21 14/2/21 19/4/21 
f 7/5/4 4/4/4 20/5/4 
f 22/6/22 7/5/22 20/5/22 
f 18/4/17 14/2/17 20/5/17 
f 19/4/19 10/5/19 21/5/19 
f 10/5/9 12/6/9 21/5/9 
f 23/6/23 14/2/23 21/5/23 
f 9/6/6 7/5/6 22/6/6 
f 24/7/24 9/6/24 22/6/24 
f 20/5/20 14/2/20 22/6/20 
f 21/5/21 12/6/21 23/6/21 
f 12/6/10 11/7/10 23/6/10 
f 24/7/24 14/2/24 23/6/24 
f 11/7/8 9/6/8 24/7/8 
f 22/6/22 14/2/22 24/7/22 
f 23/6/23 11/7/23 24/7/23 
# 44 faces

