# 3ds Max Wavefront OBJ Exporter v0.99 - (c)2007 guruware
# File Created: 17.04.2024 00:00:32

mtllib BallWeevil_PataDelDer.mtl

#
# object PataDelanteraDer
#

v  0.4292 0.5520 0.1224
v  0.6291 0.7948 0.0394
v  0.3919 0.8138 0.0609
v  0.3464 0.5984 0.0082
v  0.3811 0.5842 -0.1348
v  0.2268 0.5568 0.0009
v  0.3191 0.3942 0.1661
v  0.5563 0.3752 0.1447
v  0.6186 -0.2049 0.1711
v  0.7287 -0.0471 0.1274
v  0.4487 0.4958 -0.1192
v  0.5282 0.3040 -0.1423
v  0.3410 0.3507 -0.1652
v  0.6512 0.4910 0.0023
v  0.6138 0.7528 -0.0592
v  0.5683 0.5374 -0.1119
v  0.5463 0.8412 -0.0748
v  0.2057 0.2583 -0.1608
v  0.0838 0.0785 -0.1439
v  -0.1309 0.1779 -0.1164
v  0.1300 0.1744 -0.0025
v  0.4333 0.1882 -0.0000
v  0.1428 0.2037 0.1858
v  0.1676 0.2875 0.1433
v  0.0405 0.4643 0.1211
v  0.1343 0.4990 -0.1225
v  0.1263 0.4501 -0.1377
v  -0.0009 0.4066 -0.1181
v  -0.0411 0.4126 -0.0496
v  0.0514 0.4704 0.0738
v  0.0996 0.5132 0.0205
v  -0.1001 0.3637 0.0511
v  0.6341 -0.6410 0.1502
v  0.2711 -1.3090 0.0931
v  0.4279 -1.2952 0.0968
v  0.4489 -0.2480 -0.0209
v  0.4617 -0.2187 0.1674
v  0.6050 -0.2493 -0.1235
v  0.6247 -0.6809 -0.0998
v  0.4402 -0.2728 -0.1646
v  0.7134 -0.0891 0.0288
v  0.7903 -0.6423 0.0476
v  0.7127 -0.1042 -0.0775
v  0.4686 -0.6796 0.0029
v  0.2624 -1.3338 -0.0505
v  0.4272 -1.3103 -0.0095
v  -0.2067 0.0941 0.0419
v  -0.1358 0.2738 0.1408
v  0.5918 1.0566 -0.0221
v  0.6665 0.5330 0.1010
v  0.1920 0.5710 0.1439
v  0.2615 0.5425 -0.1420
v  0.5008 0.6258 -0.1275
v  0.4462 0.2174 0.1884
v  0.7910 -0.6273 0.1539
v  0.4205 0.1589 -0.1884
v  0.6359 0.4491 -0.0963
v  -0.2529 -0.0019 -0.0994
v  -0.0090 0.3577 -0.1333
v  -0.1606 0.1900 0.1833
v  -0.1110 0.3576 0.0983
v  0.0071 0.4555 -0.1030
v  -0.0893 0.3698 0.0038
v  0.0649 -1.9632 0.0397
v  0.4773 -0.6548 0.1465
v  0.4599 -0.7044 -0.1408
v  0.7896 -0.6574 -0.0587
# 67 vertices

vn 0.1066 0.2419 0.9644
vn -0.3148 0.9339 -0.1695
vn 0.1040 0.1974 0.9748
vn 0.2753 0.0733 0.9586
vn 0.1644 0.1852 -0.9689
vn 0.9769 0.0944 -0.1916
vn 0.3925 0.1396 -0.9091
vn -0.1297 -0.0056 -0.9915
vn 0.0435 -0.9876 0.1506
vn -0.1567 0.0116 0.9876
vn -0.2510 0.3245 -0.9120
vn -0.6075 0.7898 0.0854
vn -0.5731 0.8191 -0.0257
vn -0.0168 -0.0761 0.9970
vn -0.9965 -0.0391 0.0740
vn 0.2471 -0.0420 -0.9681
vn 0.9903 0.1367 -0.0259
vn -0.9539 0.3002 0.0058
vn 0.8747 -0.4807 0.0622
vn 0.2650 -0.2179 -0.9393
vn -0.6585 0.3073 -0.6870
vn -0.0192 -0.0486 0.9986
vn 0.0953 -0.1020 -0.9902
vn -0.0887 0.0832 -0.9926
vn 0.2632 -0.8360 0.4814
vn -0.0282 0.4584 0.8883
vn -0.3427 0.9229 -0.1752
vn -0.9968 -0.0418 0.0675
vn 0.3700 0.0198 -0.9288
vn 0.9766 0.0960 -0.1923
vn 0.2038 0.9766 -0.0690
vn 0.7871 0.2053 0.5817
vn -0.3730 0.6647 0.6474
vn -0.1946 0.6319 -0.7503
vn -0.0587 0.2549 -0.9652
vn -0.1427 -0.1965 0.9701
vn 0.7425 -0.1423 0.6546
vn -0.1430 -0.2955 -0.9446
vn 0.7086 0.1036 -0.6980
vn 0.2188 -0.9708 -0.0980
vn -0.1484 0.0988 -0.9840
vn 0.1551 -0.5045 0.8494
vn -0.3281 0.6206 0.7122
vn -0.4719 0.7382 -0.4821
vn -0.5889 0.8079 0.0219
vn -0.3866 -0.9221 0.0143
vn -0.6512 0.0205 0.7586
vn -0.5521 -0.0174 -0.8336
vn 0.8188 -0.1934 -0.5406
# 49 vertex normals

vt 0.2367 0.8865 0.0000
vt 0.2316 0.8813 0.0000
vt 0.2368 0.8803 0.0000
vt 0.1571 0.9598 0.0000
vt 0.1547 0.9578 0.0000
vt 0.1589 0.9578 0.0000
vt 0.2396 0.8898 0.0000
vt 0.2344 0.8908 0.0000
vt 0.2344 0.9036 0.0000
vt 0.2316 0.9003 0.0000
vt 0.2172 0.8890 0.0000
vt 0.2185 0.8924 0.0000
vt 0.2146 0.8905 0.0000
vt 0.1764 0.9243 0.0000
vt 0.1776 0.9303 0.0000
vt 0.1753 0.9312 0.0000
vt 0.2199 0.8889 0.0000
vt 0.2201 0.8840 0.0000
vt 0.2212 0.8860 0.0000
vt 0.2114 0.8916 0.0000
vt 0.2082 0.8944 0.0000
vt 0.2037 0.8921 0.0000
vt 0.1294 0.9601 0.0000
vt 0.1293 0.9667 0.0000
vt 0.1253 0.9601 0.0000
vt 0.2432 0.8915 0.0000
vt 0.2455 0.8872 0.0000
vt 0.1587 0.9541 0.0000
vt 0.1583 0.9533 0.0000
vt 0.1605 0.9516 0.0000
vt 0.2191 0.9390 0.0000
vt 0.2207 0.9418 0.0000
vt 0.2191 0.9421 0.0000
vt 0.2291 0.9508 0.0000
vt 0.2291 0.9469 0.0000
vt 0.2299 0.9473 0.0000
vt 0.2351 0.9129 0.0000
vt 0.2447 0.9259 0.0000
vt 0.2412 0.9261 0.0000
vt 0.3066 0.7666 0.0000
vt 0.3108 0.7675 0.0000
vt 0.3066 0.7764 0.0000
vt 0.2187 0.9027 0.0000
vt 0.2179 0.9107 0.0000
vt 0.2152 0.9019 0.0000
vt 0.1763 0.9112 0.0000
vt 0.1763 0.8987 0.0000
vt 0.1787 0.9110 0.0000
vt 0.3076 0.7570 0.0000
vt 0.3069 0.7417 0.0000
vt 0.3101 0.7424 0.0000
vt 0.1763 0.8836 0.0000
vt 0.1787 0.8834 0.0000
vt 0.2116 0.9222 0.0000
vt 0.2081 0.9213 0.0000
vt 0.1725 0.9572 0.0000
vt 0.1701 0.9590 0.0000
vt 0.1701 0.9527 0.0000
vt 0.2379 0.9034 0.0000
vt 0.2160 0.8870 0.0000
vt 0.2101 0.8882 0.0000
vt 0.1291 0.9522 0.0000
vt 0.1331 0.9588 0.0000
vt 0.2499 0.8910 0.0000
vt 0.2440 0.8936 0.0000
vt 0.1611 0.9561 0.0000
vt 0.3034 0.7659 0.0000
vt 0.2212 0.9013 0.0000
vt 0.1740 0.9121 0.0000
vt 0.2316 0.8751 0.0000
vt 0.2315 0.8874 0.0000
vt 0.2419 0.8855 0.0000
vt 0.1565 0.9558 0.0000
vt 0.1530 0.9598 0.0000
vt 0.1612 0.9598 0.0000
vt 0.2373 0.8941 0.0000
vt 0.2316 0.9131 0.0000
vt 0.2159 0.8939 0.0000
vt 0.2211 0.8910 0.0000
vt 0.2133 0.8871 0.0000
vt 0.1765 0.9371 0.0000
vt 0.1787 0.9235 0.0000
vt 0.1742 0.9252 0.0000
vt 0.2214 0.8811 0.0000
vt 0.2187 0.8868 0.0000
vt 0.2005 0.8950 0.0000
vt 0.2069 0.8893 0.0000
vt 0.1251 0.9667 0.0000
vt 0.1334 0.9667 0.0000
vt 0.1254 0.9535 0.0000
vt 0.2491 0.8889 0.0000
vt 0.1602 0.9509 0.0000
vt 0.1609 0.9524 0.0000
vt 0.2207 0.9450 0.0000
vt 0.2207 0.9387 0.0000
vt 0.2176 0.9392 0.0000
vt 0.2299 0.9433 0.0000
vt 0.2282 0.9504 0.0000
vt 0.2299 0.9512 0.0000
vt 0.2507 0.9391 0.0000
vt 0.2386 0.9127 0.0000
vt 0.3108 0.7773 0.0000
vt 0.3108 0.7577 0.0000
vt 0.3024 0.7756 0.0000
vt 0.2144 0.9099 0.0000
vt 0.2214 0.9116 0.0000
vt 0.1786 0.8985 0.0000
vt 0.1739 0.8989 0.0000
vt 0.3094 0.7270 0.0000
vt 0.3044 0.7563 0.0000
vt 0.1787 0.8683 0.0000
vt 0.2019 0.9327 0.0000
vt 0.1676 0.9545 0.0000
vt 0.1725 0.9634 0.0000
vt 0.1725 0.9509 0.0000
vt 0.1328 0.9509 0.0000
vt 0.2507 0.8930 0.0000
# 117 texture coords

o PataDelanteraDer
g PataDelanteraDer
usemtl Skin
s off
f 1/1/1 2/2/1 3/3/1 
f 4/4/2 5/5/2 6/6/2 
f 7/7/3 8/8/3 1/1/3 
f 9/9/4 10/10/4 8/8/4 
f 11/11/5 12/12/5 13/13/5 
f 14/14/6 15/15/6 2/16/6 
f 16/17/7 17/18/7 15/19/7 
f 18/20/8 19/21/8 20/22/8 
f 21/23/9 22/24/9 23/25/9 
f 24/26/10 7/7/10 25/27/10 
f 26/28/11 27/29/11 28/30/11 
f 29/31/12 30/32/12 31/33/12 
f 32/34/13 25/35/13 30/36/13 
f 33/37/14 34/38/14 35/39/14 
f 36/40/15 37/41/15 22/42/15 
f 38/43/16 39/44/16 40/45/16 
f 41/46/17 42/47/17 43/48/17 
f 44/49/18 45/50/18 34/51/18 
f 42/47/19 35/52/19 46/53/19 
f 39/44/20 46/54/20 45/55/20 
f 3/56/21 17/57/21 4/58/21 
f 37/59/22 33/37/22 9/9/22 
f 5/60/23 16/17/23 11/11/23 
f 27/61/24 13/13/24 18/20/24 
f 47/62/25 19/63/25 21/23/25 
f 48/64/26 23/65/26 24/26/26 
f 31/66/27 6/6/27 26/28/27 
f 40/67/28 44/49/28 36/40/28 
f 12/12/29 43/68/29 38/43/29 
f 14/14/30 10/69/30 41/46/30 
f 2/2/1 49/70/31 3/3/1 
f 1/1/1 50/71/32 2/2/1 
f 3/3/1 51/72/33 1/1/1 
f 5/5/2 52/73/34 6/6/2 
f 4/4/2 53/74/35 5/5/2 
f 6/6/2 51/75/33 4/4/2 
f 8/8/3 50/71/32 1/1/3 
f 7/7/3 54/76/36 8/8/3 
f 1/1/3 51/72/33 7/7/3 
f 10/10/4 50/71/32 8/8/4 
f 9/9/4 55/77/37 10/10/4 
f 8/8/4 54/76/36 9/9/4 
f 12/12/5 56/78/38 13/13/5 
f 11/11/5 57/79/39 12/12/5 
f 13/13/5 52/80/34 11/11/5 
f 15/15/6 49/81/31 2/16/6 
f 14/14/6 57/82/39 15/15/6 
f 2/16/6 50/83/32 14/14/6 
f 17/18/7 49/84/31 15/19/7 
f 16/17/7 53/85/35 17/18/7 
f 15/19/7 57/79/39 16/17/7 
f 19/21/8 58/86/40 20/22/8 
f 18/20/8 56/78/38 19/21/8 
f 20/22/8 59/87/41 18/20/8 
f 22/24/9 54/88/36 23/25/9 
f 21/23/9 56/89/38 22/24/9 
f 23/25/9 60/90/42 21/23/9 
f 7/7/10 51/72/33 25/27/10 
f 24/26/10 54/76/36 7/7/10 
f 25/27/10 61/91/43 24/26/10 
f 27/29/11 59/92/41 28/30/11 
f 26/28/11 52/73/34 27/29/11 
f 28/30/11 62/93/44 26/28/11 
f 30/32/12 51/94/33 31/33/12 
f 29/31/12 63/95/45 30/32/12 
f 31/33/12 62/96/44 29/31/12 
f 25/35/13 51/97/33 30/36/13 
f 32/34/13 61/98/43 25/35/13 
f 30/36/13 63/99/45 32/34/13 
f 34/38/14 64/100/46 35/39/14 
f 33/37/14 65/101/47 34/38/14 
f 35/39/14 55/77/37 33/37/14 
f 37/41/15 54/102/36 22/42/15 
f 36/40/15 65/103/47 37/41/15 
f 22/42/15 56/104/38 36/40/15 
f 39/44/16 66/105/48 40/45/16 
f 38/43/16 67/106/49 39/44/16 
f 40/45/16 56/78/38 38/43/16 
f 42/47/17 67/107/49 43/48/17 
f 41/46/17 55/108/37 42/47/17 
f 43/48/17 57/82/39 41/46/17 
f 45/50/18 64/109/46 34/51/18 
f 44/49/18 66/110/48 45/50/18 
f 34/51/18 65/103/47 44/49/18 
f 35/52/19 64/111/46 46/53/19 
f 42/47/19 55/108/37 35/52/19 
f 46/53/19 67/107/49 42/47/19 
f 46/54/20 64/112/46 45/55/20 
f 39/44/20 67/106/49 46/54/20 
f 45/55/20 66/105/48 39/44/20 
f 17/57/21 53/113/35 4/58/21 
f 3/56/21 49/114/31 17/57/21 
f 4/58/21 51/115/33 3/56/21 
f 33/37/22 55/77/37 9/9/22 
f 37/59/22 65/101/47 33/37/22 
f 9/9/22 54/76/36 37/59/22 
f 16/17/23 57/79/39 11/11/23 
f 5/60/23 53/85/35 16/17/23 
f 11/11/23 52/80/34 5/60/23 
f 13/13/24 56/78/38 18/20/24 
f 27/61/24 52/80/34 13/13/24 
f 18/20/24 59/87/41 27/61/24 
f 19/63/25 56/89/38 21/23/25 
f 47/62/25 58/116/40 19/63/25 
f 21/23/25 60/90/42 47/62/25 
f 23/65/26 54/76/36 24/26/26 
f 48/64/26 60/117/42 23/65/26 
f 24/26/26 61/91/43 48/64/26 
f 6/6/27 52/73/34 26/28/27 
f 31/66/27 51/75/33 6/6/27 
f 26/28/27 62/93/44 31/66/27 
f 44/49/28 65/103/47 36/40/28 
f 40/67/28 66/110/48 44/49/28 
f 36/40/28 56/104/38 40/67/28 
f 43/68/29 67/106/49 38/43/29 
f 12/12/29 57/79/39 43/68/29 
f 38/43/29 56/78/38 12/12/29 
f 10/69/30 55/108/37 41/46/30 
f 14/14/30 50/83/32 10/69/30 
f 41/46/30 57/82/39 14/14/30 
# 120 faces

