# 3ds Max Wavefront OBJ Exporter v0.99 - (c)2007 guruware
# File Created: 17.04.2024 00:08:08

mtllib BallWeevil_PataTraIzq.mtl

#
# object PataTraseraIzq
#

v  0.0346 0.1516 0.0101
v  0.1844 0.0987 -0.2018
v  0.1948 0.0409 0.0219
v  0.1411 0.3437 -0.2199
v  0.3012 0.2331 -0.2081
v  -0.1164 0.8040 -0.1808
v  -0.1615 0.8844 -0.0652
v  -0.1013 0.6336 -0.0344
v  -0.1758 -0.4518 -0.0122
v  -0.1146 0.2583 -0.0210
v  -0.3148 -0.4028 0.1803
v  0.0195 0.6024 -0.0233
v  0.1765 0.5649 -0.0614
v  0.1009 0.5156 -0.1881
v  -0.1187 0.3777 0.2033
v  -0.1043 0.2006 0.2026
v  0.0306 0.2709 0.2344
v  -0.0651 0.5811 0.1581
v  0.0556 0.5499 0.1692
v  -0.0257 0.6828 0.0923
v  -0.3915 0.5231 0.1009
v  -0.3782 0.4141 0.0956
v  -0.2669 0.4163 0.1768
v  -0.3247 0.6174 0.0504
v  -0.2133 0.6197 0.1316
v  -0.1441 0.3315 -0.2243
v  -0.1843 0.5034 -0.1925
v  -0.0159 0.3812 -0.1818
v  -0.3397 0.7878 -0.0959
v  -0.2446 0.7543 -0.2233
v  -0.4077 0.4872 -0.1077
v  -0.1310 -1.7796 -0.1021
v  -0.2714 -1.7527 -0.1269
v  -0.4122 -1.0956 -0.1879
v  -0.4501 -0.3764 0.1315
v  -0.5748 -0.2697 0.0556
v  -0.2642 -0.4297 -0.2131
v  -0.4326 -0.3075 -0.2239
v  -0.4796 -0.3032 -0.0718
v  -0.3185 -1.7484 0.0251
v  -0.1831 -1.7748 0.0740
v  -0.5113 -1.0865 0.1403
v  -0.3238 -1.1177 0.0130
v  -0.5997 -1.0644 -0.0607
v  -0.1237 -0.4566 -0.1883
v  -0.1320 0.4867 0.2085
v  0.0243 0.2093 -0.2136
v  0.0450 0.0938 0.2337
v  0.2579 0.4781 -0.2262
v  -0.1465 0.7140 0.0812
v  -0.1766 1.0549 -0.2115
v  -0.0561 0.5531 -0.1500
v  -0.2536 0.3073 0.1716
v  -0.3759 -1.1129 0.1891
v  0.0951 0.6516 0.1033
v  0.0162 0.4481 0.2350
v  -0.5029 0.5208 0.0197
v  -0.2802 0.5253 0.1820
v  -0.3125 0.4537 -0.2350
v  -0.5526 -1.0687 -0.2127
v  0.0098 -2.4367 -0.0411
v  -0.2717 -1.1225 -0.1630
v  -0.6467 -1.0601 0.0914
# 63 vertices

vn -0.5492 -0.8149 -0.1852
vn 0.0257 -0.0691 -0.9973
vn 0.9479 0.2516 0.1955
vn 0.8019 -0.0618 0.5943
vn 0.1140 0.9012 -0.4182
vn -0.2184 -0.0213 0.9756
vn 0.0582 0.5264 0.8483
vn -0.5840 -0.1100 0.8043
vn -0.4567 0.6489 0.6086
vn 0.2256 0.2278 -0.9472
vn -0.4285 0.5666 0.7038
vn -0.7600 0.1960 -0.6197
vn 0.3274 -0.0371 -0.9442
vn 0.1634 -0.0564 -0.9850
vn -0.4660 0.0823 0.8809
vn 0.0476 -0.0221 -0.9986
vn -0.7945 0.0448 -0.6056
vn -0.3725 -0.2633 0.8899
vn 0.9358 0.2255 0.2709
vn -0.8808 -0.3949 -0.2614
vn -0.5458 -0.8170 -0.1859
vn -0.2038 0.1316 -0.9701
vn 0.9384 -0.1978 0.2833
vn 0.2605 0.8372 -0.4808
vn -0.1933 -0.0706 0.9786
vn -0.0291 0.4872 0.8728
vn -0.3322 0.0403 0.9423
vn 0.1601 -0.0729 -0.9844
vn -0.9441 0.1446 -0.2961
vn 0.0608 -0.3538 -0.9333
vn -0.5986 -0.7692 0.2237
vn -0.4935 0.4224 -0.7603
vn 0.1349 0.7764 0.6157
vn 0.1088 0.9443 -0.3107
vn 0.3488 0.4533 -0.8203
vn -0.2447 -0.1799 0.9528
vn 0.3366 -0.0992 0.9364
vn -0.0399 0.9793 -0.1984
vn -0.1124 0.2186 0.9693
vn -0.9343 0.3031 0.1874
vn -0.3790 0.2854 0.8803
vn -0.3586 0.1053 -0.9275
vn -0.5874 -0.1293 -0.7989
vn 0.3230 -0.9463 -0.0123
vn 0.8059 -0.0446 -0.5904
vn -0.9040 -0.1305 0.4072
vn -0.3724 -0.2633 0.8899
# 47 vertex normals

vt 0.2148 0.7731 0.0000
vt 0.2127 0.7765 0.0000
vt 0.2107 0.7728 0.0000
vt 0.2156 0.7801 0.0000
vt 0.2115 0.7799 0.0000
vt 0.2609 0.7706 0.0000
vt 0.2581 0.7722 0.0000
vt 0.2581 0.7664 0.0000
vt 0.3179 0.7936 0.0000
vt 0.3179 0.7776 0.0000
vt 0.3220 0.7923 0.0000
vt 0.1211 0.9634 0.0000
vt 0.1242 0.9652 0.0000
vt 0.1220 0.9679 0.0000
vt 0.2616 0.9343 0.0000
vt 0.2620 0.9305 0.0000
vt 0.2649 0.9319 0.0000
vt 0.2626 0.9391 0.0000
vt 0.2653 0.9384 0.0000
vt 0.2635 0.9417 0.0000
vt 0.2554 0.9380 0.0000
vt 0.2558 0.9357 0.0000
vt 0.2582 0.9353 0.0000
vt 0.2569 0.9405 0.0000
vt 0.2593 0.9400 0.0000
vt 0.2665 0.9557 0.0000
vt 0.2645 0.9571 0.0000
vt 0.2645 0.9532 0.0000
vt 0.2603 0.9471 0.0000
vt 0.2564 0.9451 0.0000
vt 0.2854 0.8724 0.0000
vt 0.2882 0.8731 0.0000
vt 0.2858 0.8793 0.0000
vt 0.1550 0.9648 0.0000
vt 0.1578 0.9648 0.0000
vt 0.1558 0.9698 0.0000
vt 0.3106 0.8263 0.0000
vt 0.3075 0.8255 0.0000
vt 0.3042 0.8130 0.0000
vt 0.2547 0.9183 0.0000
vt 0.2518 0.9211 0.0000
vt 0.3075 0.8008 0.0000
vt 0.3037 0.7985 0.0000
vt 0.3100 0.7871 0.0000
vt 0.2852 0.8973 0.0000
vt 0.2825 0.8966 0.0000
vt 0.2584 0.8894 0.0000
vt 0.2615 0.8886 0.0000
vt 0.2537 0.9028 0.0000
vt 0.3196 0.8236 0.0000
vt 0.3158 0.8237 0.0000
vt 0.3182 0.8085 0.0000
vt 0.2865 0.9300 0.0000
vt 0.2831 0.9300 0.0000
vt 0.2852 0.9146 0.0000
vt 0.2167 0.7700 0.0000
vt 0.2188 0.7737 0.0000
vt 0.2188 0.7786 0.0000
vt 0.2176 0.7820 0.0000
vt 0.3141 0.7937 0.0000
vt 0.1185 0.9627 0.0000
vt 0.1207 0.9601 0.0000
vt 0.2612 0.9367 0.0000
vt 0.2577 0.9175 0.0000
vt 0.3106 0.8016 0.0000
vt 0.2885 0.8973 0.0000
vt 0.2169 0.7767 0.0000
vt 0.2127 0.7695 0.0000
vt 0.2144 0.7835 0.0000
vt 0.2554 0.7679 0.0000
vt 0.2609 0.7765 0.0000
vt 0.2609 0.7648 0.0000
vt 0.3220 0.7763 0.0000
vt 0.3138 0.7788 0.0000
vt 0.3220 0.8083 0.0000
vt 0.1251 0.9698 0.0000
vt 0.1233 0.9607 0.0000
vt 0.1188 0.9660 0.0000
vt 0.2654 0.9281 0.0000
vt 0.2586 0.9330 0.0000
vt 0.2645 0.9357 0.0000
vt 0.2662 0.9411 0.0000
vt 0.2608 0.9424 0.0000
vt 0.2529 0.9385 0.0000
vt 0.2579 0.9376 0.0000
vt 0.2624 0.9546 0.0000
vt 0.2665 0.9596 0.0000
vt 0.2665 0.9518 0.0000
vt 0.2599 0.9518 0.0000
vt 0.2885 0.8800 0.0000
vt 0.2878 0.8663 0.0000
vt 0.2831 0.8786 0.0000
vt 0.1587 0.9698 0.0000
vt 0.1569 0.9598 0.0000
vt 0.1530 0.9698 0.0000
vt 0.3011 0.8122 0.0000
vt 0.3138 0.8388 0.0000
vt 0.3074 0.8138 0.0000
vt 0.2507 0.9037 0.0000
vt 0.3063 0.7848 0.0000
vt 0.3138 0.7894 0.0000
vt 0.2819 0.9146 0.0000
vt 0.2567 0.9020 0.0000
vt 0.2662 0.8751 0.0000
vt 0.3143 0.8087 0.0000
vt 0.3172 0.8388 0.0000
vt 0.2844 0.9454 0.0000
vt 0.2885 0.9147 0.0000
vt 0.2207 0.7706 0.0000
vt 0.2207 0.7806 0.0000
vt 0.1181 0.9594 0.0000
# 111 texture coords

o PataTraseraIzq
g PataTraseraIzq
usemtl Skin
s off
f 1/1/1 2/2/1 3/3/1 
f 4/4/2 5/5/2 2/2/2 
f 6/6/3 7/7/3 8/8/3 
f 9/9/4 10/10/4 11/11/4 
f 12/12/5 13/13/5 14/14/5 
f 15/15/6 16/16/6 17/17/6 
f 18/18/7 19/19/7 20/20/7 
f 21/21/8 22/22/8 23/23/8 
f 24/24/9 21/21/9 25/25/9 
f 26/26/10 27/27/10 28/28/10 
f 7/29/11 29/30/11 24/24/11 
f 29/31/12 30/32/12 31/33/12 
f 30/34/13 6/35/13 27/36/13 
f 32/37/14 33/38/14 34/39/14 
f 35/40/15 22/22/15 36/41/15 
f 37/42/16 38/43/16 26/44/16 
f 39/45/17 36/46/17 31/33/17 
f 40/47/18 41/48/18 42/49/18 
f 41/50/19 32/51/19 43/52/19 
f 33/53/20 40/54/20 44/55/20 
f 16/56/21 10/57/21 1/1/21 
f 28/58/22 14/59/22 4/4/22 
f 43/52/23 45/60/23 9/9/23 
f 8/61/24 20/62/24 12/12/24 
f 46/63/25 23/23/25 15/15/25 
f 25/25/26 46/63/26 18/18/26 
f 42/49/27 11/64/27 35/40/27 
f 45/65/28 34/39/28 37/42/28 
f 38/66/29 44/55/29 39/45/29 
f 1/1/1 47/67/30 2/2/1 
f 3/3/1 48/68/31 1/1/1 
f 4/4/2 49/69/32 5/5/2 
f 2/2/2 47/67/30 4/4/2 
f 7/7/3 50/70/33 8/8/3 
f 6/6/3 51/71/34 7/7/3 
f 8/8/3 52/72/35 6/6/3 
f 10/10/4 53/73/36 11/11/4 
f 9/9/4 47/74/30 10/10/4 
f 11/11/4 54/75/37 9/9/4 
f 13/13/5 49/76/32 14/14/5 
f 12/12/5 55/77/38 13/13/5 
f 14/14/5 52/78/35 12/12/5 
f 16/16/6 48/79/31 17/17/6 
f 15/15/6 53/80/36 16/16/6 
f 17/17/6 56/81/39 15/15/6 
f 19/19/7 55/82/38 20/20/7 
f 18/18/7 56/81/39 19/19/7 
f 20/20/7 50/83/33 18/18/7 
f 22/22/8 53/80/36 23/23/8 
f 21/21/8 57/84/40 22/22/8 
f 23/23/8 58/85/41 21/21/8 
f 21/21/9 58/85/41 25/25/9 
f 24/24/9 57/84/40 21/21/9 
f 25/25/9 50/83/33 24/24/9 
f 27/27/10 52/86/35 28/28/10 
f 26/26/10 59/87/42 27/27/10 
f 28/28/10 47/88/30 26/26/10 
f 29/30/11 57/84/40 24/24/11 
f 7/29/11 51/89/34 29/30/11 
f 24/24/11 50/83/33 7/29/11 
f 30/32/12 59/90/42 31/33/12 
f 29/31/12 51/91/34 30/32/12 
f 31/33/12 57/92/40 29/31/12 
f 6/35/13 52/93/35 27/36/13 
f 30/34/13 51/94/34 6/35/13 
f 27/36/13 59/95/42 30/34/13 
f 33/38/14 60/96/43 34/39/14 
f 32/37/14 61/97/44 33/38/14 
f 34/39/14 62/98/45 32/37/14 
f 22/22/15 57/84/40 36/41/15 
f 35/40/15 53/80/36 22/22/15 
f 36/41/15 63/99/46 35/40/15 
f 38/43/16 59/100/42 26/44/16 
f 37/42/16 60/96/43 38/43/16 
f 26/44/16 47/101/30 37/42/16 
f 36/46/17 57/92/40 31/33/17 
f 39/45/17 63/102/46 36/46/17 
f 31/33/17 59/90/42 39/45/17 
f 41/48/47 54/103/37 42/49/47 
f 40/47/18 61/104/44 41/48/18 
f 42/49/47 63/99/46 40/47/47 
f 32/51/19 62/105/45 43/52/19 
f 41/50/19 61/106/44 32/51/19 
f 43/52/19 54/75/37 41/50/19 
f 40/54/20 63/102/46 44/55/20 
f 33/53/20 61/107/44 40/54/20 
f 44/55/20 60/108/43 33/53/20 
f 10/57/21 47/67/30 1/1/21 
f 16/56/21 53/109/36 10/57/21 
f 1/1/21 48/68/31 16/56/21 
f 14/59/22 49/69/32 4/4/22 
f 28/58/22 52/110/35 14/59/22 
f 4/4/22 47/67/30 28/58/22 
f 45/60/23 47/74/30 9/9/23 
f 43/52/23 62/105/45 45/60/23 
f 9/9/23 54/75/37 43/52/23 
f 20/62/24 55/77/38 12/12/24 
f 8/61/24 50/111/33 20/62/24 
f 12/12/24 52/78/35 8/61/24 
f 23/23/25 53/80/36 15/15/25 
f 46/63/25 58/85/41 23/23/25 
f 15/15/25 56/81/39 46/63/25 
f 46/63/26 56/81/39 18/18/26 
f 25/25/26 58/85/41 46/63/26 
f 18/18/26 50/83/33 25/25/26 
f 11/64/27 53/80/36 35/40/27 
f 42/49/27 54/103/37 11/64/27 
f 35/40/27 63/99/46 42/49/27 
f 34/39/28 60/96/43 37/42/28 
f 45/65/28 62/98/45 34/39/28 
f 37/42/28 47/101/30 45/65/28 
f 44/55/29 63/102/46 39/45/29 
f 38/66/29 60/108/43 44/55/29 
f 39/45/29 59/90/42 38/66/29 
# 114 faces

