# 3ds Max Wavefront OBJ Exporter v0.99 - (c)2007 guruware
# File Created: 24.04.2024 14:12:40

mtllib BallWeevil_PataDelDer.mtl

#
# object PataDelDer
#

v  3.0763 3.9743 -3.6152
v  3.9288 3.9806 -3.6921
v  3.7138 4.9032 -3.9125
v  3.6186 4.1203 -4.1014
v  3.2047 3.9344 -4.1272
v  3.5849 3.3831 -3.5355
v  4.3321 1.9296 -3.5972
v  3.8874 3.8260 -4.0455
v  3.5483 3.2746 -4.2103
v  2.7509 3.5624 -4.1117
v  2.3719 2.8827 -4.0509
v  2.5067 3.2394 -3.5446
v  2.5690 3.5462 -3.6968
v  2.7644 3.7393 -4.0573
v  2.6058 3.5714 -3.8661
v  3.7767 1.8316 -3.6104
v  3.2451 -0.5674 -3.8017
v  4.3343 1.8757 -3.9780
v  3.7534 1.7403 -4.1251
# 19 vertices

vn -0.4295 0.6297 0.6474
vn 0.7662 0.2731 0.5817
vn 0.1179 0.9906 -0.0690
vn -0.0807 0.2489 -0.9652
vn -0.2489 0.6125 -0.7503
vn -0.1251 -0.2082 0.9701
vn 0.7520 -0.0771 0.6546
vn 0.6968 0.1649 -0.6980
vn -0.1167 -0.3069 -0.9446
vn -0.1564 0.0855 -0.9840
vn 0.3025 -0.9481 -0.0980
vn 0.1985 -0.4890 0.8494
vn -0.3809 0.5897 0.7122
vn -0.5344 0.6942 -0.4821
vn -0.6570 0.7535 0.0219
vn -0.6506 -0.0364 0.7586
vn -0.3047 -0.9523 0.0143
vn 0.8325 -0.1213 -0.5406
vn -0.5485 -0.0655 -0.8336
# 19 vertex normals

vt 0.2419 0.8855 0.0000
vt 0.2315 0.8874 0.0000
vt 0.2316 0.8751 0.0000
vt 0.1612 0.9598 0.0000
vt 0.1530 0.9598 0.0000
vt 0.1565 0.9558 0.0000
vt 0.2373 0.8941 0.0000
vt 0.2316 0.9131 0.0000
vt 0.2133 0.8871 0.0000
vt 0.2211 0.8910 0.0000
vt 0.2159 0.8939 0.0000
vt 0.1742 0.9252 0.0000
vt 0.1787 0.9235 0.0000
vt 0.1765 0.9371 0.0000
vt 0.2187 0.8868 0.0000
vt 0.2214 0.8811 0.0000
vt 0.2069 0.8893 0.0000
vt 0.2005 0.8950 0.0000
vt 0.1254 0.9535 0.0000
vt 0.1334 0.9667 0.0000
vt 0.1251 0.9667 0.0000
vt 0.2491 0.8889 0.0000
vt 0.1609 0.9524 0.0000
vt 0.1602 0.9509 0.0000
vt 0.2176 0.9392 0.0000
vt 0.2207 0.9387 0.0000
vt 0.2207 0.9450 0.0000
vt 0.2299 0.9512 0.0000
vt 0.2282 0.9504 0.0000
vt 0.2299 0.9433 0.0000
vt 0.2386 0.9127 0.0000
vt 0.2507 0.9391 0.0000
vt 0.3024 0.7756 0.0000
vt 0.3108 0.7577 0.0000
vt 0.3108 0.7773 0.0000
vt 0.2214 0.9116 0.0000
vt 0.2144 0.9099 0.0000
vt 0.1739 0.8989 0.0000
vt 0.1786 0.8985 0.0000
vt 0.3044 0.7563 0.0000
vt 0.3094 0.7270 0.0000
vt 0.1787 0.8683 0.0000
vt 0.2019 0.9327 0.0000
vt 0.1725 0.9509 0.0000
vt 0.1725 0.9634 0.0000
vt 0.1676 0.9545 0.0000
vt 0.1328 0.9509 0.0000
vt 0.2507 0.8930 0.0000
# 48 texture coords

o PataDelDer
g PataDelDer
usemtl Skin
s off
f 1/1/1 2/2/2 3/3/3 
f 1/4/1 4/5/4 5/6/5 
f 1/1/1 6/7/6 2/2/2 
f 6/7/6 7/8/7 2/2/2 
f 5/9/5 8/10/8 9/11/9 
f 2/12/2 8/13/8 3/14/3 
f 8/10/8 4/15/4 3/16/3 
f 10/17/10 9/11/9 11/18/11 
f 12/19/12 9/20/9 6/21/6 
f 13/22/13 6/7/6 1/1/1 
f 14/23/14 5/6/5 10/24/10 
f 14/25/14 15/26/15 1/27/1 
f 15/28/15 13/29/13 1/30/1 
f 7/8/7 16/31/16 17/32/17 
f 9/33/9 16/34/16 6/35/6 
f 9/11/9 18/36/18 19/37/19 
f 8/13/8 7/38/7 18/39/18 
f 16/34/16 19/40/19 17/41/17 
f 18/39/18 7/38/7 17/42/17 
f 19/37/19 18/36/18 17/43/17 
f 1/44/1 3/45/3 4/46/4 
f 6/7/6 16/31/16 7/8/7 
f 5/9/5 4/15/4 8/10/8 
f 10/17/10 5/9/5 9/11/9 
f 12/19/12 11/47/11 9/20/9 
f 13/22/13 12/48/12 6/7/6 
f 14/23/14 1/4/1 5/6/5 
f 9/33/9 19/40/19 16/34/16 
f 9/11/9 8/10/8 18/36/18 
f 8/13/8 2/12/2 7/38/7 
# 0 polygons - 30 triangles

