# 3ds Max Wavefront OBJ Exporter v0.99 - (c)2007 guruware
# File Created: 24.04.2024 14:13:20

mtllib BallWeevil_PataTraDer.mtl

#
# object PataTrasIzq
#

v  2.3045 3.9810 -6.0385
v  2.3415 4.1880 -6.8397
v  2.8392 4.3635 -6.1499
v  1.9231 4.6694 -6.8622
v  1.7678 3.7917 -6.7974
v  2.4855 4.8038 -6.7259
v  2.6474 5.0920 -6.3118
v  2.7013 5.7024 -6.8360
v  2.8239 1.8024 -6.6653
v  3.1490 1.8197 -6.0935
v  2.2148 4.9802 -6.2721
v  2.3559 4.6157 -6.0362
v  2.8869 4.7540 -6.1311
v  3.2724 4.7412 -6.4397
v  2.9581 4.6303 -6.8602
v  3.2938 1.8988 -6.8663
v  2.3675 -0.5515 -6.5308
v  3.5816 1.9142 -6.3741
# 18 vertices

vn 0.5986 -0.7692 0.2237
vn -0.0432 -0.3636 -0.9306
vn 0.2672 -0.1967 0.9433
vn 0.4935 0.4224 -0.7603
vn 0.3779 -0.6203 -0.6873
vn -0.3302 0.4506 -0.8294
vn -0.1216 0.7804 0.6134
vn -0.1054 0.9443 -0.3118
vn -0.9385 -0.0045 -0.3452
vn -0.1251 -0.0982 0.9873
vn 0.0399 0.9793 -0.1984
vn 0.1124 0.2186 0.9693
vn 0.4008 0.2877 0.8698
vn 0.9371 0.3042 0.1713
vn 0.3718 0.1109 -0.9217
vn 0.4033 -0.1372 -0.9047
vn -0.3229 -0.9463 -0.0131
vn 0.9678 -0.1321 0.2145
# 18 vertex normals

vt 0.1395 0.9623 0.0000
vt 0.1462 0.9565 0.0000
vt 0.1462 0.9669 0.0000
vt 0.1530 0.9603 0.0000
vt 0.1469 0.9566 0.0000
vt 0.1530 0.9509 0.0000
vt 0.2507 0.9524 0.0000
vt 0.2570 0.9518 0.0000
vt 0.2570 0.9620 0.0000
vt 0.2303 0.9433 0.0000
vt 0.2230 0.9111 0.0000
vt 0.2303 0.9112 0.0000
vt 0.2536 0.7739 0.0000
vt 0.2490 0.7686 0.0000
vt 0.2554 0.7648 0.0000
vt 0.3026 0.8734 0.0000
vt 0.3083 0.8700 0.0000
vt 0.3094 0.8746 0.0000
vt 0.3070 0.8797 0.0000
vt 0.3015 0.8788 0.0000
vt 0.3143 0.8750 0.0000
vt 0.2554 0.7765 0.0000
vt 0.2604 0.7765 0.0000
vt 0.2604 0.7829 0.0000
vt 0.3088 0.8889 0.0000
vt 0.3150 0.7395 0.0000
vt 0.3204 0.7384 0.0000
vt 0.3203 0.7521 0.0000
vt 0.2624 0.9627 0.0000
vt 0.2570 0.9603 0.0000
vt 0.2624 0.9518 0.0000
vt 0.3083 0.6975 0.0000
vt 0.3024 0.7000 0.0000
vt 0.3141 0.6732 0.0000
vt 0.3143 0.8403 0.0000
vt 0.3141 0.7226 0.0000
vt 0.3141 0.7036 0.0000
vt 0.3204 0.7036 0.0000
vt 0.2871 0.9741 0.0000
vt 0.2819 0.9701 0.0000
vt 0.2871 0.9454 0.0000
vt 0.2236 0.8811 0.0000
vt 0.3171 0.6732 0.0000
vt 0.1396 0.9509 0.0000
vt 0.1462 0.9621 0.0000
vt 0.2214 0.9412 0.0000
vt 0.2484 0.7752 0.0000
vt 0.3011 0.8658 0.0000
vt 0.3087 0.8388 0.0000
vt 0.3064 0.7270 0.0000
# 50 texture coords

o PataTrasIzq
g PataTrasIzq
usemtl Skin
s off
f 1/1/1 2/2/2 3/3/3 
f 4/4/4 2/5/2 5/6/5 
f 6/7/6 7/8/7 8/9/8 
f 3/10/3 9/11/9 10/12/10 
f 11/13/11 6/14/6 4/15/4 
f 12/16/12 3/17/3 13/18/13 
f 12/16/12 7/19/7 11/20/11 
f 13/18/13 3/17/3 14/21/14 
f 7/19/7 13/18/13 14/21/14 
f 2/22/2 6/23/6 15/24/15 
f 7/19/7 14/21/14 8/25/8 
f 14/26/14 15/27/15 8/28/8 
f 15/29/15 6/30/6 8/31/8 
f 9/32/9 16/33/16 17/34/17 
f 3/17/3 18/35/18 14/21/14 
f 2/36/2 16/33/16 9/32/9 
f 15/27/15 18/37/18 16/38/16 
f 18/39/18 10/40/10 17/41/17 
f 10/12/10 9/11/9 17/42/17 
f 16/38/16 18/37/18 17/43/17 
f 1/1/1 5/44/5 2/2/2 
f 4/4/4 6/45/6 2/5/2 
f 3/10/3 2/46/2 9/11/9 
f 11/13/11 7/47/7 6/14/6 
f 12/16/12 1/48/1 3/17/3 
f 12/16/12 13/18/13 7/19/7 
f 3/17/3 10/49/10 18/35/18 
f 2/36/2 15/50/15 16/33/16 
f 15/27/15 14/26/14 18/37/18 
# 0 polygons - 29 triangles

