# Blender 4.1.1
# www.blender.org
mtllib La Gran Rosquilla V.mtl
o Vidrios
v 0.898523 0.912964 1.002386
v 0.442744 0.912964 1.002386
v 0.898523 0.559348 1.002386
v 0.442744 0.559348 1.002386
v -0.977377 0.911048 1.002386
v -0.977377 0.561264 1.002386
v 0.334564 0.561264 1.002386
v 0.334564 0.911048 1.002386
v -0.977377 0.447193 1.002386
v -0.977377 -0.901402 1.002386
v 0.334564 -0.901402 1.002386
v 0.334564 0.447193 1.002386
v 0.867987 0.417556 1.006909
v 0.473279 0.417556 1.006909
v 0.867987 -0.872072 1.012747
v 0.473279 -0.872072 1.012747
v 1.849802 0.912983 1.002386
v 1.014395 0.912983 1.002386
v 1.849802 0.559329 1.002386
v 1.014395 0.559329 1.002386
v 1.843294 0.446176 1.002386
v 1.016330 0.446176 1.002386
v 1.843294 -0.900692 1.002386
v 1.016330 -0.900692 1.002386
v 0.867987 -0.288854 1.012747
v 0.473279 -0.288854 1.012747
v 0.867987 -0.235581 1.006909
v 0.473279 -0.235581 1.006909
v -1.102185 -0.898249 0.075824
v -1.102185 -0.898249 0.902787
v -1.102185 0.448619 0.075824
v -1.102185 0.448619 0.902787
v -1.102185 0.561772 0.073889
v -1.102185 0.561772 0.909296
v -1.102185 0.915426 0.073889
v -1.102185 0.915426 0.909296
vn -0.0000 -0.0000 1.0000
vn -1.0000 -0.0000 -0.0000
vt 0.000000 0.000000
s 0
usemtl Vidrios
f 28/1/1 27/1/1 13/1/1 14/1/1
f 16/1/1 15/1/1 25/1/1 26/1/1
f 21/1/1 22/1/1 24/1/1 23/1/1
f 17/1/1 18/1/1 20/1/1 19/1/1
f 9/1/1 10/1/1 11/1/1 12/1/1
f 1/1/1 2/1/1 4/1/1 3/1/1
f 5/1/1 6/1/1 7/1/1 8/1/1
f 36/1/2 35/1/2 33/1/2 34/1/2
f 32/1/2 31/1/2 29/1/2 30/1/2
