# 3ds Max Wavefront OBJ Exporter v0.99 - (c)2007 guruware
# File Created: 15.04.2024 22:11:20

mtllib Leon Pata TraIzq.mtl

#
# object Pata_trasera_izquierda
#

v  -3.9723 -3.3537 4.9400
v  -1.3301 -5.5308 5.2120
v  -1.1825 -1.2356 8.1511
v  -4.0170 1.6481 7.6632
v  5.3723 -3.2006 -3.9346
v  4.7323 -5.6146 -3.7608
v  2.5582 -3.3472 -6.9558
v  2.9142 0.3557 -6.7955
v  -3.8267 3.2025 -4.6503
v  -3.5846 -1.4869 -4.9885
v  -4.8698 -1.5759 -1.5720
v  -5.1448 3.2830 -0.6657
v  -1.1628 2.3308 -7.6396
v  -1.0391 -1.8666 -7.4666
v  3.3128 -7.0070 1.4632
v  4.3434 -5.3187 3.4221
v  1.2579 -6.7189 3.6926
v  2.1202 -4.7040 6.3754
v  -5.1873 -2.2112 2.1043
v  -5.5853 2.8090 3.6169
v  2.9041 -9.5877 -0.6116
v  4.1457 -8.5080 -4.2505
v  3.2306 -6.6950 -8.1182
v  -0.3528 -5.8082 -8.5247
v  -2.5264 -5.8460 -6.0072
v  -4.0662 -5.9025 -2.6429
v  -4.1271 -6.6519 0.5540
v  -2.7288 -7.6847 2.4400
v  -0.6086 -8.6326 2.4537
v  1.1913 -9.3004 1.2219
v  3.3831 -12.4321 -1.9311
v  4.4977 -11.4907 -5.2790
v  3.4077 -10.0663 -9.1562
v  -0.3136 -9.1162 -10.2409
v  -2.5382 -9.2356 -7.8441
v  -3.2779 -9.9635 -4.4400
v  -2.7775 -10.5048 -1.8570
v  -1.4861 -11.1069 -0.5767
v  0.1103 -11.6335 -0.2828
v  1.5169 -12.3544 -0.5324
v  3.8256 -14.8278 -2.2269
v  4.6469 -14.3430 -5.5975
v  2.8995 -13.5278 -9.0289
v  -0.4247 -12.8057 -10.1660
v  -3.0030 -12.5183 -8.1030
v  -4.1237 -12.8016 -4.8945
v  -3.2309 -13.2877 -2.1956
v  -1.6530 -13.7962 -0.7043
v  0.0685 -14.2876 -0.1577
v  1.9102 -14.7734 -0.5081
v  3.7550 -17.3763 -2.2234
v  4.2103 -17.2379 -5.3485
v  2.5396 -16.8744 -8.3163
v  -0.6180 -16.4602 -9.4702
v  -3.2816 -16.0218 -7.6574
v  -4.3601 -15.9689 -4.6773
v  -3.3760 -16.2165 -2.0759
v  -1.7828 -16.5758 -0.5966
v  -0.0111 -16.9336 0.0514
v  1.9779 -17.2520 -0.3635
v  3.4447 -19.7559 -1.9480
v  3.7581 -19.8361 -4.7567
v  2.2646 -19.7854 -7.4137
v  -0.7352 -19.6024 -8.6389
v  -3.3701 -19.1376 -6.8787
v  -4.0732 -18.8434 -4.0792
v  -3.1610 -18.8869 -1.7541
v  -1.8015 -18.9931 -0.3107
v  -0.1065 -19.2051 0.4233
v  1.8671 -19.5459 -0.0294
v  2.9541 -21.7203 -1.5718
v  3.4488 -21.9361 -4.1004
v  2.0832 -22.1785 -6.6130
v  -0.8119 -22.1932 -7.6518
v  -3.3008 -21.6940 -6.0020
v  -3.8293 -21.2116 -3.3301
v  -3.4666 -21.1601 -0.7883
v  -1.9710 -20.8478 0.4479
v  -0.2815 -21.0013 0.9005
v  1.5395 -21.5808 0.4334
v  -0.5381 -21.9840 1.8940
v  0.7505 -22.1579 1.7135
v  -2.0283 -22.0541 1.4322
v  -3.0818 -22.1346 0.6906
v  -3.6797 -22.8937 1.3052
v  -2.3898 -22.8099 2.5288
v  -0.6055 -22.6671 3.1372
v  1.2338 -22.8055 2.6250
v  -2.8469 -23.9926 3.7596
v  -4.8153 -24.0236 2.3625
v  -0.6174 -23.9633 4.5371
v  1.8249 -24.1342 3.9178
v  -5.0311 -26.0646 3.0112
v  -2.9862 -26.3399 4.1135
v  -0.5030 -26.2641 4.3604
v  1.6531 -26.1323 4.2938
v  -4.4972 -26.9948 0.8059
v  -2.2300 -27.6164 1.7629
v  -0.0503 -27.4223 2.1385
v  2.2009 -26.8924 2.2378
v  2.3988 -23.0178 0.9889
v  3.1865 -23.3496 -1.0785
v  3.7479 -23.8301 -3.6875
v  2.2228 -24.3571 -6.3448
v  -0.8454 -24.3197 -6.7331
v  -3.1605 -23.8241 -5.2180
v  -4.5469 -23.2310 -3.0318
v  -4.4187 -22.8112 -0.5419
v  3.0872 -24.7551 1.7816
v  3.6001 -25.3637 -0.5312
v  3.7884 -26.0676 -3.2048
v  2.0021 -26.3948 -5.5147
v  -0.7926 -26.2932 -5.9105
v  -3.1815 -26.0690 -4.6931
v  -4.8778 -25.6131 -2.6077
v  -5.6813 -24.7522 -0.0746
v  -3.3072 -27.3250 -1.4337
v  -2.1442 -27.6499 -3.3453
v  -0.4900 -27.7013 -4.5058
v  1.3055 -27.6421 -4.0329
v  2.0247 -27.3523 -2.2682
v  2.3276 -27.2504 -0.1436
v  -1.3956 -27.7163 -0.5193
v  0.3462 -27.6806 -0.1482
v  -0.6626 -27.8283 -2.2362
v  0.5603 -27.6725 -1.9574
v  -0.1128 -27.8857 -3.2067
v  0.5734 -27.7752 -2.9997
# 128 vertices

vn -0.7452 -0.3942 0.5379
vn -0.2599 -0.6148 0.7446
vn -0.6102 -0.6357 0.4728
vn -0.8995 -0.2705 0.3432
vn 0.5462 -0.6011 -0.5834
vn 0.9676 -0.1887 -0.1679
vn 0.5521 0.0913 -0.8288
vn 0.0994 -0.3431 -0.9340
vn -0.8715 0.0895 -0.4822
vn -0.8517 -0.0345 -0.5229
vn -0.9710 -0.0836 -0.2240
vn -0.9754 0.1053 -0.1939
vn -0.4293 -0.0374 -0.9024
vn -0.3395 0.0609 -0.9386
vn 0.7588 -0.5425 0.3603
vn 0.2833 -0.9545 0.0925
vn 0.2664 -0.7093 0.6527
vn -0.2246 -0.8923 0.3917
vn -0.9747 -0.1923 0.1142
vn -0.9954 0.0181 0.0945
vn 0.8213 -0.2861 0.4936
vn 0.9998 -0.0121 0.0157
vn 0.6963 0.2693 -0.6653
vn -0.2626 0.3217 -0.9097
vn -0.8564 0.0661 -0.5121
vn -0.9709 -0.1432 -0.1918
vn -0.9225 -0.3510 0.1607
vn -0.6269 -0.5685 0.5328
vn -0.1012 -0.6698 0.7356
vn 0.3739 -0.5631 0.7370
vn 0.8421 -0.0139 0.5391
vn 0.9990 0.0432 -0.0130
vn 0.7021 0.1189 -0.7020
vn -0.2157 0.2204 -0.9513
vn -0.8342 0.1893 -0.5180
vn -0.9949 0.0630 -0.0790
vn -0.9185 -0.1792 0.3525
vn -0.5690 -0.3577 0.7405
vn -0.0650 -0.3518 0.9338
vn 0.4358 -0.1561 0.8864
vn 0.8687 0.0164 0.4950
vn 0.9901 -0.0665 -0.1233
vn 0.6369 -0.1312 -0.7597
vn -0.1910 -0.0735 -0.9788
vn -0.8265 0.0688 -0.5587
vn -0.9907 0.1361 -0.0079
vn -0.8460 0.0865 0.5261
vn -0.4939 0.0392 0.8686
vn -0.0398 0.0495 0.9980
vn 0.4604 0.0527 0.8861
vn 0.9010 -0.0489 0.4311
vn 0.9669 -0.1718 -0.1885
vn 0.6097 -0.2435 -0.7543
vn -0.1579 -0.2123 -0.9644
vn -0.8032 -0.0847 -0.5897
vn -1.0000 -0.0014 0.0066
vn -0.8370 0.0409 0.5456
vn -0.5223 0.0806 0.8490
vn -0.0563 0.1081 0.9925
vn 0.5027 0.0641 0.8621
vn 0.9140 -0.0788 0.3979
vn 0.9616 -0.2028 -0.1852
vn 0.6184 -0.2930 -0.7292
vn -0.1361 -0.3008 -0.9439
vn -0.8116 -0.1842 -0.5545
vn -0.9984 -0.0473 0.0299
vn -0.8527 0.1199 0.5085
vn -0.5154 0.2319 0.8250
vn -0.0256 0.2134 0.9766
vn 0.5530 0.0791 0.8294
vn 0.9276 0.1098 0.3570
vn 0.9850 -0.0543 -0.1640
vn 0.6195 -0.2253 -0.7520
vn -0.1600 -0.3298 -0.9304
vn -0.8090 -0.1888 -0.5567
vn -0.9920 0.1129 -0.0569
vn -0.8114 0.4220 0.4045
vn -0.4428 0.5006 0.7439
vn 0.0421 0.5169 0.8550
vn 0.6194 0.4099 0.6696
vn 0.0122 0.8047 0.5935
vn 0.3665 0.7600 0.5368
vn -0.3431 0.7468 0.5697
vn -0.5755 0.6505 0.4957
vn -0.5811 0.7200 0.3793
vn -0.3293 0.7863 0.5227
vn -0.0149 0.8036 0.5949
vn 0.4629 0.7234 0.5122
vn -0.3737 0.4632 0.8036
vn -0.7766 0.4158 0.4733
vn -0.0269 0.4085 0.9123
vn 0.5976 0.3294 0.7310
vn -0.7560 -0.3524 0.5516
vn -0.3369 -0.4618 0.8205
vn 0.0121 -0.5015 0.8651
vn 0.4800 -0.4265 0.7666
vn -0.6566 -0.7502 0.0775
vn -0.1415 -0.9618 0.2344
vn 0.0939 -0.9512 0.2938
vn 0.6177 -0.7026 0.3532
vn 0.7850 0.5069 0.3562
vn 0.9341 0.2779 0.2242
vn 0.9806 0.0364 -0.1929
vn 0.5638 -0.2262 -0.7943
vn -0.2038 -0.3268 -0.9228
vn -0.7390 -0.1566 -0.6553
vn -0.9395 0.1835 -0.2894
vn -0.8518 0.5119 0.1116
vn 0.9418 0.0836 0.3257
vn 0.9710 -0.1702 0.1679
vn 0.8998 -0.4045 -0.1639
vn 0.4760 -0.5618 -0.6766
vn -0.1900 -0.5455 -0.8163
vn -0.6394 -0.4615 -0.6149
vn -0.8840 -0.3086 -0.3513
vn -0.9989 0.0383 -0.0271
vn -0.4804 -0.8684 -0.1228
vn -0.3688 -0.8914 -0.2636
vn -0.0947 -0.8877 -0.4506
vn 0.3108 -0.9013 -0.3018
vn 0.4852 -0.8744 -0.0111
vn 0.5666 -0.8134 0.1320
vn -0.0824 -0.9959 0.0374
vn 0.1330 -0.9879 0.0795
vn -0.0397 -0.9988 0.0272
vn 0.1566 -0.9860 0.0570
vn 0.0244 -0.9991 -0.0333
vn 0.1620 -0.9865 0.0258
# 128 vertex normals

vt 0.8980 0.9511 0.0000
vt 0.9139 0.9351 0.0000
vt 0.9210 0.9714 0.0000
vt 0.9046 0.9907 0.0000
vt 0.7460 0.9346 0.0000
vt 0.7461 0.9176 0.0000
vt 0.7761 0.9301 0.0000
vt 0.7741 0.9564 0.0000
vt 0.8250 0.9806 0.0000
vt 0.8281 0.9476 0.0000
vt 0.8527 0.9517 0.0000
vt 0.8509 0.9867 0.0000
vt 0.8005 0.9711 0.0000
vt 0.8031 0.9414 0.0000
vt 0.9435 0.9059 0.0000
vt 0.9768 0.8852 0.0000
vt 0.9921 0.8935 0.0000
vt 0.9497 0.9245 0.0000
vt 0.9279 0.9192 0.0000
vt 0.9362 0.9426 0.0000
vt 0.8771 0.9536 0.0000
vt 0.8774 0.9908 0.0000
vt 0.9365 0.8830 0.0000
vt 0.9630 0.8726 0.0000
vt 0.7463 0.8974 0.0000
vt 0.7760 0.9054 0.0000
vt 0.8024 0.9123 0.0000
vt 0.8273 0.9156 0.0000
vt 0.8539 0.9193 0.0000
vt 0.8777 0.9190 0.0000
vt 0.8962 0.9143 0.0000
vt 0.9102 0.9046 0.0000
vt 0.9218 0.8933 0.0000
vt 0.9324 0.8612 0.0000
vt 0.9582 0.8570 0.0000
vt 0.7492 0.8736 0.0000
vt 0.7769 0.8824 0.0000
vt 0.8022 0.8883 0.0000
vt 0.8241 0.8894 0.0000
vt 0.8504 0.8869 0.0000
vt 0.8724 0.8844 0.0000
vt 0.8891 0.8798 0.0000
vt 0.9036 0.8743 0.0000
vt 0.9153 0.8673 0.0000
vt 0.9312 0.8450 0.0000
vt 0.9557 0.8438 0.0000
vt 0.7524 0.8512 0.0000
vt 0.7786 0.8598 0.0000
vt 0.8027 0.8655 0.0000
vt 0.8255 0.8670 0.0000
vt 0.8492 0.8649 0.0000
vt 0.8699 0.8620 0.0000
vt 0.8863 0.8580 0.0000
vt 0.8999 0.8533 0.0000
vt 0.9134 0.8484 0.0000
vt 0.9304 0.8284 0.0000
vt 0.9524 0.8293 0.0000
vt 0.7573 0.8293 0.0000
vt 0.7803 0.8371 0.0000
vt 0.8039 0.8419 0.0000
vt 0.8269 0.8433 0.0000
vt 0.8491 0.8419 0.0000
vt 0.8686 0.8389 0.0000
vt 0.8842 0.8354 0.0000
vt 0.8979 0.8320 0.0000
vt 0.9124 0.8294 0.0000
vt 0.9301 0.8127 0.0000
vt 0.9498 0.8152 0.0000
vt 0.7613 0.8100 0.0000
vt 0.7820 0.8166 0.0000
vt 0.8050 0.8210 0.0000
vt 0.8282 0.8218 0.0000
vt 0.8493 0.8206 0.0000
vt 0.8678 0.8177 0.0000
vt 0.8832 0.8156 0.0000
vt 0.8973 0.8134 0.0000
vt 0.9125 0.8118 0.0000
vt 0.9309 0.7991 0.0000
vt 0.9490 0.8033 0.0000
vt 0.7631 0.7944 0.0000
vt 0.7834 0.7997 0.0000
vt 0.8061 0.8031 0.0000
vt 0.8284 0.8033 0.0000
vt 0.8489 0.8022 0.0000
vt 0.8679 0.7986 0.0000
vt 0.8835 0.7996 0.0000
vt 0.8974 0.7984 0.0000
vt 0.9130 0.7958 0.0000
vt 0.8964 0.7873 0.0000
vt 0.9059 0.7869 0.0000
vt 0.8851 0.7878 0.0000
vt 0.8758 0.7882 0.0000
vt 0.8744 0.7800 0.0000
vt 0.8853 0.7777 0.0000
vt 0.8968 0.7769 0.0000
vt 0.9085 0.7784 0.0000
vt 0.8851 0.7652 0.0000
vt 0.8726 0.7665 0.0000
vt 0.8976 0.7633 0.0000
vt 0.9115 0.7648 0.0000
vt 0.8139 0.6891 0.0000
vt 0.8335 0.7010 0.0000
vt 0.8233 0.7089 0.0000
vt 0.8096 0.7040 0.0000
vt 0.7938 0.7035 0.0000
vt 0.7921 0.6878 0.0000
vt 0.7805 0.7066 0.0000
vt 0.7714 0.6977 0.0000
vt 0.8236 0.7244 0.0000
vt 0.8070 0.7219 0.0000
vt 0.7927 0.7208 0.0000
vt 0.7774 0.7208 0.0000
vt 0.9199 0.7839 0.0000
vt 0.9342 0.7879 0.0000
vt 0.9526 0.7922 0.0000
vt 0.7638 0.7797 0.0000
vt 0.7848 0.7858 0.0000
vt 0.8069 0.7882 0.0000
vt 0.8270 0.7869 0.0000
vt 0.8455 0.7866 0.0000
vt 0.8624 0.7846 0.0000
vt 0.9248 0.7701 0.0000
vt 0.9389 0.7737 0.0000
vt 0.9572 0.7775 0.0000
vt 0.7684 0.7618 0.0000
vt 0.7865 0.7728 0.0000
vt 0.8061 0.7748 0.0000
vt 0.8246 0.7685 0.0000
vt 0.8427 0.7695 0.0000
vt 0.8584 0.7683 0.0000
vt 0.7617 0.7185 0.0000
vt 0.8415 0.7239 0.0000
vt 0.8368 0.7476 0.0000
vt 0.8194 0.7414 0.0000
vt 0.8130 0.7552 0.0000
vt 0.8025 0.7629 0.0000
vt 0.7900 0.7612 0.0000
vt 0.7817 0.7511 0.0000
vt 0.7619 0.7398 0.0000
vt 0.7777 0.7371 0.0000
vt 0.8045 0.7372 0.0000
vt 0.7919 0.7360 0.0000
vt 0.8013 0.7486 0.0000
vt 0.7921 0.7476 0.0000
vt 0.7985 0.7550 0.0000
vt 0.7935 0.7541 0.0000
# 146 texture coords

o Pata_trasera_izquierda
g Pata_trasera_izquierda
usemtl 01___Default
s off
f 1/1/1 2/2/2 3/3/3 
f 3/3/3 4/4/4 1/1/1 
f 5/5/5 6/6/6 7/7/7 
f 7/7/7 8/8/8 5/5/5 
f 9/9/9 10/10/10 11/11/11 
f 11/11/11 12/12/12 9/9/9 
f 13/13/13 14/14/14 10/10/10 
f 10/10/10 9/9/9 13/13/13 
f 8/8/8 7/7/7 14/14/14 
f 14/14/14 13/13/13 8/8/8 
f 15/15/15 6/16/6 5/17/5 
f 5/17/5 16/18/16 15/15/15 
f 17/19/17 15/15/15 16/18/16 
f 16/18/16 18/20/18 17/19/17 
f 2/2/2 17/19/17 18/20/18 
f 18/20/18 3/3/3 2/2/2 
f 12/12/12 11/11/11 19/21/19 
f 19/21/19 20/22/20 12/12/12 
f 1/1/1 4/4/4 20/22/20 
f 20/22/20 19/21/19 1/1/1 
f 21/23/21 22/24/22 6/16/6 
f 6/16/6 15/15/15 21/23/21 
f 6/6/6 22/25/22 23/26/23 
f 23/26/23 7/7/7 6/6/6 
f 7/7/7 23/26/23 24/27/24 
f 24/27/24 14/14/14 7/7/7 
f 14/14/14 24/27/24 25/28/25 
f 25/28/25 10/10/10 14/14/14 
f 26/29/26 11/11/11 10/10/10 
f 10/10/10 25/28/25 26/29/26 
f 11/11/11 26/29/26 27/30/27 
f 27/30/27 19/21/19 11/11/11 
f 27/30/27 28/31/28 1/1/1 
f 1/1/1 19/21/19 27/30/27 
f 28/31/28 29/32/29 2/2/2 
f 2/2/2 1/1/1 28/31/28 
f 29/32/29 30/33/30 17/19/17 
f 17/19/17 2/2/2 29/32/29 
f 30/33/30 21/23/21 15/15/15 
f 15/15/15 17/19/17 30/33/30 
f 31/34/31 32/35/32 22/24/22 
f 22/24/22 21/23/21 31/34/31 
f 22/25/22 32/36/32 33/37/33 
f 33/37/33 23/26/23 22/25/22 
f 34/38/34 24/27/24 23/26/23 
f 23/26/23 33/37/33 34/38/34 
f 24/27/24 34/38/34 35/39/35 
f 35/39/35 25/28/25 24/27/24 
f 25/28/25 35/39/35 36/40/36 
f 36/40/36 26/29/26 25/28/25 
f 26/29/26 36/40/36 37/41/37 
f 37/41/37 27/30/27 26/29/26 
f 37/41/37 38/42/38 28/31/28 
f 28/31/28 27/30/27 37/41/37 
f 38/42/38 39/43/39 29/32/29 
f 29/32/29 28/31/28 38/42/38 
f 39/43/39 40/44/40 30/33/30 
f 30/33/30 29/32/29 39/43/39 
f 40/44/40 31/34/31 21/23/21 
f 21/23/21 30/33/30 40/44/40 
f 31/34/31 41/45/41 42/46/42 
f 42/46/42 32/35/32 31/34/31 
f 32/36/32 42/47/42 43/48/43 
f 43/48/43 33/37/33 32/36/32 
f 33/37/33 43/48/43 44/49/44 
f 44/49/44 34/38/34 33/37/33 
f 44/49/44 45/50/45 35/39/35 
f 35/39/35 34/38/34 44/49/44 
f 45/50/45 46/51/46 36/40/36 
f 36/40/36 35/39/35 45/50/45 
f 47/52/47 37/41/37 36/40/36 
f 36/40/36 46/51/46 47/52/47 
f 47/52/47 48/53/48 38/42/38 
f 38/42/38 37/41/37 47/52/47 
f 39/43/39 38/42/38 48/53/48 
f 48/53/48 49/54/49 39/43/39 
f 49/54/49 50/55/50 40/44/40 
f 40/44/40 39/43/39 49/54/49 
f 31/34/31 40/44/40 50/55/50 
f 50/55/50 41/45/41 31/34/31 
f 41/45/41 51/56/51 52/57/52 
f 52/57/52 42/46/42 41/45/41 
f 42/47/42 52/58/52 53/59/53 
f 53/59/53 43/48/43 42/47/42 
f 43/48/43 53/59/53 54/60/54 
f 54/60/54 44/49/44 43/48/43 
f 54/60/54 55/61/55 45/50/45 
f 45/50/45 44/49/44 54/60/54 
f 55/61/55 56/62/56 46/51/46 
f 46/51/46 45/50/45 55/61/55 
f 56/62/56 57/63/57 47/52/47 
f 47/52/47 46/51/46 56/62/56 
f 57/63/57 58/64/58 48/53/48 
f 48/53/48 47/52/47 57/63/57 
f 58/64/58 59/65/59 49/54/49 
f 49/54/49 48/53/48 58/64/58 
f 59/65/59 60/66/60 50/55/50 
f 50/55/50 49/54/49 59/65/59 
f 41/45/41 50/55/50 60/66/60 
f 60/66/60 51/56/51 41/45/41 
f 51/56/51 61/67/61 62/68/62 
f 62/68/62 52/57/52 51/56/51 
f 52/58/52 62/69/62 63/70/63 
f 63/70/63 53/59/53 52/58/52 
f 53/59/53 63/70/63 64/71/64 
f 64/71/64 54/60/54 53/59/53 
f 64/71/64 65/72/65 55/61/55 
f 55/61/55 54/60/54 64/71/64 
f 65/72/65 66/73/66 56/62/56 
f 56/62/56 55/61/55 65/72/65 
f 66/73/66 67/74/67 57/63/57 
f 57/63/57 56/62/56 66/73/66 
f 67/74/67 68/75/68 58/64/58 
f 58/64/58 57/63/57 67/74/67 
f 68/75/68 69/76/69 59/65/59 
f 59/65/59 58/64/58 68/75/68 
f 69/76/69 70/77/70 60/66/60 
f 60/66/60 59/65/59 69/76/69 
f 60/66/60 70/77/70 61/67/61 
f 61/67/61 51/56/51 60/66/60 
f 61/67/61 71/78/71 72/79/72 
f 72/79/72 62/68/62 61/67/61 
f 62/69/62 72/80/72 73/81/73 
f 73/81/73 63/70/63 62/69/62 
f 63/70/63 73/81/73 74/82/74 
f 74/82/74 64/71/64 63/70/63 
f 74/82/74 75/83/75 65/72/65 
f 65/72/65 64/71/64 74/82/74 
f 75/83/75 76/84/76 66/73/66 
f 66/73/66 65/72/65 75/83/75 
f 67/74/67 66/73/66 76/84/76 
f 76/84/76 77/85/77 67/74/67 
f 77/85/77 78/86/78 68/75/68 
f 68/75/68 67/74/67 77/85/77 
f 78/86/78 79/87/79 69/76/69 
f 69/76/69 68/75/68 78/86/78 
f 70/77/70 69/76/69 79/87/79 
f 79/87/79 80/88/80 70/77/70 
f 71/78/71 61/67/61 70/77/70 
f 70/77/70 80/88/80 71/78/71 
f 79/87/79 81/89/81 82/90/82 
f 82/90/82 80/88/80 79/87/79 
f 83/91/83 81/89/81 79/87/79 
f 79/87/79 78/86/78 83/91/83 
f 84/92/84 83/91/83 78/86/78 
f 78/86/78 77/85/77 84/92/84 
f 83/91/83 84/92/84 85/93/85 
f 85/93/85 86/94/86 83/91/83 
f 81/89/81 83/91/83 86/94/86 
f 86/94/86 87/95/87 81/89/81 
f 87/95/87 88/96/88 82/90/82 
f 82/90/82 81/89/81 87/95/87 
f 89/97/89 86/94/86 85/93/85 
f 85/93/85 90/98/90 89/97/89 
f 87/95/87 86/94/86 89/97/89 
f 89/97/89 91/99/91 87/95/87 
f 91/99/91 92/100/92 88/96/88 
f 88/96/88 87/95/87 91/99/91 
f 89/101/89 90/102/90 93/103/93 
f 93/103/93 94/104/94 89/101/89 
f 95/105/95 91/106/91 89/101/89 
f 89/101/89 94/104/94 95/105/95 
f 95/105/95 96/107/96 92/108/92 
f 92/108/92 91/106/91 95/105/95 
f 94/104/94 93/103/93 97/109/97 
f 97/109/97 98/110/98 94/104/94 
f 98/110/98 99/111/99 95/105/95 
f 95/105/95 94/104/94 98/110/98 
f 99/111/99 100/112/100 96/107/96 
f 96/107/96 95/105/95 99/111/99 
f 101/113/101 102/114/102 71/78/71 
f 71/78/71 80/88/80 101/113/101 
f 71/78/71 102/114/102 103/115/103 
f 103/115/103 72/79/72 71/78/71 
f 72/80/72 103/116/103 104/117/104 
f 104/117/104 73/81/73 72/80/72 
f 73/81/73 104/117/104 105/118/105 
f 105/118/105 74/82/74 73/81/73 
f 105/118/105 106/119/106 75/83/75 
f 75/83/75 74/82/74 105/118/105 
f 106/119/106 107/120/107 76/84/76 
f 76/84/76 75/83/75 106/119/106 
f 107/120/107 108/121/108 77/85/77 
f 77/85/77 76/84/76 107/120/107 
f 102/114/102 101/113/101 109/122/109 
f 109/122/109 110/123/110 102/114/102 
f 103/115/103 102/114/102 110/123/110 
f 110/123/110 111/124/111 103/115/103 
f 103/116/103 111/125/111 112/126/112 
f 112/126/112 104/117/104 103/116/103 
f 104/117/104 112/126/112 113/127/113 
f 113/127/113 105/118/105 104/117/104 
f 105/118/105 113/127/113 114/128/114 
f 114/128/114 106/119/106 105/118/105 
f 107/120/107 106/119/106 114/128/114 
f 114/128/114 115/129/115 107/120/107 
f 116/130/116 108/121/108 107/120/107 
f 107/120/107 115/129/115 116/130/116 
f 80/88/80 82/90/82 88/96/88 
f 88/96/88 101/113/101 80/88/80 
f 109/122/109 101/113/101 88/96/88 
f 88/96/88 92/100/92 109/122/109 
f 108/121/108 85/93/85 84/92/84 
f 84/92/84 77/85/77 108/121/108 
f 90/98/90 85/93/85 108/121/108 
f 108/121/108 116/130/116 90/98/90 
f 92/108/92 96/107/96 100/112/100 
f 100/112/100 109/131/109 92/108/92 
f 97/109/97 93/103/93 90/102/90 
f 90/102/90 116/132/116 97/109/97 
f 115/133/115 117/134/117 97/109/97 
f 97/109/97 116/132/116 115/133/115 
f 114/128/114 118/135/118 117/134/117 
f 117/134/117 115/133/115 114/128/114 
f 113/127/113 119/136/119 118/135/118 
f 118/135/118 114/128/114 113/127/113 
f 112/126/112 120/137/120 119/136/119 
f 119/136/119 113/127/113 112/126/112 
f 121/138/121 120/137/120 112/126/112 
f 112/126/112 111/125/111 121/138/121 
f 110/139/110 122/140/122 121/138/121 
f 121/138/121 111/125/111 110/139/110 
f 122/140/122 110/139/110 109/131/109 
f 109/131/109 100/112/100 122/140/122 
f 117/134/117 123/141/123 98/110/98 
f 98/110/98 97/109/97 117/134/117 
f 123/141/123 124/142/124 99/111/99 
f 99/111/99 98/110/98 123/141/123 
f 124/142/124 122/140/122 100/112/100 
f 100/112/100 99/111/99 124/142/124 
f 118/135/118 125/143/125 123/141/123 
f 123/141/123 117/134/117 118/135/118 
f 125/143/125 126/144/126 124/142/124 
f 124/142/124 123/141/123 125/143/125 
f 126/144/126 121/138/121 122/140/122 
f 122/140/122 124/142/124 126/144/126 
f 119/136/119 127/145/127 125/143/125 
f 125/143/125 118/135/118 119/136/119 
f 127/145/127 128/146/128 126/144/126 
f 126/144/126 125/143/125 127/145/127 
f 126/144/126 128/146/128 120/137/120 
f 120/137/120 121/138/121 126/144/126 
f 120/137/120 128/146/128 127/145/127 
f 127/145/127 119/136/119 120/137/120 
# 244 faces

