# 3ds Max Wavefront OBJ Exporter v0.99 - (c)2007 guruware
# File Created: 15.04.2024 21:39:27

mtllib Portal.mtl

#
# object teleport
#

v  -9.6306 0.4500 22.6607
v  -9.6306 0.4500 20.8932
v  -9.6306 -0.5552 20.8932
v  -9.6306 -0.5552 22.6607
v  9.6902 0.4500 20.8932
v  9.6902 -0.5552 20.8932
v  9.6902 0.4500 24.4283
v  9.6902 0.4500 26.1959
v  9.6902 -0.5552 26.1959
v  9.6902 -0.5552 24.4283
v  -9.6306 0.4500 26.1959
v  -9.6306 -0.5552 26.1959
v  9.6902 -0.5552 22.6607
v  -9.6306 1.4380 20.8932
v  9.6902 1.4380 20.8932
v  -9.6306 0.4500 24.4283
v  9.6902 0.4500 22.6607
v  9.6902 1.4380 22.6607
v  9.6902 1.4380 24.4283
v  -9.6306 -0.5552 24.4283
v  -9.6306 1.4380 22.6607
v  -9.6306 2.4047 22.6607
v  -9.6306 2.4047 20.8932
v  -9.6306 1.4380 24.4283
v  9.6902 2.4047 22.6607
v  9.6902 2.4047 20.8932
v  0.0276 1.7690 -14.2962
v  0.0276 3.4336 -14.2962
v  18.5291 3.4336 -0.8541
v  18.5291 1.7690 -0.8541
v  11.4621 3.4336 20.8957
v  11.4621 1.7690 20.8957
v  -11.4070 3.4336 20.8957
v  -11.4070 1.7690 20.8957
v  -18.4739 3.4336 -0.8541
v  -18.4739 1.7690 -0.8541
v  0.0276 -0.5614 -14.2962
v  18.5291 -0.5614 -0.8541
v  11.4621 -0.5614 20.8957
v  -11.4070 -0.5614 20.8957
v  -18.4739 -0.5614 -0.8541
v  -11.4070 0.7703 20.8957
v  -11.4070 1.4361 20.8957
v  -18.4739 1.4361 -0.8541
v  -18.4739 0.7703 -0.8541
v  0.0276 1.4361 -14.2962
v  0.0276 0.7703 -14.2962
v  11.4621 0.7703 20.8957
v  11.4621 1.4361 20.8957
v  18.5291 0.7703 -0.8541
v  18.5291 1.4361 -0.8541
v  -0.1089 4.4509 -5.1071
v  -0.1089 5.5018 -4.7698
v  1.7934 5.5018 -4.5824
v  1.8592 4.4509 -4.9133
v  3.6226 5.5018 -4.0275
v  3.7517 4.4509 -4.3392
v  5.3084 5.5018 -3.1265
v  5.4958 4.4509 -3.4069
v  6.7860 5.5018 -1.9138
v  7.0245 4.4509 -2.1524
v  7.9986 5.5018 -0.4362
v  8.2791 4.4509 -0.6236
v  8.8997 5.5018 1.2496
v  9.2113 4.4509 1.1205
v  9.4545 5.5018 3.0787
v  9.7854 4.4509 3.0129
v  9.6419 5.5018 4.9810
v  9.9792 4.4509 4.9810
v  9.4545 5.5018 6.8833
v  9.7854 4.4509 6.9491
v  8.8997 5.5018 8.7125
v  9.2113 4.4509 8.8416
v  7.9986 5.5018 10.3983
v  8.2791 4.4509 10.5857
v  6.7860 5.5018 11.8759
v  7.0245 4.4509 12.1144
v  5.3084 5.5018 13.0885
v  5.4958 4.4509 13.3690
v  3.6226 5.5018 13.9896
v  3.7517 4.4509 14.3012
v  1.7934 5.5018 14.5445
v  1.8592 4.4509 14.8753
v  -0.1089 5.5018 14.7318
v  -0.1089 4.4509 15.0692
v  -2.0112 5.5018 14.5445
v  -2.0770 4.4509 14.8753
v  -3.8404 5.5018 13.9896
v  -3.9695 4.4509 14.3012
v  -5.5262 5.5018 13.0885
v  -5.7136 4.4509 13.3690
v  -7.0038 5.5018 11.8759
v  -7.2423 4.4509 12.1144
v  -8.2164 5.5018 10.3983
v  -8.4969 4.4509 10.5857
v  -9.1175 5.5018 8.7125
v  -9.4291 4.4509 8.8416
v  -9.6723 5.5018 6.8833
v  -10.0032 4.4509 6.9491
v  -9.8597 5.5018 4.9810
v  -10.1970 4.4509 4.9810
v  -9.6723 5.5018 3.0787
v  -10.0032 4.4509 3.0129
v  -9.1175 5.5018 1.2496
v  -9.4291 4.4509 1.1205
v  -8.2164 5.5018 -0.4362
v  -8.4969 4.4509 -0.6236
v  -7.0037 5.5018 -1.9138
v  -7.2423 4.4509 -2.1524
v  -5.5261 5.5018 -3.1265
v  -5.7136 4.4509 -3.4070
v  -3.8404 5.5018 -4.0275
v  -3.9694 4.4509 -4.3392
v  -2.0112 5.5018 -4.5824
v  -2.0770 4.4509 -4.9133
v  -4.0985 3.4000 -4.6509
v  -2.1428 3.4000 -5.2441
v  -0.1089 3.4000 -5.4444
v  -5.9010 3.4000 -3.6874
v  -7.4808 3.4000 -2.3909
v  -8.7773 3.4000 -0.8111
v  -9.7408 3.4000 0.9914
v  -10.3340 3.4000 2.9471
v  -10.5344 3.4000 4.9810
v  -10.3340 3.4000 7.0149
v  -9.7408 3.4000 8.9707
v  -8.7774 3.4000 10.7731
v  -7.4808 3.4000 12.3529
v  -5.9010 3.4000 13.6495
v  -4.0986 3.4000 14.6129
v  -2.1428 3.4000 15.2062
v  -0.1089 3.4000 15.4065
v  1.9250 3.4000 15.2062
v  3.8808 3.4000 14.6129
v  5.6832 3.4000 13.6495
v  7.2630 3.4000 12.3529
v  8.5596 3.4000 10.7731
v  9.5230 3.4000 8.9707
v  10.1162 3.4000 7.0149
v  10.3166 3.4000 4.9810
v  10.1162 3.4000 2.9471
v  9.5230 3.4000 0.9914
v  8.5596 3.4000 -0.8110
v  7.2630 3.4000 -2.3909
v  5.6832 3.4000 -3.6874
v  3.8808 3.4000 -4.6508
v  1.9250 3.4000 -5.2441
# 147 vertices

vn -1.0000 0.0000 -0.0000
vn -0.7071 0.0000 -0.7071
vn -0.5773 -0.5773 -0.5773
vn -0.7071 -0.7071 -0.0000
vn 0.7071 0.0000 -0.7071
vn 0.5773 -0.5773 -0.5773
vn 0.9045 0.3015 0.3015
vn 0.5773 0.5773 0.5773
vn 0.5773 -0.5773 0.5773
vn 0.7071 -0.7071 -0.0000
vn -0.5773 0.5773 0.5773
vn -0.5773 -0.5773 0.5773
vn -0.9045 0.3015 0.3015
vn 1.0000 0.0000 -0.0000
vn -0.5773 0.5773 -0.5773
vn 0.5773 0.5773 -0.5773
vn 0.0000 0.0000 -1.0000
vn 0.0000 0.5957 -0.8032
vn 0.7639 0.5957 -0.2482
vn 0.9510 0.0000 -0.3090
vn 0.4721 0.5957 0.6498
vn 0.5878 0.0000 0.8090
vn -0.4721 0.5957 0.6498
vn -0.5878 0.0000 0.8090
vn -0.7639 0.5957 -0.2482
vn -0.9510 0.0000 -0.3090
vn 0.0000 -0.5957 -0.8032
vn 0.7639 -0.5957 -0.2482
vn 0.4721 -0.5957 0.6498
vn -0.4721 -0.5957 0.6498
vn -0.7639 -0.5957 -0.2482
vn 0.0000 0.3056 -0.9521
vn 0.0000 0.7906 -0.6122
vn 0.1194 0.7906 -0.6005
vn 0.1857 0.3056 -0.9338
vn 0.2343 0.7906 -0.5656
vn 0.3644 0.3056 -0.8797
vn 0.3401 0.7906 -0.5090
vn 0.5290 0.3056 -0.7917
vn 0.4329 0.7906 -0.4329
vn 0.6733 0.3056 -0.6733
vn 0.5090 0.7906 -0.3401
vn 0.7917 0.3056 -0.5290
vn 0.5656 0.7906 -0.2343
vn 0.8797 0.3056 -0.3644
vn 0.6005 0.7906 -0.1194
vn 0.9338 0.3056 -0.1857
vn 0.6122 0.7906 -0.0000
vn 0.9521 0.3056 -0.0000
vn 0.6005 0.7906 0.1194
vn 0.9338 0.3056 0.1857
vn 0.5656 0.7906 0.2343
vn 0.8797 0.3056 0.3644
vn 0.5090 0.7906 0.3401
vn 0.7917 0.3056 0.5290
vn 0.4329 0.7906 0.4329
vn 0.6733 0.3056 0.6733
vn 0.3401 0.7906 0.5090
vn 0.5290 0.3056 0.7917
vn 0.2343 0.7906 0.5656
vn 0.3644 0.3056 0.8797
vn 0.1194 0.7906 0.6005
vn 0.1857 0.3056 0.9338
vn 0.0000 0.7906 0.6122
vn 0.0000 0.3056 0.9521
vn -0.1194 0.7906 0.6005
vn -0.1857 0.3056 0.9338
vn -0.2343 0.7906 0.5656
vn -0.3644 0.3056 0.8797
vn -0.3401 0.7906 0.5090
vn -0.5290 0.3056 0.7917
vn -0.4329 0.7906 0.4329
vn -0.6733 0.3056 0.6733
vn -0.5090 0.7906 0.3401
vn -0.7917 0.3056 0.5290
vn -0.5656 0.7906 0.2343
vn -0.8797 0.3056 0.3644
vn -0.6005 0.7906 0.1194
vn -0.9338 0.3056 0.1857
vn -0.6122 0.7906 -0.0000
vn -0.9521 0.3056 -0.0000
vn -0.6005 0.7906 -0.1194
vn -0.9338 0.3056 -0.1857
vn -0.5656 0.7906 -0.2343
vn -0.8797 0.3056 -0.3644
vn -0.5090 0.7906 -0.3401
vn -0.7917 0.3056 -0.5290
vn -0.4329 0.7906 -0.4329
vn -0.6733 0.3056 -0.6733
vn -0.3401 0.7906 -0.5090
vn -0.5290 0.3056 -0.7917
vn -0.2343 0.7906 -0.5656
vn -0.3644 0.3056 -0.8797
vn -0.1194 0.7906 -0.6005
vn -0.1857 0.3056 -0.9338
# 95 vertex normals

vt 0.5252 0.6037 0.0000
vt 0.5447 0.6037 0.0000
vt 0.5447 0.6148 0.0000
vt 0.5252 0.6148 0.0000
vt 0.2143 0.6948 0.0000
vt 0.4272 0.6948 0.0000
vt 0.4272 0.7058 0.0000
vt 0.2143 0.7058 0.0000
vt 0.4470 0.5933 0.0000
vt 0.4275 0.5933 0.0000
vt 0.4275 0.5822 0.0000
vt 0.4470 0.5822 0.0000
vt 0.4272 0.5933 0.0000
vt 0.2143 0.5933 0.0000
vt 0.2143 0.5822 0.0000
vt 0.4272 0.5822 0.0000
vt 0.2143 0.7253 0.0000
vt 0.4272 0.7253 0.0000
vt 0.2143 0.6839 0.0000
vt 0.4272 0.6839 0.0000
vt 0.4272 0.6127 0.0000
vt 0.2143 0.6127 0.0000
vt 0.4664 0.5933 0.0000
vt 0.4664 0.6042 0.0000
vt 0.4470 0.6042 0.0000
vt 0.2143 0.7643 0.0000
vt 0.2143 0.7448 0.0000
vt 0.4272 0.7448 0.0000
vt 0.4272 0.7643 0.0000
vt 0.4859 0.5933 0.0000
vt 0.4664 0.5822 0.0000
vt 0.4859 0.5822 0.0000
vt 0.4862 0.6037 0.0000
vt 0.5057 0.6037 0.0000
vt 0.5057 0.6148 0.0000
vt 0.4862 0.6148 0.0000
vt 0.5447 0.5928 0.0000
vt 0.5252 0.5928 0.0000
vt 0.5252 0.5822 0.0000
vt 0.5447 0.5822 0.0000
vt 0.4272 0.6236 0.0000
vt 0.4272 0.6431 0.0000
vt 0.2143 0.6431 0.0000
vt 0.2143 0.6236 0.0000
vt 0.5057 0.5928 0.0000
vt 0.4859 0.6042 0.0000
vt 0.4272 0.6538 0.0000
vt 0.4272 0.6732 0.0000
vt 0.2143 0.6732 0.0000
vt 0.2143 0.6538 0.0000
vt 0.4859 0.6148 0.0000
vt 0.4664 0.6148 0.0000
vt 0.7499 0.8150 0.0000
vt 0.7500 0.7968 0.0000
vt 0.9998 0.7970 0.0000
vt 0.9998 0.8152 0.0000
vt 0.4141 0.0780 0.0000
vt 0.4319 0.0781 0.0000
vt 0.4317 0.3300 0.0000
vt 0.4141 0.3299 0.0000
vt 0.0002 0.8145 0.0000
vt 0.0002 0.7963 0.0000
vt 0.2501 0.7965 0.0000
vt 0.2501 0.8147 0.0000
vt 0.4325 0.0780 0.0000
vt 0.6720 0.0002 0.0000
vt 0.8200 0.2039 0.0000
vt 0.6720 0.4077 0.0000
vt 0.4325 0.3299 0.0000
vt 0.5000 0.8149 0.0000
vt 0.5000 0.7967 0.0000
vt 0.1482 0.0002 0.0000
vt 0.3877 0.0780 0.0000
vt 0.3877 0.3298 0.0000
vt 0.1482 0.4077 0.0000
vt 0.0002 0.2039 0.0000
vt 0.2501 0.8263 0.0000
vt 0.2501 0.8191 0.0000
vt 0.5000 0.8192 0.0000
vt 0.5000 0.8265 0.0000
vt 0.7499 0.8194 0.0000
vt 0.7499 0.8267 0.0000
vt 0.0002 0.8262 0.0000
vt 0.0002 0.8189 0.0000
vt 0.4024 0.0780 0.0000
vt 0.4097 0.0780 0.0000
vt 0.4097 0.3298 0.0000
vt 0.4024 0.3298 0.0000
vt 0.9998 0.8196 0.0000
vt 0.9998 0.8268 0.0000
vt 0.7499 0.8412 0.0000
vt 0.9998 0.8414 0.0000
vt 0.0002 0.8407 0.0000
vt 0.2500 0.8409 0.0000
vt 0.5000 0.8411 0.0000
vt 0.5060 0.4112 0.0000
vt 0.5031 0.4275 0.0000
vt 0.4747 0.4233 0.0000
vt 0.4766 0.4068 0.0000
vt 0.4461 0.4208 0.0000
vt 0.4471 0.4043 0.0000
vt 0.4175 0.4201 0.0000
vt 0.4174 0.4035 0.0000
vt 0.3888 0.4210 0.0000
vt 0.3878 0.4045 0.0000
vt 0.3603 0.4237 0.0000
vt 0.3583 0.4073 0.0000
vt 0.3320 0.4281 0.0000
vt 0.3290 0.4118 0.0000
vt 0.3040 0.4342 0.0000
vt 0.3000 0.4181 0.0000
vt 0.2764 0.4419 0.0000
vt 0.2714 0.4261 0.0000
vt 0.2493 0.4513 0.0000
vt 0.2434 0.4358 0.0000
vt 0.2228 0.4623 0.0000
vt 0.2160 0.4472 0.0000
vt 0.1970 0.4748 0.0000
vt 0.1893 0.4602 0.0000
vt 0.1721 0.4889 0.0000
vt 0.1635 0.4747 0.0000
vt 0.1480 0.5044 0.0000
vt 0.1386 0.4908 0.0000
vt 0.8981 0.7730 0.0000
vt 0.8821 0.7772 0.0000
vt 0.8740 0.7497 0.0000
vt 0.8897 0.7446 0.0000
vt 0.8643 0.7228 0.0000
vt 0.8797 0.7167 0.0000
vt 0.8530 0.6964 0.0000
vt 0.8680 0.6894 0.0000
vt 0.8401 0.6708 0.0000
vt 0.8546 0.6629 0.0000
vt 0.8257 0.6460 0.0000
vt 0.8397 0.6373 0.0000
vt 0.8098 0.6221 0.0000
vt 0.8234 0.6126 0.0000
vt 0.7926 0.5993 0.0000
vt 0.8055 0.5889 0.0000
vt 0.7740 0.5774 0.0000
vt 0.7863 0.5663 0.0000
vt 0.7541 0.5568 0.0000
vt 0.7657 0.5449 0.0000
vt 0.7331 0.5373 0.0000
vt 0.7439 0.5248 0.0000
vt 0.7109 0.5192 0.0000
vt 0.7210 0.5061 0.0000
vt 0.6876 0.5024 0.0000
vt 0.6969 0.4887 0.0000
vt 0.6634 0.4870 0.0000
vt 0.6719 0.4728 0.0000
vt 0.6384 0.4732 0.0000
vt 0.6459 0.4585 0.0000
vt 0.6125 0.4608 0.0000
vt 0.6192 0.4457 0.0000
vt 0.5859 0.4500 0.0000
vt 0.5917 0.4345 0.0000
vt 0.5588 0.4409 0.0000
vt 0.5636 0.4250 0.0000
vt 0.1752 0.7722 0.0000
vt 0.1577 0.7839 0.0000
vt 0.1383 0.7919 0.0000
vt 0.1176 0.7960 0.0000
vt 0.0965 0.7960 0.0000
vt 0.0759 0.7919 0.0000
vt 0.0564 0.7838 0.0000
vt 0.0389 0.7721 0.0000
vt 0.0240 0.7573 0.0000
vt 0.0123 0.7397 0.0000
vt 0.0043 0.7203 0.0000
vt 0.0002 0.6996 0.0000
vt 0.0002 0.6786 0.0000
vt 0.0043 0.6579 0.0000
vt 0.0123 0.6385 0.0000
vt 0.0240 0.6210 0.0000
vt 0.0389 0.6061 0.0000
vt 0.0564 0.5944 0.0000
vt 0.0759 0.5863 0.0000
vt 0.0965 0.5822 0.0000
vt 0.1176 0.5822 0.0000
vt 0.1383 0.5863 0.0000
vt 0.1577 0.5944 0.0000
vt 0.1752 0.6061 0.0000
vt 0.1901 0.6210 0.0000
vt 0.2018 0.6385 0.0000
vt 0.2099 0.6579 0.0000
vt 0.2140 0.6786 0.0000
vt 0.2140 0.6996 0.0000
vt 0.2099 0.7203 0.0000
vt 0.2018 0.7397 0.0000
vt 0.1901 0.7573 0.0000
vt 0.5350 0.4172 0.0000
vt 0.5311 0.4333 0.0000
vt 0.5684 0.4092 0.0000
vt 0.5389 0.4011 0.0000
vt 0.5089 0.3949 0.0000
vt 0.5975 0.4190 0.0000
vt 0.6259 0.4305 0.0000
vt 0.6535 0.4437 0.0000
vt 0.6803 0.4586 0.0000
vt 0.7062 0.4750 0.0000
vt 0.7311 0.4929 0.0000
vt 0.7548 0.5123 0.0000
vt 0.7773 0.5331 0.0000
vt 0.7985 0.5552 0.0000
vt 0.8184 0.5786 0.0000
vt 0.8369 0.6030 0.0000
vt 0.8538 0.6286 0.0000
vt 0.8692 0.6551 0.0000
vt 0.8830 0.6825 0.0000
vt 0.8951 0.7106 0.0000
vt 0.9055 0.7394 0.0000
vt 0.9141 0.7688 0.0000
vt 0.1550 0.4606 0.0000
vt 0.1292 0.4772 0.0000
vt 0.1817 0.4455 0.0000
vt 0.2092 0.4321 0.0000
vt 0.2375 0.4204 0.0000
vt 0.2665 0.4103 0.0000
vt 0.2960 0.4021 0.0000
vt 0.3259 0.3956 0.0000
vt 0.3562 0.3909 0.0000
vt 0.3867 0.3880 0.0000
vt 0.4174 0.3870 0.0000
vt 0.4480 0.3878 0.0000
vt 0.4785 0.3904 0.0000
# 226 texture coords

o teleport
g teleport
usemtl 01___Default
s off
f 1/1/1 2/2/2 3/3/3 
f 3/3/3 4/4/4 1/1/1 
f 2/5/2 5/6/5 6/7/6 
f 6/7/6 3/8/3 2/5/2 
f 7/9/7 8/10/8 9/11/9 
f 9/11/9 10/12/10 7/9/7 
f 8/13/8 11/14/11 12/15/12 
f 12/15/12 9/16/9 8/13/8 
f 4/17/4 3/8/3 6/7/6 
f 6/7/6 13/18/10 4/17/4 
f 5/6/5 2/5/2 14/19/2 
f 14/19/2 15/20/5 5/6/5 
f 8/13/8 7/21/7 16/22/13 
f 16/22/13 11/14/11 8/13/8 
f 7/9/7 17/23/14 18/24/7 
f 18/24/7 19/25/8 7/9/7 
f 12/26/12 20/27/4 10/28/10 
f 10/28/10 9/29/9 12/26/12 
f 20/27/4 4/17/4 13/18/10 
f 13/18/10 10/28/10 20/27/4 
f 5/30/5 17/23/14 13/31/10 
f 13/31/10 6/32/6 5/30/5 
f 17/23/14 7/9/7 10/12/10 
f 10/12/10 13/31/10 17/23/14 
f 11/33/11 16/34/13 20/35/4 
f 20/35/4 12/36/12 11/33/11 
f 16/34/13 1/1/1 4/4/4 
f 4/4/4 20/35/4 16/34/13 
f 14/37/2 21/38/13 22/39/11 
f 22/39/11 23/40/15 14/37/2 
f 19/41/8 18/42/7 21/43/13 
f 21/43/13 24/44/11 19/41/8 
f 1/1/1 16/34/13 24/45/11 
f 24/45/11 21/38/13 1/1/1 
f 16/22/13 7/21/7 19/41/8 
f 19/41/8 24/44/11 16/22/13 
f 17/23/14 5/30/5 15/46/5 
f 15/46/5 18/24/7 17/23/14 
f 2/2/2 1/1/1 21/38/13 
f 21/38/13 14/37/2 2/2/2 
f 25/47/8 26/48/16 23/49/15 
f 23/49/15 22/50/11 25/47/8 
f 18/24/7 15/46/5 26/51/16 
f 26/51/16 25/52/8 18/24/7 
f 15/20/5 14/19/2 23/49/15 
f 23/49/15 26/48/16 15/20/5 
f 21/43/13 18/42/7 25/47/8 
f 25/47/8 22/50/11 21/43/13 
f 27/53/17 28/54/18 29/55/19 
f 29/55/19 30/56/20 27/53/17 
f 30/57/20 29/58/19 31/59/21 
f 31/59/21 32/60/22 30/57/20 
f 32/61/22 31/62/21 33/63/23 
f 33/63/23 34/64/24 32/61/22 
f 29/65/19 28/66/18 35/67/25 
f 29/65/19 35/67/25 33/68/23 
f 29/65/19 33/68/23 31/69/21 
f 36/70/26 35/71/25 28/54/18 
f 28/54/18 27/53/17 36/70/26 
f 34/64/24 33/63/23 35/71/25 
f 35/71/25 36/70/26 34/64/24 
f 37/72/27 38/73/28 39/74/29 
f 37/72/27 39/74/29 40/75/30 
f 37/72/27 40/75/30 41/76/31 
f 42/77/24 43/78/24 44/79/26 
f 44/79/26 45/80/26 42/77/24 
f 45/80/26 44/79/26 46/81/17 
f 46/81/17 47/82/17 45/80/26 
f 48/83/22 49/84/22 43/78/24 
f 43/78/24 42/77/24 48/83/22 
f 50/85/20 51/86/20 49/87/22 
f 49/87/22 48/88/22 50/85/20 
f 47/82/17 46/81/17 51/89/20 
f 51/89/20 50/90/20 47/82/17 
f 43/78/24 34/64/24 36/70/26 
f 36/70/26 44/79/26 43/78/24 
f 44/79/26 36/70/26 27/53/17 
f 27/53/17 46/81/17 44/79/26 
f 49/84/22 32/61/22 34/64/24 
f 34/64/24 43/78/24 49/84/22 
f 51/86/20 30/57/20 32/60/22 
f 32/60/22 49/87/22 51/86/20 
f 46/81/17 27/53/17 30/56/20 
f 30/56/20 51/89/20 46/81/17 
f 37/91/27 47/82/17 50/90/20 
f 50/90/20 38/92/28 37/91/27 
f 38/73/28 50/85/20 48/88/22 
f 48/88/22 39/74/29 38/73/28 
f 39/93/29 48/83/22 42/77/24 
f 42/77/24 40/94/30 39/93/29 
f 41/95/31 45/80/26 47/82/17 
f 47/82/17 37/91/27 41/95/31 
f 40/94/30 42/77/24 45/80/26 
f 45/80/26 41/95/31 40/94/30 
f 52/96/32 53/97/33 54/98/34 
f 54/98/34 55/99/35 52/96/32 
f 55/99/35 54/98/34 56/100/36 
f 56/100/36 57/101/37 55/99/35 
f 57/101/37 56/100/36 58/102/38 
f 58/102/38 59/103/39 57/101/37 
f 59/103/39 58/102/38 60/104/40 
f 60/104/40 61/105/41 59/103/39 
f 61/105/41 60/104/40 62/106/42 
f 62/106/42 63/107/43 61/105/41 
f 63/107/43 62/106/42 64/108/44 
f 64/108/44 65/109/45 63/107/43 
f 65/109/45 64/108/44 66/110/46 
f 66/110/46 67/111/47 65/109/45 
f 67/111/47 66/110/46 68/112/48 
f 68/112/48 69/113/49 67/111/47 
f 69/113/49 68/112/48 70/114/50 
f 70/114/50 71/115/51 69/113/49 
f 71/115/51 70/114/50 72/116/52 
f 72/116/52 73/117/53 71/115/51 
f 73/117/53 72/116/52 74/118/54 
f 74/118/54 75/119/55 73/117/53 
f 75/119/55 74/118/54 76/120/56 
f 76/120/56 77/121/57 75/119/55 
f 77/121/57 76/120/56 78/122/58 
f 78/122/58 79/123/59 77/121/57 
f 79/124/59 78/125/58 80/126/60 
f 80/126/60 81/127/61 79/124/59 
f 81/127/61 80/126/60 82/128/62 
f 82/128/62 83/129/63 81/127/61 
f 83/129/63 82/128/62 84/130/64 
f 84/130/64 85/131/65 83/129/63 
f 85/131/65 84/130/64 86/132/66 
f 86/132/66 87/133/67 85/131/65 
f 87/133/67 86/132/66 88/134/68 
f 88/134/68 89/135/69 87/133/67 
f 89/135/69 88/134/68 90/136/70 
f 90/136/70 91/137/71 89/135/69 
f 91/137/71 90/136/70 92/138/72 
f 92/138/72 93/139/73 91/137/71 
f 93/139/73 92/138/72 94/140/74 
f 94/140/74 95/141/75 93/139/73 
f 95/141/75 94/140/74 96/142/76 
f 96/142/76 97/143/77 95/141/75 
f 97/143/77 96/142/76 98/144/78 
f 98/144/78 99/145/79 97/143/77 
f 99/145/79 98/144/78 100/146/80 
f 100/146/80 101/147/81 99/145/79 
f 101/147/81 100/146/80 102/148/82 
f 102/148/82 103/149/83 101/147/81 
f 103/149/83 102/148/82 104/150/84 
f 104/150/84 105/151/85 103/149/83 
f 105/151/85 104/150/84 106/152/86 
f 106/152/86 107/153/87 105/151/85 
f 107/153/87 106/152/86 108/154/88 
f 108/154/88 109/155/89 107/153/87 
f 109/155/89 108/154/88 110/156/90 
f 110/156/90 111/157/91 109/155/89 
f 111/157/91 110/156/90 112/158/92 
f 112/158/92 113/159/93 111/157/91 
f 54/160/34 53/161/33 114/162/94 
f 54/160/34 114/162/94 112/163/92 
f 54/160/34 112/163/92 110/164/90 
f 54/160/34 110/164/90 108/165/88 
f 54/160/34 108/165/88 106/166/86 
f 54/160/34 106/166/86 104/167/84 
f 54/160/34 104/167/84 102/168/82 
f 54/160/34 102/168/82 100/169/80 
f 54/160/34 100/169/80 98/170/78 
f 54/160/34 98/170/78 96/171/76 
f 54/160/34 96/171/76 94/172/74 
f 54/160/34 94/172/74 92/173/72 
f 54/160/34 92/173/72 90/174/70 
f 54/160/34 90/174/70 88/175/68 
f 54/160/34 88/175/68 86/176/66 
f 54/160/34 86/176/66 84/177/64 
f 54/160/34 84/177/64 82/178/62 
f 54/160/34 82/178/62 80/179/60 
f 54/160/34 80/179/60 78/180/58 
f 54/160/34 78/180/58 76/181/56 
f 54/160/34 76/181/56 74/182/54 
f 54/160/34 74/182/54 72/183/52 
f 54/160/34 72/183/52 70/184/50 
f 54/160/34 70/184/50 68/185/48 
f 54/160/34 68/185/48 66/186/46 
f 54/160/34 66/186/46 64/187/44 
f 54/160/34 64/187/44 62/188/42 
f 54/160/34 62/188/42 60/189/40 
f 54/160/34 60/189/40 58/190/38 
f 54/160/34 58/190/38 56/191/36 
f 115/192/95 114/193/94 53/97/33 
f 53/97/33 52/96/32 115/192/95 
f 113/159/93 112/158/92 114/193/94 
f 114/193/94 115/192/95 113/159/93 
f 116/194/93 113/159/93 115/192/95 
f 115/192/95 117/195/95 116/194/93 
f 117/195/95 115/192/95 52/96/32 
f 52/96/32 118/196/32 117/195/95 
f 119/197/91 111/157/91 113/159/93 
f 113/159/93 116/194/93 119/197/91 
f 120/198/89 109/155/89 111/157/91 
f 111/157/91 119/197/91 120/198/89 
f 121/199/87 107/153/87 109/155/89 
f 109/155/89 120/198/89 121/199/87 
f 122/200/85 105/151/85 107/153/87 
f 107/153/87 121/199/87 122/200/85 
f 123/201/83 103/149/83 105/151/85 
f 105/151/85 122/200/85 123/201/83 
f 124/202/81 101/147/81 103/149/83 
f 103/149/83 123/201/83 124/202/81 
f 125/203/79 99/145/79 101/147/81 
f 101/147/81 124/202/81 125/203/79 
f 126/204/77 97/143/77 99/145/79 
f 99/145/79 125/203/79 126/204/77 
f 127/205/75 95/141/75 97/143/77 
f 97/143/77 126/204/77 127/205/75 
f 128/206/73 93/139/73 95/141/75 
f 95/141/75 127/205/75 128/206/73 
f 129/207/71 91/137/71 93/139/73 
f 93/139/73 128/206/73 129/207/71 
f 130/208/69 89/135/69 91/137/71 
f 91/137/71 129/207/71 130/208/69 
f 131/209/67 87/133/67 89/135/69 
f 89/135/69 130/208/69 131/209/67 
f 132/210/65 85/131/65 87/133/67 
f 87/133/67 131/209/67 132/210/65 
f 133/211/63 83/129/63 85/131/65 
f 85/131/65 132/210/65 133/211/63 
f 134/212/61 81/127/61 83/129/63 
f 83/129/63 133/211/63 134/212/61 
f 135/213/59 79/124/59 81/127/61 
f 81/127/61 134/212/61 135/213/59 
f 136/214/57 77/121/57 79/123/59 
f 79/123/59 135/215/59 136/214/57 
f 137/216/55 75/119/55 77/121/57 
f 77/121/57 136/214/57 137/216/55 
f 138/217/53 73/117/53 75/119/55 
f 75/119/55 137/216/55 138/217/53 
f 139/218/51 71/115/51 73/117/53 
f 73/117/53 138/217/53 139/218/51 
f 140/219/49 69/113/49 71/115/51 
f 71/115/51 139/218/51 140/219/49 
f 141/220/47 67/111/47 69/113/49 
f 69/113/49 140/219/49 141/220/47 
f 142/221/45 65/109/45 67/111/47 
f 67/111/47 141/220/47 142/221/45 
f 143/222/43 63/107/43 65/109/45 
f 65/109/45 142/221/45 143/222/43 
f 144/223/41 61/105/41 63/107/43 
f 63/107/43 143/222/43 144/223/41 
f 145/224/39 59/103/39 61/105/41 
f 61/105/41 144/223/41 145/224/39 
f 146/225/37 57/101/37 59/103/39 
f 59/103/39 145/224/39 146/225/37 
f 147/226/35 55/99/35 57/101/37 
f 57/101/37 146/225/37 147/226/35 
f 118/196/32 52/96/32 55/99/35 
f 55/99/35 147/226/35 118/196/32 
# 252 faces

