# 3ds Max Wavefront OBJ Exporter v0.99 - (c)2007 guruware
# File Created: 18.04.2024 23:48:34

mtllib DX Mark 10_RuedaDer.mtl

#
# object RuedaDer
#

v  0.2190 -0.7395 0.1730
v  -0.2979 -0.7386 0.1644
v  0.2246 -0.7396 -0.1644
v  -0.2923 -0.7386 -0.1730
v  0.2299 -0.5932 -0.4683
v  -0.2870 -0.5922 -0.4769
v  0.2339 -0.3294 -0.6786
v  -0.2830 -0.3284 -0.6872
v  0.2358 -0.0005 -0.7537
v  -0.2812 0.0005 -0.7623
v  0.2351 0.3284 -0.6786
v  -0.2818 0.3294 -0.6872
v  0.2321 0.5922 -0.4683
v  -0.2848 0.5932 -0.4769
v  0.2274 0.7386 -0.1644
v  -0.2896 0.7396 -0.1729
v  0.2218 0.7386 0.1730
v  -0.2952 0.7396 0.1644
v  0.2164 0.5922 0.4769
v  -0.3005 0.5932 0.4683
v  0.2125 0.3285 0.6872
v  -0.3045 0.3294 0.6786
v  0.2106 -0.0005 0.7623
v  -0.3063 0.0005 0.7537
v  0.2113 -0.3294 0.6872
v  -0.3057 -0.3284 0.6786
v  0.2143 -0.5932 0.4769
v  -0.3027 -0.5922 0.4683
v  0.2935 -0.5682 0.1350
v  0.2898 -0.4558 0.3685
v  0.2875 -0.2532 0.5300
v  0.2870 -0.0006 0.5877
v  0.2884 0.2520 0.5300
v  0.2915 0.4546 0.3685
v  0.2956 0.5670 0.1351
v  0.2999 0.5670 -0.1240
v  0.3035 0.4546 -0.3574
v  0.3058 0.2520 -0.5190
v  0.3063 -0.0006 -0.5766
v  0.3049 -0.2532 -0.5190
v  0.3019 -0.4558 -0.3574
v  0.2978 -0.5682 -0.1240
v  -0.2985 0.0005 -0.0044
v  0.0673 -0.0002 0.0017
# 44 vertices

vn 0.5160 -0.8332 0.1986
vn -0.6623 -0.7327 0.1566
vn 0.5223 -0.8332 -0.1813
vn -0.6567 -0.7327 -0.1784
vn 0.5283 -0.6684 -0.5236
vn -0.6514 -0.5874 -0.4803
vn 0.5328 -0.3714 -0.7604
vn -0.6474 -0.3255 -0.6891
vn 0.5349 -0.0010 -0.8449
vn -0.6457 0.0012 -0.7636
vn 0.5341 0.3694 -0.7604
vn -0.6463 0.3278 -0.6891
vn 0.5307 0.6665 -0.5236
vn -0.6493 0.5898 -0.4802
vn 0.5254 0.8313 -0.1813
vn -0.6540 0.7351 -0.1784
vn 0.5191 0.8313 0.1986
vn -0.6596 0.7352 0.1566
vn 0.5131 0.6665 0.5409
vn -0.6649 0.5898 0.4584
vn 0.5086 0.3695 0.7777
vn -0.6688 0.3279 0.6673
vn 0.5065 -0.0009 0.8622
vn -0.6706 0.0012 0.7418
vn 0.5072 -0.3713 0.7777
vn -0.6700 -0.3254 0.6672
vn 0.5106 -0.6684 0.5408
vn -0.6670 -0.5874 0.4584
vn 0.9975 -0.0640 0.0307
vn 0.9971 -0.0517 0.0563
vn 0.9968 -0.0295 0.0740
vn 0.9968 -0.0018 0.0803
vn 0.9969 0.0258 0.0740
vn 0.9973 0.0480 0.0563
vn 0.9977 0.0603 0.0307
vn 0.9982 0.0603 0.0024
vn 0.9986 0.0480 -0.0232
vn 0.9988 0.0258 -0.0409
vn 0.9989 -0.0019 -0.0471
vn 0.9987 -0.0295 -0.0409
vn 0.9984 -0.0517 -0.0232
vn 0.9979 -0.0640 0.0024
vn -0.9999 0.0018 -0.0166
vn 0.9999 -0.0018 0.0166
# 44 vertex normals

vt 0.4310 0.0610 0.0000
vt 0.4490 0.0100 0.0000
vt 0.4630 0.0710 0.0000
vt 0.4820 0.0220 0.0000
vt 0.4930 0.0840 0.0000
vt 0.5150 0.0360 0.0000
vt 0.5210 0.0990 0.0000
vt 0.5470 0.0520 0.0000
vt 0.5490 0.1160 0.0000
vt 0.5780 0.0710 0.0000
vt 0.5760 0.1340 0.0000
vt 0.6070 0.0910 0.0000
vt 0.6020 0.1540 0.0000
vt 0.6350 0.1120 0.0000
vt 0.6270 0.1750 0.0000
vt 0.6620 0.1350 0.0000
vt 0.6510 0.1970 0.0000
vt 0.6880 0.1580 0.0000
vt 0.6740 0.2200 0.0000
vt 0.7130 0.1830 0.0000
vt 0.6960 0.2440 0.0000
vt 0.7370 0.2090 0.0000
vt 0.7170 0.2690 0.0000
vt 0.7590 0.2370 0.0000
vt 0.7360 0.2950 0.0000
vt 0.7800 0.2660 0.0000
vt 0.7530 0.3230 0.0000
vt 0.7990 0.2970 0.0000
vt 0.7680 0.3530 0.0000
vt 0.8150 0.3280 0.0000
vt 0.7470 0.3570 0.0000
vt 0.7360 0.3320 0.0000
vt 0.7200 0.3060 0.0000
vt 0.7020 0.2810 0.0000
vt 0.6820 0.2560 0.0000
vt 0.6600 0.2330 0.0000
vt 0.6380 0.2110 0.0000
vt 0.6140 0.1890 0.0000
vt 0.5900 0.1690 0.0000
vt 0.5650 0.1500 0.0000
vt 0.5390 0.1320 0.0000
vt 0.5120 0.1160 0.0000
vt 0.4850 0.1010 0.0000
vt 0.4570 0.0890 0.0000
vt 0.4300 0.0810 0.0000
vt 0.9870 0.0880 0.0000
vt 0.9880 0.1090 0.0000
vt 0.9420 0.1020 0.0000
vt 0.9810 0.1290 0.0000
vt 0.9650 0.1430 0.0000
vt 0.9380 0.0550 0.0000
vt 0.9590 0.0580 0.0000
vt 0.9760 0.0700 0.0000
vt 0.8950 0.0950 0.0000
vt 0.9020 0.0760 0.0000
vt 0.9180 0.0620 0.0000
vt 0.9240 0.1460 0.0000
vt 0.9070 0.1350 0.0000
vt 0.8960 0.1160 0.0000
vt 0.9450 0.1490 0.0000
vt 0.2980 0.7370 0.0000
vt 0.3080 0.7730 0.0000
vt 0.2240 0.7770 0.0000
vt 0.3020 0.8100 0.0000
vt 0.2800 0.8400 0.0000
vt 0.2020 0.6960 0.0000
vt 0.2390 0.6940 0.0000
vt 0.2740 0.7090 0.0000
vt 0.1400 0.7810 0.0000
vt 0.1470 0.7440 0.0000
vt 0.1690 0.7140 0.0000
vt 0.2100 0.8600 0.0000
vt 0.1750 0.8450 0.0000
vt 0.1500 0.8170 0.0000
vt 0.2470 0.8580 0.0000
# 75 texture coords

o RuedaDer
g RuedaDer
usemtl DX_Mark_10_RefRep_1034_Body_png
s 1
f 1/1/1 2/2/2 3/3/3 
f 3/3/3 2/2/2 4/4/4 
f 3/3/3 4/4/4 5/5/5 
f 5/5/5 4/4/4 6/6/6 
f 5/5/5 6/6/6 7/7/7 
f 7/7/7 6/6/6 8/8/8 
f 7/7/7 8/8/8 9/9/9 
f 9/9/9 8/8/8 10/10/10 
f 9/9/9 10/10/10 11/11/11 
f 11/11/11 10/10/10 12/12/12 
f 11/11/11 12/12/12 13/13/13 
f 13/13/13 12/12/12 14/14/14 
f 13/13/13 14/14/14 15/15/15 
f 15/15/15 14/14/14 16/16/16 
f 15/15/15 16/16/16 17/17/17 
f 17/17/17 16/16/16 18/18/18 
f 17/17/17 18/18/18 19/19/19 
f 19/19/19 18/18/18 20/20/20 
f 19/19/19 20/20/20 21/21/21 
f 21/21/21 20/20/20 22/22/22 
f 21/21/21 22/22/22 23/23/23 
f 23/23/23 22/22/22 24/24/24 
f 23/23/23 24/24/24 25/25/25 
f 25/25/25 24/24/24 26/26/26 
f 25/25/25 26/26/26 27/27/27 
f 27/27/27 26/26/26 28/28/28 
f 27/27/27 28/28/28 1/29/1 
f 1/29/1 28/28/28 2/30/2 
f 1/29/1 29/31/29 27/27/27 
f 27/27/27 29/31/29 30/32/30 
f 27/27/27 30/32/30 25/25/25 
f 25/25/25 30/32/30 31/33/31 
f 25/25/25 31/33/31 23/23/23 
f 23/23/23 31/33/31 32/34/32 
f 23/23/23 32/34/32 21/21/21 
f 21/21/21 32/34/32 33/35/33 
f 21/21/21 33/35/33 19/19/19 
f 19/19/19 33/35/33 34/36/34 
f 19/19/19 34/36/34 17/17/17 
f 17/17/17 34/36/34 35/37/35 
f 17/17/17 35/37/35 15/15/15 
f 15/15/15 35/37/35 36/38/36 
f 15/15/15 36/38/36 13/13/13 
f 13/13/13 36/38/36 37/39/37 
f 13/13/13 37/39/37 11/11/11 
f 11/11/11 37/39/37 38/40/38 
f 11/11/11 38/40/38 9/9/9 
f 9/9/9 38/40/38 39/41/39 
f 9/9/9 39/41/39 7/7/7 
f 7/7/7 39/41/39 40/42/40 
f 7/7/7 40/42/40 5/5/5 
f 5/5/5 40/42/40 41/43/41 
f 5/5/5 41/43/41 3/3/3 
f 3/3/3 41/43/41 42/44/42 
f 3/3/3 42/44/42 1/1/1 
f 1/1/1 42/44/42 29/45/29 
f 24/46/24 22/47/22 43/48/43 
f 43/48/43 22/47/22 20/49/20 
f 43/48/43 20/49/20 18/50/18 
f 2/51/2 28/52/28 43/48/43 
f 43/48/43 28/52/28 26/53/26 
f 43/48/43 26/53/26 24/46/24 
f 8/54/8 6/55/6 43/48/43 
f 43/48/43 6/55/6 4/56/4 
f 43/48/43 4/56/4 2/51/2 
f 14/57/14 12/58/12 43/48/43 
f 43/48/43 12/58/12 10/59/10 
f 43/48/43 10/59/10 8/54/8 
f 14/57/14 43/48/43 16/60/16 
f 16/60/16 43/48/43 18/50/18 
f 35/61/35 34/62/34 44/63/44 
f 44/63/44 34/62/34 33/64/33 
f 44/63/44 33/64/33 32/65/32 
f 38/66/38 37/67/37 44/63/44 
f 44/63/44 37/67/37 36/68/36 
f 44/63/44 36/68/36 35/61/35 
f 41/69/41 40/70/40 44/63/44 
f 44/63/44 40/70/40 39/71/39 
f 44/63/44 39/71/39 38/66/38 
f 30/72/30 29/73/29 44/63/44 
f 44/63/44 29/73/29 42/74/42 
f 44/63/44 42/74/42 41/69/41 
f 30/72/30 44/63/44 31/75/31 
f 31/75/31 44/63/44 32/65/32 
# 0 polygons - 84 triangles

