# 3ds Max Wavefront OBJ Exporter v0.99 - (c)2007 guruware
# File Created: 10.05.2024 14:44:46

mtllib trickster_brazo.mtl

#
# object Brazo
#

v  -0.0177 -0.4182 0.0162
v  -0.0240 -0.2860 0.0233
v  -0.0434 -0.4025 -0.0087
v  -0.0249 -0.2825 0.0197
v  -0.0793 -0.3791 0.0267
v  -0.0296 -0.2783 0.0272
v  -0.0696 -0.3725 0.0848
v  -0.0270 -0.2794 0.0379
v  -0.0363 -0.3969 0.0807
v  -0.0259 -0.2836 0.0346
v  0.0093 -0.4191 0.0583
v  -0.0146 -0.4124 0.0500
v  0.0042 -0.4271 0.0045
v  -0.0408 -0.4021 -0.0363
v  -0.0994 -0.3647 0.0173
v  -0.0805 -0.3558 0.1082
v  0.0096 0.0013 -0.0930
v  0.0112 -0.0131 -0.0822
v  -0.0120 -0.0179 -0.0246
v  0.0295 0.0263 -0.0650
v  0.0420 -0.0034 -0.0568
v  0.0320 0.0351 -0.0121
v  0.0485 0.0028 -0.0092
v  -0.0037 0.0015 0.0609
v  -0.0012 -0.0042 0.0564
v  0.0204 0.0266 0.0420
v  -0.0025 -0.0405 -0.0677
v  -0.0184 -0.0167 -0.0206
v  0.0399 -0.0447 -0.0467
v  0.0501 -0.0406 -0.0073
v  0.0279 -0.2258 -0.0334
v  0.0426 -0.2223 0.0192
v  -0.0296 -0.2102 -0.0630
v  0.0334 0.0032 0.0392
v  -0.0139 -0.0230 0.0472
v  -0.0399 -0.0277 -0.0167
v  -0.0817 -0.1892 0.0041
v  -0.0229 -0.3954 0.1040
v  0.0177 -0.2095 0.0723
v  -0.0450 -0.1864 0.0900
v  0.0325 -0.0324 0.0326
v  -0.0228 -0.2856 0.0279
v  -0.0093 -0.4094 0.0146
v  -0.0058 -0.4036 0.0516
v  -0.0000 -0.4157 0.0088
v  0.0040 -0.4089 0.0553
v  -0.0380 -0.3921 -0.0124
v  -0.0382 -0.3938 -0.0268
v  -0.0786 -0.3663 0.0250
v  -0.0890 -0.3604 0.0204
v  -0.0659 -0.3598 0.0883
v  -0.0734 -0.3530 0.1003
v  -0.0292 -0.3866 0.0849
v  -0.0241 -0.3879 0.0958
v  0.0298 -0.0387 -0.0391
v  0.0350 -0.0008 -0.0496
v  0.0015 -0.0356 -0.0553
v  0.0401 0.0043 -0.0113
v  0.0372 -0.0355 -0.0092
v  0.0170 -0.2244 -0.0247
v  0.0287 -0.2218 0.0180
v  -0.0267 -0.2102 -0.0494
v  -0.0682 -0.1923 0.0063
v  -0.0260 -0.0262 -0.0152
v  -0.0078 -0.0216 0.0347
v  0.0277 0.0044 0.0289
v  0.0234 -0.0292 0.0224
v  -0.0398 -0.1905 0.0777
v  0.0080 -0.2109 0.0622
v  -0.0162 -0.2797 0.0439
v  -0.0089 -0.2837 0.0289
v  -0.0317 -0.2715 0.0484
v  -0.0416 -0.2715 0.0248
v  -0.0274 -0.2779 0.0067
v  -0.0130 -0.2843 0.0148
# 75 vertices

vn -0.7155 -0.0719 0.6949
vn -0.9469 0.0717 0.3133
vn 0.8929 -0.4393 -0.0987
vn 0.8230 -0.5065 -0.2571
vn -0.3306 -0.3003 -0.8947
vn -0.9596 -0.0262 -0.2801
vn -0.3205 -0.9323 0.1674
vn -0.2827 -0.9410 0.1859
vn -0.4167 -0.9043 -0.0933
vn -0.4776 -0.8766 -0.0580
vn -0.6298 -0.7493 0.2048
vn 0.1605 -0.1659 -0.9730
vn -0.0155 -0.4937 -0.8695
vn 0.6807 0.7287 0.0750
vn 0.6589 0.5601 -0.5021
vn 0.8740 0.0118 -0.4858
vn 0.6575 0.7318 0.1793
vn 0.9660 0.2367 0.1039
vn -0.2209 0.0025 0.9753
vn -0.1215 -0.5162 0.8478
vn 0.4262 0.6432 0.6361
vn -0.3157 0.0164 -0.9487
vn -0.3190 0.9255 -0.2040
vn 0.7926 -0.1183 -0.5982
vn 0.9998 -0.0061 0.0215
vn 0.7634 -0.1375 -0.6312
vn 0.9929 -0.0691 0.0969
vn -0.2283 -0.0397 -0.9728
vn 0.7588 0.0804 0.6464
vn 0.6479 0.7581 -0.0737
vn -0.5093 0.3407 0.7903
vn -0.8136 0.5559 -0.1704
vn -0.9788 0.1571 -0.1315
vn -0.9462 0.0748 -0.3147
vn 0.0952 -0.1889 -0.9774
vn 0.8848 -0.2094 -0.4162
vn 0.9530 -0.0843 0.2911
vn 0.9556 -0.1341 0.2623
vn 0.9875 -0.1040 0.1182
vn 0.6021 0.0343 0.7977
vn 0.6585 0.0353 0.7518
vn -0.4584 0.2254 0.8597
vn -0.3980 0.2207 0.8905
vn 0.7147 0.0037 0.6994
vn 0.9739 0.2252 0.0276
vn 0.9905 0.0067 0.1370
vn -0.3356 -0.9147 0.2252
vn -0.3351 -0.9147 0.2258
vn -0.3338 -0.9150 0.2268
vn -0.3250 -0.9133 0.2453
vn -0.5257 -0.7749 0.3510
vn -0.5261 -0.7748 0.3506
vn -0.5251 -0.7753 0.3509
vn -0.5210 -0.7911 0.3204
vn -0.5698 -0.8210 -0.0346
vn -0.5702 -0.8207 -0.0358
vn -0.5718 -0.8195 -0.0390
vn -0.5791 -0.8125 -0.0668
vn -0.9100 -0.1270 -0.3946
vn -0.8530 -0.1346 -0.5043
vn -0.9002 -0.1289 -0.4159
vn -0.8409 -0.1363 -0.5238
vn 0.6993 -0.3482 0.6243
vn 0.5851 -0.2728 0.7637
vn 0.6753 -0.3320 0.6586
vn 0.5807 -0.2712 0.7676
vn -0.9635 -0.0602 0.2608
vn -0.9952 -0.0464 0.0856
vn -0.9709 -0.0577 0.2324
vn -0.9941 -0.0468 0.0974
vn -0.6735 -0.7133 0.1938
vn 0.4762 0.8606 -0.1804
vn 0.5209 0.8370 -0.1677
vn 0.5838 0.8053 -0.1035
vn 0.5388 0.8404 -0.0588
vn 0.5066 0.8611 -0.0437
vn 0.4725 0.8745 -0.1097
vn 0.4762 0.8599 -0.1841
vn 0.5439 0.8192 -0.1817
vn 0.5709 0.8031 -0.1704
vn 0.5679 0.8166 -0.1028
vn 0.5025 0.8603 -0.0860
vn -0.8031 0.1640 0.5728
vn -0.8910 0.0192 0.4536
vn 0.2934 0.0605 0.9541
vn -0.9692 -0.1907 -0.1557
vn -0.9889 0.0521 -0.1394
vn -0.7750 0.1264 0.6192
vn -0.9926 0.0516 -0.1097
vn 0.2200 0.0334 0.9749
vn -0.9560 0.0621 -0.2867
vn -0.8979 0.1745 0.4041
vn -0.1220 0.1663 0.9785
vn 0.9430 -0.0885 0.3209
vn 0.9769 -0.1635 0.1376
vn 0.8939 -0.4189 0.1594
vn 0.5024 -0.2206 -0.8360
vn -0.7871 -0.0499 -0.6148
vn -0.9851 -0.1717 0.0060
vn -0.7257 0.0412 -0.6868
vn 0.3876 -0.2329 -0.8919
vn 0.4318 -0.2456 -0.8679
vn -0.6754 -0.0464 -0.7360
vn -0.6247 -0.0596 -0.7786
vn -0.9905 0.0886 -0.1055
vn -0.9644 0.0864 -0.2500
vn -0.9971 0.0556 -0.0529
vn 0.8381 0.1037 0.5355
vn 0.8458 0.1036 0.5233
vn 0.8921 0.1023 0.4400
vn 0.9047 0.1017 0.4137
vn 0.2994 0.2944 0.9076
vn 0.3129 0.2933 0.9034
vn 0.3777 0.2874 0.8802
vn 0.4021 0.2847 0.8702
vn -0.9212 0.3600 0.1474
vn -0.9072 0.3800 0.1806
vn -0.8581 0.4340 0.2745
vn -0.8141 0.4699 0.3413
vn -0.5997 0.1858 -0.7783
vn -0.6154 0.1981 -0.7629
vn -0.6788 0.2498 -0.6905
vn -0.7071 0.2743 -0.6518
vn 0.6922 0.0219 -0.7214
vn 0.6791 0.0280 -0.7335
vn 0.5535 0.0810 -0.8289
vn 0.5212 0.0934 -0.8483
vn 0.9955 0.0079 -0.0941
vn 0.9939 0.0097 -0.1096
vn 0.9682 0.0256 -0.2489
vn 0.9593 0.0293 -0.2810
vn 0.4786 0.8698 -0.1200
# 132 vertex normals

vt 0.8349 0.6783 0.0000
vt 0.8589 0.6518 0.0000
vt 0.8513 0.6837 0.0000
vt 0.8666 0.6536 0.0000
vt 0.8743 0.6865 0.0000
vt 0.8773 0.6548 0.0000
vt 0.8992 0.6866 0.0000
vt 0.8887 0.6549 0.0000
vt 0.9165 0.6831 0.0000
vt 0.8969 0.6539 0.0000
vt 0.8180 0.6770 0.0000
vt 0.8239 0.6704 0.0000
vt 0.8328 0.6811 0.0000
vt 0.8500 0.6873 0.0000
vt 0.8740 0.6905 0.0000
vt 0.8999 0.6902 0.0000
vt 0.8497 0.8048 0.0000
vt 0.8502 0.7987 0.0000
vt 0.8678 0.8056 0.0000
vt 0.8366 0.8033 0.0000
vt 0.8380 0.7972 0.0000
vt 0.8243 0.8024 0.0000
vt 0.8266 0.7957 0.0000
vt 0.8870 0.8069 0.0000
vt 0.8874 0.8010 0.0000
vt 0.9007 0.8069 0.0000
vt 0.8511 0.7917 0.0000
vt 0.8681 0.7994 0.0000
vt 0.8394 0.7907 0.0000
vt 0.8295 0.7903 0.0000
vt 0.8348 0.7356 0.0000
vt 0.8216 0.7355 0.0000
vt 0.8502 0.7391 0.0000
vt 0.9002 0.8007 0.0000
vt 0.9148 0.8075 0.0000
vt 0.8873 0.7937 0.0000
vt 0.8686 0.7923 0.0000
vt 0.8713 0.7413 0.0000
vt 0.9356 0.6838 0.0000
vt 0.9252 0.7416 0.0000
vt 0.9183 0.6861 0.0000
vt 0.9104 0.7400 0.0000
vt 0.8941 0.7415 0.0000
vt 0.8998 0.7941 0.0000
vt 0.9132 0.8007 0.0000
vt 0.9108 0.7951 0.0000
vt 0.9306 0.6761 0.0000
vt 0.9021 0.6510 0.0000
vt 0.8549 0.6487 0.0000
# 49 texture coords

o Brazo
g Brazo
usemtl 03___Default
s 1
f 1/1/1 2/2/1 3/3/1 
f 4/4/2 3/3/2 2/2/2 
f 5/5/3 6/6/3 7/7/3 
f 8/8/4 7/7/4 6/6/4 
f 7/7/5 8/8/5 9/9/5 
f 10/10/6 9/9/6 8/8/6 
f 11/11/7 12/12/7 13/13/7 
f 1/1/8 13/13/8 12/12/8 
f 13/13/9 1/1/9 14/14/9 
f 3/3/10 14/14/10 1/1/10 
f 15/15/11 5/5/11 16/16/11 
f 17/17/12 18/18/13 19/19/14 
f 17/17/12 20/20/15 18/18/13 
f 21/21/16 18/18/13 20/20/15 
f 20/20/15 22/22/17 21/21/16 
f 23/23/18 21/21/16 22/22/17 
f 24/24/19 25/25/20 26/26/21 
f 24/24/19 19/19/14 25/25/20 
f 18/18/13 27/27/22 28/28/23 
f 18/18/13 21/21/16 27/27/22 
f 29/29/24 27/27/22 21/21/16 
f 21/21/16 23/23/18 29/29/24 
f 30/30/25 29/29/24 23/23/18 
f 29/29/24 30/30/25 31/31/26 
f 32/32/27 31/31/26 30/30/25 
f 27/27/22 29/29/24 33/33/28 
f 31/31/26 33/33/28 29/29/24 
f 26/26/21 34/34/29 22/35/30 
f 34/34/29 26/26/21 25/25/20 
f 25/25/20 35/36/31 34/34/29 
f 25/25/20 28/28/23 35/36/31 
f 36/37/32 35/36/31 28/28/23 
f 36/37/32 28/28/23 27/27/22 
f 36/37/32 27/27/22 37/38/33 
f 33/33/28 37/38/33 27/27/22 
f 37/38/33 33/33/28 15/15/34 
f 14/14/35 15/15/34 33/33/28 
f 33/33/28 31/31/26 14/14/35 
f 13/13/36 14/14/35 31/31/26 
f 31/31/26 32/32/27 13/13/36 
f 11/11/37 13/13/36 32/32/27 
f 36/37/32 37/38/33 35/36/31 
f 11/39/38 32/40/39 38/41/40 
f 39/42/41 38/41/40 32/40/39 
f 38/41/40 39/42/41 16/16/42 
f 40/43/43 16/16/42 39/42/41 
f 16/16/42 40/43/43 15/15/34 
f 37/38/33 15/15/34 40/43/43 
f 40/43/43 35/36/31 37/38/33 
f 35/36/31 40/43/43 41/44/44 
f 41/44/44 34/34/29 35/36/31 
f 34/34/29 41/44/44 23/45/45 
f 23/45/45 22/35/30 34/34/29 
f 30/46/46 23/45/45 41/44/44 
f 32/40/39 30/46/46 39/42/41 
f 41/44/44 39/42/41 30/46/46 
f 39/42/41 41/44/44 40/43/43 
f 12/47/47 11/39/48 9/9/49 
f 38/41/50 9/9/49 11/39/48 
f 9/9/51 38/41/52 7/7/53 
f 16/16/54 7/7/53 38/41/52 
f 5/5/55 15/15/56 3/3/57 
f 14/14/58 3/3/57 15/15/56 
f 42/48/59 12/47/60 10/10/61 
f 9/9/62 10/10/61 12/47/60 
f 6/6/63 5/5/64 4/4/65 
f 3/3/66 4/4/65 5/5/64 
f 2/2/67 1/1/68 42/49/69 
f 12/12/70 42/49/69 1/1/68 
f 7/7/71 16/16/71 5/5/71 
f 43/1/72 44/12/72 45/13/72 
f 46/11/73 45/13/73 44/12/73 
f 47/3/74 43/1/74 48/14/74 
f 45/13/75 48/14/75 43/1/75 
f 49/5/76 47/3/76 50/15/76 
f 48/14/77 50/15/77 47/3/77 
f 51/7/78 49/5/78 52/16/78 
f 50/15/79 52/16/79 49/5/79 
f 53/9/80 51/7/80 54/41/80 
f 52/16/81 54/41/81 51/7/81 
f 44/47/82 53/9/82 46/39/82 
f 55/29/83 56/21/84 57/27/85 
f 56/21/84 55/29/83 58/23/86 
f 59/30/87 58/23/86 55/29/83 
f 55/29/83 60/31/88 59/30/87 
f 61/32/89 59/30/87 60/31/88 
f 57/27/85 62/33/90 55/29/83 
f 60/31/88 55/29/83 62/33/90 
f 46/11/91 61/32/89 45/13/92 
f 60/31/88 45/13/92 61/32/89 
f 45/13/92 60/31/88 48/14/93 
f 62/33/90 48/14/93 60/31/88 
f 48/14/93 62/33/90 50/15/94 
f 63/38/95 50/15/94 62/33/90 
f 62/33/90 57/27/85 63/38/95 
f 64/37/96 63/38/95 57/27/85 
f 64/37/96 65/36/97 63/38/95 
f 66/34/98 58/45/99 67/44/100 
f 67/44/100 65/36/97 66/34/98 
f 65/36/97 67/44/100 68/43/101 
f 68/43/101 63/38/95 65/36/97 
f 63/38/95 68/43/101 50/15/94 
f 52/16/102 50/15/94 68/43/101 
f 68/43/101 69/42/103 52/16/102 
f 54/41/104 52/16/102 69/42/103 
f 69/42/103 61/40/105 54/41/104 
f 46/39/106 54/41/104 61/40/105 
f 59/46/107 67/44/100 58/45/99 
f 69/42/103 68/43/101 67/44/100 
f 67/44/100 59/46/107 69/42/103 
f 61/40/105 69/42/103 59/46/107 
f 53/9/108 44/47/109 70/10/110 
f 71/48/111 70/10/110 44/47/109 
f 51/7/112 53/9/113 72/8/114 
f 70/10/115 72/8/114 53/9/113 
f 49/5/116 51/7/117 73/6/118 
f 72/8/119 73/6/118 51/7/117 
f 47/3/120 49/5/121 74/4/122 
f 73/6/123 74/4/122 49/5/121 
f 43/1/124 47/3/125 75/2/126 
f 74/4/127 75/2/126 47/3/125 
f 44/12/128 43/1/129 71/49/130 
f 75/2/131 71/49/130 43/1/129 
f 54/41/132 46/39/132 53/9/132 
# 124 faces

