# 3ds Max Wavefront OBJ Exporter v0.99 - (c)2007 guruware
# File Created: 18.04.2024 20:09:39

mtllib Rustbucket_LlantaIzq.mtl

#
# object LlantaIzq
#

v  -0.1552 0.0000 -0.0000
v  -0.1545 0.1210 0.1697
v  -0.1545 0.1977 0.0661
v  -0.1545 -0.0018 0.2084
v  -0.1545 -0.1240 0.1676
v  -0.1545 -0.1988 0.0627
v  -0.1545 0.1988 -0.0627
v  -0.1545 0.1240 -0.1676
v  -0.1545 0.0018 -0.2084
v  -0.1545 -0.1210 -0.1697
v  -0.1545 -0.1977 -0.0661
v  -0.0957 0.2780 0.0930
v  -0.0957 0.1702 0.2387
v  -0.0957 0.2796 -0.0881
v  -0.0957 -0.0026 0.2931
v  -0.0957 0.1744 -0.2356
v  -0.0957 -0.1744 0.2356
v  -0.0957 0.0026 -0.2931
v  -0.0957 -0.2796 0.0881
v  -0.0957 -0.1702 -0.2387
v  -0.0957 -0.2780 -0.0930
v  -0.0858 0.4014 0.1343
v  -0.0858 0.2458 0.3446
v  -0.0858 0.4037 -0.1273
v  -0.0858 -0.0037 0.4233
v  -0.0858 0.2518 -0.3403
v  -0.0858 -0.2518 0.3403
v  -0.0858 0.0037 -0.4233
v  -0.0858 -0.4037 0.1273
v  -0.0858 -0.2458 -0.3446
v  -0.0858 -0.4014 -0.1343
v  0.1552 0.4014 0.1343
v  0.1552 0.2458 0.3446
v  0.1552 0.4037 -0.1273
v  0.1552 -0.0037 0.4233
v  0.1552 0.2518 -0.3403
v  0.1552 -0.2518 0.3403
v  0.1552 0.0037 -0.4233
v  0.1552 -0.4037 0.1273
v  0.1552 -0.2458 -0.3446
v  0.1552 -0.4014 -0.1343
# 41 vertices

vn -1.0000 -0.0000 -0.0000
vn -0.9358 0.2047 0.2870
vn -0.9358 0.3343 0.1118
vn -0.9358 -0.0031 0.3525
vn -0.9358 -0.2097 0.2834
vn -0.9358 -0.3362 0.1060
vn -0.9358 0.3362 -0.1060
vn -0.9358 0.2097 -0.2834
vn -0.9358 0.0031 -0.3525
vn -0.9358 -0.2047 -0.2870
vn -0.9358 -0.3343 -0.1118
vn -0.9579 0.2722 0.0911
vn -0.9579 0.1667 0.2336
vn -0.9579 0.2737 -0.0863
vn -0.9579 -0.0025 0.2870
vn -0.9579 0.1707 -0.2307
vn -0.9579 -0.1707 0.2307
vn -0.9579 0.0025 -0.2870
vn -0.9579 -0.2737 0.0863
vn -0.9579 -0.1667 -0.2336
vn -0.9579 -0.2722 -0.0911
vn -0.9971 0.0721 0.0241
vn -0.9971 0.0442 0.0619
vn -0.9971 0.0725 -0.0229
vn -0.9971 -0.0007 0.0761
vn -0.9971 0.0452 -0.0612
vn -0.9971 -0.0452 0.0612
vn -0.9971 0.0007 -0.0761
vn -0.9971 -0.0726 0.0229
vn -0.9971 -0.0442 -0.0619
vn -0.9971 -0.0721 -0.0241
vn -0.0000 0.9483 0.3173
vn -0.0000 0.9537 -0.3007
vn -0.0000 0.5807 0.8141
vn -0.0000 0.5948 -0.8039
vn -0.0000 -0.0087 1.0000
vn -0.0000 0.0087 -1.0000
vn -0.0000 -0.5948 0.8039
vn -0.0000 -0.5807 -0.8141
vn -0.0000 -0.9537 0.3007
vn -0.0000 -0.9483 -0.3173
# 41 vertex normals

vt 0.6074 0.1719 0.0000
vt 0.6514 0.1426 0.0000
vt 0.6240 0.1250 0.0000
vt 0.6611 0.1719 0.0000
vt 0.5908 0.1250 0.0000
vt 0.5635 0.1426 0.0000
vt 0.5537 0.1719 0.0000
vt 0.6309 0.1055 0.0000
vt 0.6690 0.1309 0.0000
vt 0.5840 0.1055 0.0000
vt 0.6836 0.1719 0.0000
vt 0.5459 0.1309 0.0000
vt 0.5312 0.1719 0.0000
vt 0.6416 0.0762 0.0000
vt 0.6963 0.1133 0.0000
vt 0.5732 0.0762 0.0000
vt 0.7168 0.1719 0.0000
vt 0.5185 0.1133 0.0000
vt 0.4971 0.1719 0.0000
vt 0.7129 0.4541 0.0000
vt 0.7129 0.3525 0.0000
# 21 texture coords

o LlantaIzq
g LlantaIzq
usemtl Rustbucket_Material_001
s 1
f 1/1/1 2/2/2 3/3/3 
f 4/4/4 2/2/2 1/1/1 
f 1/1/1 5/2/5 4/4/4 
f 6/3/6 5/2/5 1/1/1 
f 7/5/7 1/1/1 3/3/3 
f 8/6/8 1/1/1 7/5/7 
f 8/6/8 9/7/9 1/1/1 
f 10/6/10 1/1/1 9/7/9 
f 11/5/11 1/1/1 10/6/10 
f 11/5/11 6/3/6 1/1/1 
f 3/3/3 12/8/12 7/5/7 
f 13/9/13 12/8/12 3/3/3 
f 14/10/14 7/5/7 12/8/12 
f 8/6/8 7/5/7 14/10/14 
f 2/2/2 13/9/13 3/3/3 
f 15/11/15 13/9/13 2/2/2 
f 16/12/16 8/6/8 14/10/14 
f 9/7/9 8/6/8 16/12/16 
f 4/4/4 15/11/15 2/2/2 
f 17/9/17 15/11/15 4/4/4 
f 18/13/18 9/7/9 16/12/16 
f 10/6/10 9/7/9 18/13/18 
f 5/2/5 17/9/17 4/4/4 
f 19/8/19 17/9/17 5/2/5 
f 20/12/20 10/6/10 18/13/18 
f 11/5/11 10/6/10 20/12/20 
f 6/3/6 19/8/19 5/2/5 
f 21/10/21 19/8/19 6/3/6 
f 21/10/21 11/5/11 20/12/20 
f 6/3/6 11/5/11 21/10/21 
f 12/8/12 22/14/22 14/10/14 
f 23/15/23 22/14/22 12/8/12 
f 24/16/24 14/10/14 22/14/22 
f 16/12/16 14/10/14 24/16/24 
f 13/9/13 23/15/23 12/8/12 
f 25/17/25 23/15/23 13/9/13 
f 26/18/26 16/12/16 24/16/24 
f 18/13/18 16/12/16 26/18/26 
f 15/11/15 25/17/25 13/9/13 
f 27/15/27 25/17/25 15/11/15 
f 28/19/28 18/13/18 26/18/26 
f 20/12/20 18/13/18 28/19/28 
f 17/9/17 27/15/27 15/11/15 
f 29/14/29 27/15/27 17/9/17 
f 30/18/30 20/12/20 28/19/28 
f 21/10/21 20/12/20 30/18/30 
f 19/8/19 29/14/29 17/9/17 
f 31/16/31 29/14/29 19/8/19 
f 31/16/31 21/10/21 30/18/30 
f 19/8/19 21/10/21 31/16/31 
f 22/20/32 32/21/32 24/20/33 
f 33/21/34 32/21/32 22/20/32 
f 34/21/33 24/20/33 32/21/32 
f 26/20/35 24/20/33 34/21/33 
f 23/20/34 33/21/34 22/20/32 
f 35/21/36 33/21/34 23/20/34 
f 36/21/35 26/20/35 34/21/33 
f 28/20/37 26/20/35 36/21/35 
f 25/20/36 35/21/36 23/20/34 
f 37/21/38 35/21/36 25/20/36 
f 38/21/37 28/20/37 36/21/35 
f 30/20/39 28/20/37 38/21/37 
f 27/20/38 37/21/38 25/20/36 
f 39/21/40 37/21/38 27/20/38 
f 40/21/39 30/20/39 38/21/37 
f 31/20/41 30/20/39 40/21/39 
f 29/20/40 39/21/40 27/20/38 
f 41/21/41 39/21/40 29/20/40 
f 41/21/41 31/20/41 40/21/39 
f 29/20/40 31/20/41 41/21/41 
# 0 polygons - 70 triangles

