# 3ds Max Wavefront OBJ Exporter v0.99 - (c)2007 guruware
# File Created: 18.04.2024 20:09:12

mtllib Rustbucket_LlantaDer.mtl

#
# object LlantaDer
#

v  0.1505 0.0000 -0.0000
v  0.1499 0.1240 -0.1676
v  0.1499 0.1988 -0.0627
v  0.1499 0.0018 -0.2084
v  0.1499 -0.1210 -0.1697
v  0.1499 -0.1977 -0.0661
v  0.1499 0.1977 0.0661
v  0.1499 0.1210 0.1697
v  0.1499 -0.0018 0.2084
v  0.1499 -0.1240 0.1676
v  0.1499 -0.1988 0.0627
v  0.0910 0.2780 0.0930
v  0.0910 0.2796 -0.0881
v  0.0910 0.1744 -0.2356
v  0.0910 0.1702 0.2387
v  0.0910 0.0026 -0.2931
v  0.0910 -0.0026 0.2931
v  0.0910 -0.1702 -0.2387
v  0.0910 -0.1744 0.2356
v  0.0910 -0.2780 -0.0930
v  0.0910 -0.2796 0.0881
v  0.0904 0.4014 0.1343
v  0.0904 0.4037 -0.1273
v  0.0904 0.2518 -0.3403
v  0.0904 0.2458 0.3446
v  0.0904 0.0037 -0.4233
v  0.0904 -0.0037 0.4233
v  0.0904 -0.2458 -0.3446
v  0.0904 -0.2518 0.3403
v  0.0904 -0.4014 -0.1343
v  0.0904 -0.4037 0.1273
v  -0.1505 0.4014 0.1343
v  -0.1505 0.4037 -0.1273
v  -0.1505 0.2518 -0.3403
v  -0.1505 0.2458 0.3446
v  -0.1505 0.0037 -0.4233
v  -0.1505 -0.0037 0.4233
v  -0.1505 -0.2458 -0.3446
v  -0.1505 -0.2518 0.3403
v  -0.1505 -0.4014 -0.1343
v  -0.1505 -0.4037 0.1273
# 41 vertices

vn 1.0000 -0.0000 -0.0000
vn 0.9358 0.2097 -0.2834
vn 0.9358 0.3362 -0.1060
vn 0.9358 0.0031 -0.3525
vn 0.9358 -0.2047 -0.2870
vn 0.9358 -0.3343 -0.1118
vn 0.9358 0.3343 0.1118
vn 0.9358 0.2047 0.2870
vn 0.9358 -0.0031 0.3525
vn 0.9358 -0.2097 0.2834
vn 0.9358 -0.3362 0.1060
vn 0.9694 0.2327 0.0779
vn 0.9694 0.2341 -0.0738
vn 0.9694 0.1460 -0.1973
vn 0.9694 0.1425 0.1998
vn 0.9694 0.0021 -0.2454
vn 0.9694 -0.0021 0.2454
vn 0.9694 -0.1425 -0.1998
vn 0.9694 -0.1460 0.1973
vn 0.9694 -0.2327 -0.0779
vn 0.9694 -0.2341 0.0738
vn 1.0000 0.0043 0.0014
vn 1.0000 0.0044 -0.0014
vn 1.0000 0.0027 -0.0037
vn 1.0000 0.0026 0.0037
vn 1.0000 -0.0000 -0.0046
vn 1.0000 -0.0000 0.0046
vn 1.0000 -0.0026 -0.0037
vn 1.0000 -0.0027 0.0037
vn 1.0000 -0.0043 -0.0014
vn 1.0000 -0.0044 0.0014
vn -0.0000 0.9483 0.3173
vn -0.0000 0.9537 -0.3007
vn -0.0000 0.5948 -0.8039
vn -0.0000 0.5807 0.8141
vn -0.0000 0.0087 -1.0000
vn -0.0000 -0.0087 1.0000
vn -0.0000 -0.5807 -0.8141
vn -0.0000 -0.5948 0.8039
vn -0.0000 -0.9483 -0.3173
vn -0.0000 -0.9537 0.3007
# 41 vertex normals

vt 0.6074 0.1719 0.0000
vt 0.5635 0.1426 0.0000
vt 0.5908 0.1250 0.0000
vt 0.5537 0.1719 0.0000
vt 0.6240 0.1250 0.0000
vt 0.6514 0.1426 0.0000
vt 0.6611 0.1719 0.0000
vt 0.6309 0.1055 0.0000
vt 0.5840 0.1055 0.0000
vt 0.5459 0.1309 0.0000
vt 0.6690 0.1309 0.0000
vt 0.5312 0.1719 0.0000
vt 0.6836 0.1719 0.0000
vt 0.6416 0.0762 0.0000
vt 0.5732 0.0762 0.0000
vt 0.5185 0.1133 0.0000
vt 0.6963 0.1133 0.0000
vt 0.4971 0.1719 0.0000
vt 0.7168 0.1719 0.0000
vt 0.7129 0.3525 0.0000
vt 0.7129 0.4541 0.0000
# 21 texture coords

o LlantaDer
g LlantaDer
usemtl Rustbucket_Material_001
s 1
f 1/1/1 2/2/2 3/3/3 
f 4/4/4 2/2/2 1/1/1 
f 1/1/1 5/2/5 4/4/4 
f 6/3/6 5/2/5 1/1/1 
f 7/5/7 1/1/1 3/3/3 
f 8/6/8 1/1/1 7/5/7 
f 8/6/8 9/7/9 1/1/1 
f 10/6/10 1/1/1 9/7/9 
f 11/5/11 1/1/1 10/6/10 
f 11/5/11 6/3/6 1/1/1 
f 12/8/12 3/3/3 13/9/13 
f 7/5/7 3/3/3 12/8/12 
f 2/2/2 13/9/13 3/3/3 
f 14/10/14 13/9/13 2/2/2 
f 15/11/15 7/5/7 12/8/12 
f 8/6/8 7/5/7 15/11/15 
f 4/4/4 14/10/14 2/2/2 
f 16/12/16 14/10/14 4/4/4 
f 17/13/17 8/6/8 15/11/15 
f 9/7/9 8/6/8 17/13/17 
f 5/2/5 16/12/16 4/4/4 
f 18/10/18 16/12/16 5/2/5 
f 19/11/19 9/7/9 17/13/17 
f 10/6/10 9/7/9 19/11/19 
f 6/3/6 18/10/18 5/2/5 
f 20/9/20 18/10/18 6/3/6 
f 21/8/21 10/6/10 19/11/19 
f 11/5/11 10/6/10 21/8/21 
f 11/5/11 20/9/20 6/3/6 
f 21/8/21 20/9/20 11/5/11 
f 22/14/22 13/9/13 23/15/23 
f 12/8/12 13/9/13 22/14/22 
f 14/10/14 23/15/23 13/9/13 
f 24/16/24 23/15/23 14/10/14 
f 25/17/25 12/8/12 22/14/22 
f 15/11/15 12/8/12 25/17/25 
f 16/12/16 24/16/24 14/10/14 
f 26/18/26 24/16/24 16/12/16 
f 27/19/27 15/11/15 25/17/25 
f 17/13/17 15/11/15 27/19/27 
f 18/10/18 26/18/26 16/12/16 
f 28/16/28 26/18/26 18/10/18 
f 29/17/29 17/13/17 27/19/27 
f 19/11/19 17/13/17 29/17/29 
f 20/9/20 28/16/28 18/10/18 
f 30/15/30 28/16/28 20/9/20 
f 31/14/31 19/11/19 29/17/29 
f 21/8/21 19/11/19 31/14/31 
f 21/8/21 30/15/30 20/9/20 
f 31/14/31 30/15/30 21/8/21 
f 32/20/32 23/21/33 33/20/33 
f 22/21/32 23/21/33 32/20/32 
f 24/21/34 33/20/33 23/21/33 
f 34/20/34 33/20/33 24/21/34 
f 35/20/35 22/21/32 32/20/32 
f 25/21/35 22/21/32 35/20/35 
f 26/21/36 34/20/34 24/21/34 
f 36/20/36 34/20/34 26/21/36 
f 37/20/37 25/21/35 35/20/35 
f 27/21/37 25/21/35 37/20/37 
f 28/21/38 36/20/36 26/21/36 
f 38/20/38 36/20/36 28/21/38 
f 39/20/39 27/21/37 37/20/37 
f 29/21/39 27/21/37 39/20/39 
f 30/21/40 38/20/38 28/21/38 
f 40/20/40 38/20/38 30/21/40 
f 41/20/41 29/21/39 39/20/39 
f 31/21/41 29/21/39 41/20/41 
f 31/21/41 40/20/40 30/21/40 
f 41/20/41 40/20/40 31/21/41 
# 0 polygons - 70 triangles

