# 3ds Max Wavefront OBJ Exporter v0.99 - (c)2007 guruware
# File Created: 24.04.2024 16:35:34

mtllib BlimpDuff.mtl

#
# object DTZ3_Duff_blimpShape
#

v  -7.5030 14.4214 18.6216
v  -5.7340 22.0556 24.9307
v  -10.6168 22.0556 18.6243
v  -4.0488 17.9240 24.9293
v  0.0203 18.1603 25.8884
v  -2.6919 19.3012 25.8905
v  0.0195 16.2127 24.9260
v  4.0878 17.9240 24.9226
v  2.7325 19.3012 25.8862
v  5.7730 22.0556 24.9213
v  7.5316 14.4214 18.6092
v  10.6454 22.0556 18.6067
v  9.8289 12.0811 9.8755
v  12.3952 22.0556 9.8736
v  9.8289 32.0302 9.8755
v  7.5316 29.6898 18.6092
v  4.0878 26.1872 24.9226
v  3.8560 22.0556 25.8852
v  2.7325 24.8100 25.8862
v  0.0143 11.2592 18.6155
v  10.6310 11.2592 1.1872
v  12.9610 22.0556 1.1850
v  12.3804 22.0556 -8.2128
v  9.8141 12.0811 -8.2106
v  7.5023 14.4214 -17.0832
v  10.6160 22.0556 -17.0857
v  9.8141 32.0302 -8.2106
v  7.5023 29.6898 -17.0832
v  9.2730 22.0688 -20.4942
v  7.1975 22.0688 -18.6041
v  -0.0480 22.0688 -26.9696
v  10.9073 22.0688 -23.2020
v  11.6595 22.0688 -26.9164
v  5.7329 22.0556 -23.8620
v  -0.0227 22.0556 -26.4419
v  4.0477 26.1872 -23.8608
v  -0.0200 11.1475 -23.1324
v  -0.0230 10.3921 -26.8459
v  -0.0231 22.0996 -26.9089
v  -0.0177 12.7840 -20.4257
v  -0.0162 14.8611 -18.5374
v  -4.0889 17.9240 -23.8539
v  -0.0206 16.2127 -23.8573
v  -0.0150 11.2592 -17.0771
v  4.0477 17.9240 -23.8608
v  -5.7741 22.0556 -23.8526
v  -7.5323 14.4214 -17.0709
v  -0.0077 7.9495 -8.2026
v  -9.8295 12.0811 -8.1948
v  -0.0000 6.7872 1.1957
v  -10.6311 11.2592 1.2045
v  -9.8146 12.0811 9.8918
v  0.0071 7.9495 9.8836
v  0.0026 3.1085 4.3782
v  0.0060 3.1085 8.4726
v  -2.1846 3.1085 7.2752
v  -3.0939 3.1085 4.3806
v  -2.1893 3.1085 1.4847
v  -0.0007 3.1085 0.2837
v  2.1898 3.1085 1.4812
v  3.0992 3.1085 4.3757
v  2.1946 3.1085 7.2716
v  0.0072 8.4664 9.9671
v  -2.9829 9.1476 8.3326
v  -4.2242 9.1476 4.3817
v  -2.9894 8.3023 0.4287
v  -0.0019 8.2623 -1.2107
v  4.2294 9.1476 4.3747
v  2.9882 8.3023 0.4238
v  0.0026 9.1476 4.3782
v  2.9946 9.1476 8.3278
v  4.8377 5.3909 2.2459
v  7.0707 6.3158 2.2440
v  9.3037 5.3909 2.2424
v  3.9128 3.1579 2.2467
v  4.8377 0.9249 2.2459
v  7.0707 0.0000 2.2440
v  9.3037 0.9249 2.2424
v  10.2287 3.1579 2.2416
v  7.2203 3.2354 7.5288
v  7.2203 2.9738 7.5288
v  7.2167 2.9738 3.0283
v  7.2167 3.2354 3.0283
v  7.1403 3.2327 8.3310
v  8.0032 3.2327 8.3303
v  7.7505 3.8428 8.3303
v  7.1403 4.0956 8.3310
v  8.2906 4.3842 6.8039
v  7.1391 4.8611 6.8046
v  8.4698 4.5646 5.2775
v  7.1379 5.1163 5.2785
v  8.2881 4.3842 3.7513
v  7.1366 4.8611 3.7524
v  7.1354 4.2722 2.2261
v  7.8704 3.9677 2.2254
v  6.5303 3.8428 8.3315
v  5.9877 4.3842 6.8057
v  5.8059 4.5646 5.2796
v  5.9851 4.3842 3.7533
v  6.4003 3.9677 2.2268
v  6.2775 3.2327 8.3318
v  5.5107 3.2327 6.8061
v  5.2542 3.2327 5.2801
v  5.5083 3.2327 3.7536
v  6.0958 3.2327 2.2270
v  6.5303 2.6226 8.3315
v  7.1403 2.3698 8.3310
v  7.7505 2.6226 8.3303
v  8.2906 2.0812 6.8039
v  8.7676 3.2327 6.8036
v  8.4698 1.9008 5.2775
v  9.0215 3.2327 5.2770
v  8.2881 2.0812 3.7513
v  8.7650 3.2327 3.7510
v  8.1749 3.2327 2.2252
v  7.8704 2.4976 2.2254
v  7.1391 1.6043 6.8046
v  7.1379 1.3491 5.2785
v  7.1366 1.6043 3.7524
v  7.1354 2.1932 2.2261
v  5.9877 2.0812 6.8057
v  5.8059 1.9008 5.2796
v  5.9851 2.0812 3.7533
v  6.4003 2.4976 2.2268
v  -8.8064 5.3909 2.2570
v  -6.5734 6.3158 2.2553
v  -4.3405 5.3909 2.2535
v  -9.7314 3.1579 2.2578
v  -8.8064 0.9249 2.2570
v  -6.5734 0.0000 2.2553
v  -4.3405 0.9249 2.2535
v  -3.4155 3.1579 2.2527
v  -6.6306 2.9738 7.5401
v  -6.6306 3.2354 7.5401
v  -6.6342 3.2354 3.0396
v  -6.6342 2.9738 3.0396
v  -5.8937 3.8428 8.3417
v  -5.6409 3.2327 8.3414
v  -4.8766 3.2327 6.8147
v  -5.3536 4.3842 6.8151
v  -4.6226 3.2327 5.2881
v  -5.1744 4.5646 5.2886
v  -4.8791 3.2327 3.7621
v  -5.3560 4.3842 3.7626
v  -5.7737 3.9678 2.2367
v  -5.4692 3.2327 2.2365
v  -6.5037 3.2327 8.3423
v  -6.5037 4.0956 8.3423
v  -6.5051 4.8611 6.8160
v  -6.5063 5.1163 5.2897
v  -6.5075 4.8611 3.7635
v  -6.5088 4.2722 2.2374
v  -7.1139 3.8428 8.3427
v  -7.6565 4.3842 6.8168
v  -7.8382 4.5646 5.2907
v  -7.6591 4.3842 3.7645
v  -7.2438 3.9678 2.2379
v  -7.3666 3.2327 8.3429
v  -8.1334 3.2327 6.8172
v  -8.3899 3.2327 5.2914
v  -8.1359 3.2327 3.7650
v  -7.5483 3.2327 2.2381
v  -7.1139 2.6226 8.3427
v  -6.5037 2.3698 8.3423
v  -5.8937 2.6226 8.3417
v  -5.3536 2.0812 6.8151
v  -5.1744 1.9008 5.2886
v  -5.3560 2.0812 3.7626
v  -5.7737 2.4976 2.2367
v  -6.5051 1.6043 6.8160
v  -6.5063 1.3491 5.2897
v  -6.5075 1.6043 3.7635
v  -6.5088 2.1932 2.2374
v  -7.6565 2.0812 6.8168
v  -7.8382 1.9008 5.2907
v  -7.6591 2.0812 3.7645
v  -7.2438 2.4976 2.2379
v  -12.3810 22.0556 9.8939
v  -12.9610 22.0556 1.2064
v  -10.6311 32.8520 1.2045
v  -9.8146 32.0302 9.8918
v  0.0143 32.8520 18.6155
v  -7.5030 29.6898 18.6216
v  -4.0488 26.1872 24.9293
v  0.0195 27.8986 24.9260
v  0.0203 25.9509 25.8884
v  10.6310 32.8520 1.1872
v  -7.5323 29.6898 -17.0709
v  -0.0077 36.1617 -8.2026
v  -0.0150 32.8520 -17.0771
v  -4.0889 26.1872 -23.8539
v  -0.0206 27.8986 -23.8573
v  -0.0200 32.9287 -23.1324
v  -0.0230 33.6840 -26.8459
v  -0.0231 21.9765 -26.9089
v  -0.0177 31.2922 -20.4257
v  -0.0162 29.2150 -18.5374
v  -0.0613 22.0688 -26.9697
v  -11.7688 22.0688 -26.8973
v  -11.0105 22.0688 -23.1841
v  -9.3717 22.0688 -20.4788
v  -7.2931 22.0688 -18.5922
v  -12.3959 22.0556 -8.1926
v  -9.8295 32.0302 -8.1948
v  0.0071 36.1617 9.8836
v  -0.0000 37.3240 1.1957
v  -10.6460 22.0556 -17.0682
v  -2.6919 24.8100 25.8905
v  0.0212 22.0556 26.9697
v  -3.8154 22.0556 25.8914
# 210 vertices

vn -0.6132 -0.6192 0.4905
vn -0.6322 0.0000 0.7748
vn -0.9195 0.0000 0.3931
vn -0.3848 -0.5021 0.7745
vn 0.0007 -0.3856 0.9227
vn -0.2934 -0.2380 0.9259
vn 0.0006 -0.6274 0.7787
vn 0.3861 -0.5022 0.7738
vn 0.2949 -0.2381 0.9254
vn 0.6334 0.0000 0.7738
vn 0.6140 -0.6192 0.4894
vn 0.9201 0.0000 0.3916
vn 0.7233 -0.6540 0.2216
vn 0.9921 0.0000 0.1258
vn 0.7233 0.6540 0.2216
vn 0.6140 0.6192 0.4894
vn 0.3861 0.5022 0.7738
vn 0.3618 0.0000 0.9322
vn 0.2949 0.2381 0.9254
vn 0.0004 -0.8440 0.5364
vn 0.8608 -0.5089 0.0034
vn 1.0000 0.0000 0.0017
vn 0.9925 0.0000 -0.1219
vn 0.7241 -0.6552 -0.2157
vn 0.6210 -0.6252 -0.4728
vn 0.9250 0.0000 -0.3799
vn 0.7241 0.6552 -0.2157
vn 0.6210 0.6252 -0.4728
vn 0.0000 -1.0000 -0.0000
vn 0.0000 1.0000 -0.0000
vn 0.6952 0.0000 -0.7189
vn -0.0008 0.0000 -1.0000
vn 0.4247 0.5156 -0.7442
vn 1.0000 -0.0000 -0.0008
vn 1.0000 0.0000 -0.0008
vn -1.0000 -0.0000 0.0008
vn -1.0000 0.0000 0.0008
vn -0.4259 -0.5156 -0.7435
vn -0.0007 -0.6231 -0.7821
vn -0.0004 -0.8572 -0.5150
vn 0.4247 -0.5156 -0.7442
vn -0.6963 0.0000 -0.7177
vn -0.6218 -0.6252 -0.4718
vn -0.0002 -0.9612 -0.2760
vn -0.7244 -0.6552 -0.2145
vn 0.0000 -1.0000 0.0050
vn -0.8608 -0.5089 0.0049
vn -0.7229 -0.6540 0.2228
vn 0.0002 -0.9593 0.2825
vn 0.0005 -0.8237 0.5670
vn -0.6194 -0.6091 0.4952
vn -0.7396 -0.6698 -0.0669
vn -0.4604 -0.8045 -0.3753
vn -0.0006 -0.6595 -0.7517
vn 0.4598 -0.8045 -0.3760
vn 0.7394 -0.6698 -0.0681
vn 0.6202 -0.6091 0.4942
vn 0.0008 -0.2581 0.9661
vn -0.7703 -0.2074 0.6030
vn -0.9765 -0.1828 0.1145
vn -0.7599 -0.2350 -0.6061
vn -0.0008 -0.2785 -0.9604
vn -0.0001 0.9945 -0.1052
vn 0.0360 0.9825 -0.1828
vn -0.0001 0.9981 -0.0622
vn -0.0793 0.9950 0.0601
vn 0.0001 0.9927 0.1210
vn 0.0794 0.9950 0.0600
vn -0.0363 0.9825 -0.1827
vn -0.0001 0.9877 -0.1565
vn -0.0008 -0.0001 -1.0000
vn -0.0008 -0.0000 -1.0000
vn -0.0009 0.0000 -1.0000
vn 0.0008 -0.0001 1.0000
vn 0.0008 -0.0000 1.0000
vn 0.0008 0.0000 1.0000
vn 0.0009 0.0000 1.0000
vn 0.6739 0.0000 0.7389
vn 0.3601 0.3594 0.8609
vn 0.0847 0.6084 0.7891
vn 0.7076 0.6247 0.3303
vn 0.0058 0.9504 0.3110
vn 0.7071 0.7071 -0.0006
vn 0.0000 1.0000 0.0000
vn 0.5825 0.7694 -0.2623
vn -0.1322 0.9560 -0.2618
vn 0.1275 0.9253 -0.3571
vn 0.7443 0.5640 -0.3576
vn -0.3701 0.4897 0.7894
vn -0.6678 0.6760 0.3116
vn -0.7071 0.7071 0.0006
vn -0.7696 0.5827 -0.2613
vn -0.5642 0.7446 -0.3566
vn -0.6078 0.0840 0.7896
vn -0.9501 0.0056 0.3118
vn -0.9562 -0.1320 -0.2611
vn -0.9256 0.1277 -0.3563
vn -0.4890 -0.3709 0.7895
vn -0.0833 -0.6085 0.7892
vn 0.3715 -0.4897 0.7888
vn 0.6683 -0.6760 0.3105
vn 0.9564 -0.0819 0.2805
vn 0.7071 -0.7071 -0.0006
vn 0.7691 -0.5827 -0.2625
vn 0.9558 0.1320 -0.2626
vn 0.9250 -0.1278 -0.3578
vn 0.5637 -0.7447 -0.3575
vn -0.0054 -0.9504 0.3110
vn -0.0000 -1.0000 -0.0000
vn 0.1318 -0.9560 -0.2620
vn -0.1281 -0.9253 -0.3569
vn -0.6757 -0.6681 0.3116
vn -0.7071 -0.7071 0.0006
vn -0.5829 -0.7693 -0.2614
vn -0.7449 -0.5640 -0.3564
vn 0.7713 -0.2074 0.6018
vn 0.9767 -0.1828 0.1129
vn 0.7589 -0.2350 -0.6074
vn -0.0008 0.0001 -1.0000
vn 0.0008 0.0001 1.0000
vn 0.4903 0.3708 0.7887
vn 0.6091 -0.0840 0.7886
vn 0.9506 -0.0056 0.3103
vn 0.6762 0.6681 0.3105
vn 0.9558 0.1320 -0.2627
vn 0.7443 0.5640 -0.3577
vn 0.1275 0.9253 -0.3572
vn -0.3702 0.4897 0.7894
vn -0.7696 0.5826 -0.2612
vn -0.9563 -0.1320 -0.2611
vn -0.0834 -0.6085 0.7892
vn 0.3715 -0.4896 0.7888
vn 0.5637 -0.7446 -0.3575
vn -0.1280 -0.9253 -0.3570
vn -0.6757 -0.6680 0.3116
vn -0.7449 -0.5639 -0.3564
vn -0.9918 0.0000 0.1274
vn -1.0000 0.0000 0.0033
vn -0.8608 0.5089 0.0049
vn -0.7229 0.6540 0.2228
vn 0.0004 0.8440 0.5364
vn -0.6132 0.6192 0.4905
vn -0.3848 0.5021 0.7745
vn 0.0006 0.6274 0.7787
vn 0.0007 0.3856 0.9227
vn 0.8608 0.5089 0.0034
vn -0.6218 0.6252 -0.4717
vn -0.0002 0.9612 -0.2760
vn -0.0004 0.8572 -0.5150
vn -0.4259 0.5156 -0.7435
vn -0.0007 0.6231 -0.7821
vn -0.9927 0.0000 -0.1202
vn -0.7244 0.6552 -0.2145
vn 0.0002 0.9593 0.2825
vn 0.0000 1.0000 0.0050
vn -0.9257 0.0000 -0.3784
vn -0.2934 0.2380 0.9259
vn -0.3603 0.0000 0.9328
# 158 vertex normals

vt 0.9537 0.5562 0.0000
vt 0.3667 0.4162 0.0000
vt 0.9537 0.3804 0.0000
vt 0.3667 0.5104 0.0000
vt 0.1123 0.4676 0.0000
vt 0.0560 0.9542 0.0000
vt 0.0465 0.8004 0.0000
vt 0.0465 0.6109 0.0000
vt 0.2793 0.5829 0.0000
vt 0.2793 0.8004 0.0000
vt 0.5068 0.8004 0.0000
vt 0.5068 0.6109 0.0000
vt 0.4846 0.6342 0.0000
vt 0.3055 0.5066 0.0000
vt 0.2550 0.5803 0.0000
vt -0.0012 0.3777 0.0000
vt 0.3199 0.4555 0.0000
vt 0.3307 0.3777 0.0000
vt 0.4846 0.6243 0.0000
vt 0.4432 0.3807 0.0000
vt 0.5000 0.0000 0.0000
vt 0.5000 0.1592 0.0000
vt 0.3750 0.1592 0.0000
vt 0.8750 0.1592 0.0000
vt 0.7500 0.1592 0.0000
vt 0.7590 0.0000 0.0000
vt 0.9944 0.0000 0.0000
vt 0.9944 0.3739 0.0000
vt 0.8536 0.4175 0.0000
vt 0.5000 0.4175 0.0000
vt 0.1464 0.3486 0.0000
vt 0.2410 0.0000 0.0000
vt 0.0119 0.0000 0.0000
vt 0.0119 0.3739 0.0000
vt 0.8750 0.4775 0.0000
vt 1.0000 0.4775 0.0000
vt 0.5000 0.6366 0.0000
vt 0.7500 0.4775 0.0000
vt 0.6250 0.4775 0.0000
vt 0.5000 0.4775 0.0000
vt 0.3750 0.4775 0.0000
vt 0.2500 0.4775 0.0000
vt 0.1250 0.4775 0.0000
vt 0.0000 0.4775 0.0000
vt 0.6218 0.9456 0.0000
vt 0.7795 1.0000 0.0000
vt 0.9371 0.9456 0.0000
vt 0.5591 0.7830 0.0000
vt 0.6267 0.6203 0.0000
vt 0.7795 0.5512 0.0000
vt 0.9322 0.6203 0.0000
vt 0.9998 0.7830 0.0000
vt 0.9917 0.3749 0.0000
vt 0.9917 0.0000 0.0000
vt 0.8536 0.4185 0.0000
vt 0.5000 0.4185 0.0000
vt 0.1464 0.3497 0.0000
vt 0.0119 0.3749 0.0000
vt 0.6224 0.9386 0.0000
vt 0.7795 1.0037 0.0000
vt 0.9366 0.9386 0.0000
vt 0.5573 0.7815 0.0000
vt 0.6224 0.6244 0.0000
vt 0.7795 0.5593 0.0000
vt 0.9366 0.6244 0.0000
vt 1.0017 0.7815 0.0000
vt 0.2979 0.5835 0.0000
vt 0.5140 0.5830 0.0000
vt 0.5140 0.7862 0.0000
vt 0.2979 0.7862 0.0000
vt 0.2979 0.9974 0.0000
vt 0.5140 0.9895 0.0000
vt 0.2793 1.0012 0.0000
vt 0.0465 0.9937 0.0000
vt 0.5068 0.9937 0.0000
vt 0.3262 0.3788 0.0000
vt 0.3122 0.4588 0.0000
vt 0.2966 0.5099 0.0000
vt 0.2483 0.5748 0.0000
vt 0.0434 0.7862 0.0000
vt 0.0434 0.5978 0.0000
vt 0.0434 0.9895 0.0000
vt 0.2926 0.3880 0.0000
# 83 texture coords

o DTZ3_Duff_blimpShape
g DTZ3_Duff_blimpShape
usemtl DTZ3_Duff_blimpShape_blimp_m
s 1
f 1/1/1 2/2/2 3/3/3 
f 2/2/2 1/1/1 4/4/4 
f 5/5/5 6/5/6 4/5/4 
f 5/5/5 4/5/4 7/5/7 
f 5/5/5 7/5/7 8/5/8 
f 5/5/5 8/5/8 9/5/9 
f 10/4/10 8/2/8 11/3/11 
f 10/4/10 11/3/11 12/1/12 
f 12/6/12 11/6/11 13/6/13 
f 12/6/12 13/6/13 14/6/14 
f 12/6/12 14/6/14 15/6/15 
f 12/6/12 15/6/15 16/6/16 
f 16/1/16 17/4/17 10/2/10 
f 16/1/16 10/2/10 12/3/12 
f 9/5/9 8/5/8 10/5/10 
f 9/5/9 10/5/10 18/5/18 
f 10/5/10 17/5/17 19/5/19 
f 10/5/10 19/5/19 18/5/18 
f 8/4/8 7/2/7 20/3/20 
f 8/4/8 20/3/20 11/1/11 
f 14/7/14 13/8/13 21/9/21 
f 14/7/14 21/9/21 22/10/22 
f 22/10/22 21/9/21 23/11/23 
f 23/11/23 21/9/21 24/12/24 
f 24/13/24 25/13/25 26/13/26 
f 24/13/24 26/13/26 23/13/23 
f 23/13/23 26/13/26 27/13/27 
f 27/13/27 26/13/26 28/13/28 
f 29/14/29 30/15/29 31/16/29 
f 29/14/29 31/16/29 32/17/29 
f 32/17/29 31/16/29 33/18/29 
f 31/16/30 30/15/30 29/14/30 
f 31/16/30 29/14/30 32/17/30 
f 31/16/30 32/17/30 33/18/30 
f 34/19/31 35/13/32 36/13/33 
f 34/19/31 36/13/33 28/13/28 
f 34/19/31 28/13/28 26/19/26 
f 34/19/31 26/19/26 25/19/25 
f 37/17/34 38/18/35 39/16/35 
f 37/17/34 39/16/35 40/14/35 
f 40/14/35 39/16/35 41/15/35 
f 39/16/36 38/18/36 37/17/37 
f 39/16/36 37/17/37 40/14/36 
f 39/16/36 40/14/36 41/15/36 
f 42/19/38 35/13/32 43/19/39 
f 42/19/38 43/19/39 44/19/40 
f 44/19/40 43/19/39 45/19/41 
f 45/19/41 43/19/39 35/13/32 
f 46/19/42 35/13/32 42/19/38 
f 46/19/42 42/19/38 47/19/43 
f 47/19/43 42/19/38 44/19/40 
f 47/19/43 44/19/40 48/19/44 
f 47/19/43 48/19/44 49/19/45 
f 49/19/45 48/19/44 50/19/46 
f 49/19/45 50/19/46 51/19/47 
f 51/19/47 50/19/46 52/19/48 
f 52/19/48 50/19/46 53/19/49 
f 54/20/29 55/20/50 56/20/51 
f 54/21/29 56/22/51 57/23/52 
f 54/20/29 57/20/52 58/20/53 
f 54/20/29 58/20/53 59/20/54 
f 54/20/29 59/20/54 60/20/55 
f 54/20/29 60/20/55 61/20/56 
f 54/21/29 61/24/56 62/25/57 
f 54/20/29 62/20/57 55/20/50 
f 56/26/51 55/27/50 63/28/58 
f 56/26/51 63/28/58 64/29/59 
f 56/26/51 64/29/59 65/30/60 
f 56/26/51 65/30/60 57/21/52 
f 57/21/52 65/30/60 66/31/61 
f 57/21/52 66/31/61 58/32/53 
f 58/32/53 66/31/61 59/33/54 
f 59/33/54 66/31/61 67/34/62 
f 68/35/63 69/36/64 70/37/65 
f 68/35/63 70/37/65 71/38/66 
f 71/38/66 70/37/65 63/39/67 
f 63/39/67 70/37/65 64/40/68 
f 64/40/68 70/37/65 65/41/63 
f 65/41/63 70/37/65 66/42/69 
f 66/42/69 70/37/65 67/43/70 
f 67/43/70 70/37/65 69/44/64 
f 72/45/71 73/46/71 74/47/72 
f 72/45/71 74/47/72 75/48/72 
f 75/48/72 74/47/72 76/49/32 
f 76/49/32 74/47/72 77/50/32 
f 77/50/32 74/47/72 78/51/32 
f 78/51/32 74/47/72 79/52/73 
f 76/49/74 77/50/74 78/51/75 
f 76/49/74 78/51/75 75/48/75 
f 75/48/75 78/51/75 72/45/76 
f 72/45/76 78/51/75 73/46/76 
f 73/46/76 78/51/75 74/47/76 
f 74/47/76 78/51/75 79/52/77 
f 80/20/35 81/20/35 82/20/35 
f 80/20/35 82/20/35 83/20/35 
f 84/20/77 85/20/78 86/20/79 
f 87/20/80 86/20/79 88/20/81 
f 87/20/80 88/20/81 89/20/82 
f 89/20/82 88/20/81 90/20/83 
f 89/20/82 90/20/83 91/20/84 
f 91/20/84 90/20/83 92/20/85 
f 91/20/84 92/20/85 93/20/86 
f 93/20/86 92/20/85 94/20/87 
f 94/20/87 92/20/85 95/20/88 
f 84/20/77 86/20/79 87/20/80 
f 96/20/89 87/20/80 89/20/82 
f 96/20/89 89/20/82 97/20/90 
f 97/20/90 89/20/82 91/20/84 
f 97/20/90 91/20/84 98/20/91 
f 98/20/91 91/20/84 93/20/86 
f 98/20/91 93/20/86 99/20/92 
f 99/20/92 93/20/86 100/20/93 
f 100/20/93 93/20/86 94/20/87 
f 84/20/77 87/20/80 96/20/89 
f 101/20/94 96/20/89 97/20/90 
f 101/20/94 97/20/90 102/20/95 
f 102/20/95 97/20/90 98/20/91 
f 102/20/95 98/20/91 103/20/36 
f 103/20/36 98/20/91 99/20/92 
f 103/20/36 99/20/92 104/20/96 
f 104/20/96 99/20/92 105/20/97 
f 105/20/97 99/20/92 100/20/93 
f 84/20/77 96/20/89 101/20/94 
f 84/20/77 101/20/94 106/20/98 
f 84/20/77 106/20/98 107/20/99 
f 84/20/77 107/20/99 108/20/100 
f 84/20/77 108/20/100 85/20/78 
f 85/20/78 108/20/100 109/20/101 
f 85/20/78 109/20/101 110/20/102 
f 110/20/102 109/20/101 111/20/103 
f 110/20/102 111/20/103 112/20/35 
f 112/20/35 111/20/103 113/20/104 
f 112/20/35 113/20/104 114/20/105 
f 114/20/105 113/20/104 115/20/106 
f 115/20/106 113/20/104 116/20/107 
f 108/20/100 107/20/99 117/20/108 
f 108/20/100 117/20/108 109/20/101 
f 109/20/101 117/20/108 118/20/109 
f 109/20/101 118/20/109 111/20/103 
f 111/20/103 118/20/109 119/20/110 
f 111/20/103 119/20/110 113/20/104 
f 113/20/104 119/20/110 116/20/107 
f 116/20/107 119/20/110 120/20/111 
f 107/20/99 106/20/98 121/20/112 
f 107/20/99 121/20/112 117/20/108 
f 117/20/108 121/20/112 122/20/113 
f 117/20/108 122/20/113 118/20/109 
f 118/20/109 122/20/113 123/20/114 
f 118/20/109 123/20/114 119/20/110 
f 119/20/110 123/20/114 120/20/111 
f 120/20/111 123/20/114 124/20/115 
f 106/20/98 101/20/94 102/20/95 
f 106/20/98 102/20/95 121/20/112 
f 121/20/112 102/20/95 103/20/36 
f 121/20/112 103/20/36 122/20/113 
f 122/20/113 103/20/36 104/20/96 
f 122/20/113 104/20/96 123/20/114 
f 123/20/114 104/20/96 124/20/115 
f 124/20/115 104/20/96 105/20/97 
f 88/20/81 86/20/79 85/20/78 
f 88/20/81 85/20/78 110/20/102 
f 88/20/81 110/20/102 112/20/35 
f 88/20/81 112/20/35 90/20/83 
f 90/20/83 112/20/35 114/20/105 
f 90/20/83 114/20/105 92/20/85 
f 92/20/85 114/20/105 95/20/88 
f 95/20/88 114/20/105 115/20/106 
f 63/53/58 55/54/50 62/26/57 
f 63/53/58 62/26/57 71/55/116 
f 71/55/116 62/26/57 68/56/117 
f 68/56/117 62/26/57 61/21/56 
f 68/56/117 61/21/56 69/57/118 
f 69/57/118 61/21/56 60/32/55 
f 69/57/118 60/32/55 59/33/54 
f 69/57/118 59/33/54 67/58/62 
f 125/59/32 126/60/119 127/61/32 
f 125/59/32 127/61/32 128/62/72 
f 128/62/72 127/61/32 129/63/32 
f 129/63/32 127/61/32 130/64/72 
f 130/64/72 127/61/32 131/65/73 
f 131/65/73 127/61/32 132/66/73 
f 129/63/76 130/64/120 131/65/76 
f 129/63/76 131/65/76 128/62/75 
f 128/62/75 131/65/76 125/59/76 
f 125/59/76 131/65/76 126/60/75 
f 126/60/75 131/65/76 127/61/77 
f 127/61/77 131/65/76 132/66/77 
f 133/20/37 134/20/37 135/20/37 
f 133/20/37 135/20/37 136/20/37 
f 136/20/32 135/20/32 83/20/32 
f 136/20/32 83/20/32 82/20/32 
f 136/20/29 82/20/29 133/20/29 
f 133/20/29 82/20/29 81/20/29 
f 133/20/76 81/20/76 134/20/76 
f 134/20/76 81/20/76 80/20/76 
f 134/20/30 80/20/30 135/20/30 
f 135/20/30 80/20/30 83/20/30 
f 137/20/121 138/20/122 139/20/123 
f 137/20/121 139/20/123 140/20/124 
f 140/20/124 139/20/123 141/20/35 
f 140/20/124 141/20/35 142/20/83 
f 142/20/83 141/20/35 143/20/125 
f 142/20/83 143/20/125 144/20/85 
f 144/20/85 143/20/125 145/20/126 
f 145/20/126 143/20/125 146/20/106 
f 147/20/76 138/20/122 137/20/121 
f 148/20/80 137/20/121 140/20/124 
f 148/20/80 140/20/124 149/20/82 
f 149/20/82 140/20/124 142/20/83 
f 149/20/82 142/20/83 150/20/30 
f 150/20/30 142/20/83 144/20/85 
f 150/20/30 144/20/85 151/20/86 
f 151/20/86 144/20/85 152/20/127 
f 152/20/127 144/20/85 145/20/126 
f 147/20/76 137/20/121 148/20/80 
f 153/20/128 148/20/80 149/20/82 
f 153/20/128 149/20/82 154/20/90 
f 154/20/90 149/20/82 150/20/30 
f 154/20/90 150/20/30 155/20/91 
f 155/20/91 150/20/30 151/20/86 
f 155/20/91 151/20/86 156/20/129 
f 156/20/129 151/20/86 157/20/93 
f 157/20/93 151/20/86 152/20/127 
f 147/20/76 148/20/80 153/20/128 
f 158/20/94 153/20/128 154/20/90 
f 158/20/94 154/20/90 159/20/95 
f 159/20/95 154/20/90 155/20/91 
f 159/20/95 155/20/91 160/20/36 
f 160/20/36 155/20/91 156/20/129 
f 160/20/36 156/20/129 161/20/130 
f 161/20/130 156/20/129 162/20/97 
f 162/20/97 156/20/129 157/20/93 
f 147/20/76 153/20/128 158/20/94 
f 147/20/76 158/20/94 163/20/98 
f 147/20/76 163/20/98 164/20/131 
f 147/20/76 164/20/131 165/20/132 
f 147/20/76 165/20/132 138/20/122 
f 138/20/122 165/20/132 166/20/101 
f 138/20/122 166/20/101 139/20/123 
f 139/20/123 166/20/101 167/20/103 
f 139/20/123 167/20/103 141/20/35 
f 141/20/35 167/20/103 168/20/104 
f 141/20/35 168/20/104 143/20/125 
f 143/20/125 168/20/104 146/20/106 
f 146/20/106 168/20/104 169/20/133 
f 165/20/132 164/20/131 170/20/108 
f 165/20/132 170/20/108 166/20/101 
f 166/20/101 170/20/108 171/20/29 
f 166/20/101 171/20/29 167/20/103 
f 167/20/103 171/20/29 172/20/110 
f 167/20/103 172/20/110 168/20/104 
f 168/20/104 172/20/110 169/20/133 
f 169/20/133 172/20/110 173/20/134 
f 164/20/131 163/20/98 174/20/135 
f 164/20/131 174/20/135 170/20/108 
f 170/20/108 174/20/135 175/20/113 
f 170/20/108 175/20/113 171/20/29 
f 171/20/29 175/20/113 176/20/114 
f 171/20/29 176/20/114 172/20/110 
f 172/20/110 176/20/114 173/20/134 
f 173/20/134 176/20/114 177/20/136 
f 163/20/98 158/20/94 159/20/95 
f 163/20/98 159/20/95 174/20/135 
f 174/20/135 159/20/95 160/20/36 
f 174/20/135 160/20/36 175/20/113 
f 175/20/113 160/20/36 161/20/130 
f 175/20/113 161/20/130 176/20/114 
f 176/20/114 161/20/130 177/20/136 
f 177/20/136 161/20/130 162/20/97 
f 51/67/47 52/68/48 178/69/137 
f 51/67/47 178/69/137 179/70/138 
f 179/70/138 178/69/137 180/71/139 
f 180/71/139 178/69/137 181/72/140 
f 182/3/141 183/1/142 184/4/143 
f 182/3/141 184/4/143 185/2/144 
f 17/5/17 185/5/144 186/5/145 
f 17/5/17 186/5/145 19/5/19 
f 182/1/141 185/4/144 17/2/17 
f 182/1/141 17/2/17 16/3/16 
f 187/73/146 15/74/15 14/7/14 
f 187/73/146 14/7/14 22/10/22 
f 187/73/146 22/10/22 23/11/23 
f 187/73/146 23/11/23 27/75/27 
f 188/13/147 189/13/148 190/13/149 
f 188/13/147 190/13/149 191/13/150 
f 191/13/150 190/13/149 192/13/151 
f 193/17/36 194/18/37 195/16/37 
f 193/17/36 195/16/37 196/14/37 
f 196/14/37 195/16/37 197/15/37 
f 195/16/34 194/76/34 193/77/35 
f 195/16/34 193/77/35 196/78/34 
f 195/16/34 196/78/34 197/79/34 
f 198/16/30 199/18/30 200/17/30 
f 198/16/30 200/17/30 201/14/30 
f 198/16/30 201/14/30 202/15/30 
f 200/17/29 199/18/29 198/16/29 
f 200/17/29 198/16/29 201/14/29 
f 201/14/29 198/16/29 202/15/29 
f 203/80/152 49/81/45 51/67/47 
f 203/80/152 51/67/47 179/70/138 
f 203/80/152 179/70/138 180/71/139 
f 203/80/152 180/71/139 204/82/153 
f 181/13/140 183/13/142 205/13/154 
f 181/13/140 205/13/154 206/13/155 
f 181/13/140 206/13/155 180/13/139 
f 180/13/139 206/13/155 204/13/153 
f 204/13/153 206/13/155 189/13/148 
f 204/13/153 189/13/148 188/13/147 
f 204/13/153 188/13/147 207/19/156 
f 204/13/153 207/19/156 203/19/152 
f 203/19/152 207/19/156 49/19/45 
f 49/19/45 207/19/156 47/19/43 
f 47/19/43 207/19/156 46/19/42 
f 46/19/42 207/19/156 188/13/147 
f 46/19/42 188/13/147 191/13/150 
f 46/19/42 191/13/150 35/13/32 
f 35/13/32 191/13/150 192/13/151 
f 35/13/32 192/13/151 36/13/33 
f 36/13/33 192/13/151 190/13/149 
f 36/13/33 190/13/149 28/13/28 
f 28/13/28 190/13/149 189/13/148 
f 28/13/28 189/13/148 27/13/27 
f 27/13/27 189/13/148 206/13/155 
f 27/13/27 206/13/155 187/13/146 
f 187/13/146 206/13/155 15/13/15 
f 15/13/15 206/13/155 205/13/154 
f 15/13/15 205/13/154 16/13/16 
f 16/13/16 205/13/154 182/13/141 
f 182/13/141 205/13/154 183/13/142 
f 3/13/3 183/13/142 181/13/140 
f 3/13/3 181/13/140 178/13/137 
f 3/13/3 178/13/137 52/19/48 
f 3/13/3 52/19/48 1/13/1 
f 1/13/1 52/19/48 53/19/49 
f 1/13/1 53/19/49 20/13/20 
f 20/13/20 53/19/49 11/13/11 
f 11/13/11 53/19/49 13/19/13 
f 13/19/13 53/19/49 50/19/46 
f 13/19/13 50/19/46 21/19/21 
f 21/19/21 50/19/46 24/19/24 
f 24/19/24 50/19/46 48/19/44 
f 24/19/24 48/19/44 25/19/25 
f 25/19/25 48/19/44 44/19/40 
f 25/19/25 44/19/40 45/19/41 
f 25/19/25 45/19/41 34/19/31 
f 34/19/31 45/19/41 35/13/32 
f 183/3/142 3/1/3 2/4/2 
f 183/3/142 2/4/2 184/2/143 
f 184/5/143 208/5/157 186/5/145 
f 184/5/143 186/5/145 185/5/144 
f 209/83/76 210/83/158 6/83/6 
f 209/83/76 6/83/6 5/83/5 
f 209/83/76 5/83/5 9/83/9 
f 209/83/76 9/83/9 18/83/18 
f 209/83/76 18/83/18 19/83/19 
f 209/83/76 19/83/19 186/83/145 
f 209/83/76 186/83/145 208/83/157 
f 209/83/76 208/83/157 210/83/158 
f 6/5/6 210/5/158 2/5/2 
f 6/5/6 2/5/2 4/5/4 
f 2/5/2 210/5/158 208/5/157 
f 2/5/2 208/5/157 184/5/143 
f 4/2/4 1/3/1 20/1/20 
f 4/2/4 20/1/20 7/4/7 
# 364 faces

