# 3ds Max Wavefront OBJ Exporter v0.99 - (c)2007 guruware
# File Created: 09.05.2024 09:38:16

mtllib BlimpDuff.mtl

#
# object DTZ3_Duff_blimpShape
#

v  -7.2380 14.4214 14.7814
v  -5.4690 22.0556 21.0905
v  -10.3518 22.0556 14.7841
v  -3.7838 17.9240 21.0891
v  0.2853 18.1603 22.0482
v  -2.4269 19.3012 22.0503
v  0.2845 16.2127 21.0858
v  4.3528 17.9240 21.0824
v  2.9975 19.3012 22.0460
v  6.0380 22.0556 21.0811
v  7.7966 14.4214 14.7690
v  10.9104 22.0556 14.7665
v  10.0939 12.0811 6.0353
v  12.6602 22.0556 6.0334
v  10.0939 32.0302 6.0353
v  7.7966 29.6898 14.7690
v  4.3528 26.1872 21.0824
v  4.1210 22.0556 22.0450
v  2.9975 24.8100 22.0460
v  0.2793 11.2592 14.7753
v  10.8960 11.2592 -2.6530
v  13.2260 22.0556 -2.6552
v  12.6454 22.0556 -12.0530
v  10.0791 12.0811 -12.0508
v  7.7673 14.4214 -20.9234
v  10.8810 22.0556 -20.9259
v  10.0791 32.0302 -12.0508
v  7.7673 29.6898 -20.9234
v  9.5380 22.0688 -24.3344
v  7.4625 22.0688 -22.4443
v  0.2170 22.0688 -30.8098
v  11.1723 22.0688 -27.0422
v  11.9245 22.0688 -30.7566
v  5.9979 22.0556 -27.7022
v  0.2423 22.0556 -30.2821
v  4.3127 26.1872 -27.7010
v  0.2450 11.1475 -26.9726
v  0.2420 10.3921 -30.6861
v  0.2419 22.0996 -30.7491
v  0.2473 12.7840 -24.2659
v  0.2488 14.8611 -22.3776
v  -3.8239 17.9240 -27.6941
v  0.2444 16.2127 -27.6975
v  0.2500 11.2592 -20.9173
v  4.3127 17.9240 -27.7010
v  -5.5091 22.0556 -27.6928
v  -7.2673 14.4214 -20.9111
v  0.2573 7.9495 -12.0428
v  -9.5645 12.0811 -12.0350
v  0.2650 6.7872 -2.6445
v  -10.3661 11.2592 -2.6357
v  -9.5496 12.0811 6.0516
v  0.2721 7.9495 6.0434
v  0.2676 3.1085 0.5380
v  0.2710 3.1085 4.6324
v  -1.9196 3.1085 3.4350
v  -2.8289 3.1085 0.5404
v  -1.9243 3.1085 -2.3555
v  0.2643 3.1085 -3.5565
v  2.4548 3.1085 -2.3590
v  3.3642 3.1085 0.5355
v  2.4596 3.1085 3.4314
v  0.2722 8.4664 6.1269
v  -2.7179 9.1476 4.4924
v  -3.9592 9.1476 0.5415
v  -2.7244 8.3023 -3.4115
v  0.2631 8.2623 -5.0509
v  4.4944 9.1476 0.5345
v  3.2532 8.3023 -3.4164
v  0.2676 9.1476 0.5380
v  3.2596 9.1476 4.4876
v  7.4853 3.2354 3.6886
v  7.4853 2.9738 3.6886
v  7.4817 2.9738 -0.8119
v  7.4817 3.2354 -0.8119
v  7.4053 3.2327 4.4908
v  8.2682 3.2327 4.4901
v  8.0155 3.8428 4.4901
v  7.4053 4.0956 4.4908
v  8.5556 4.3842 2.9637
v  7.4041 4.8611 2.9644
v  8.7348 4.5646 1.4373
v  7.4029 5.1163 1.4383
v  8.5531 4.3842 -0.0889
v  7.4016 4.8611 -0.0878
v  7.4004 4.2722 -1.6141
v  8.1354 3.9677 -1.6148
v  6.7953 3.8428 4.4913
v  6.2527 4.3842 2.9655
v  6.0709 4.5646 1.4394
v  6.2501 4.3842 -0.0869
v  6.6653 3.9677 -1.6134
v  6.5425 3.2327 4.4916
v  5.7757 3.2327 2.9659
v  5.5192 3.2327 1.4399
v  5.7733 3.2327 -0.0866
v  6.3608 3.2327 -1.6132
v  6.7953 2.6226 4.4913
v  7.4053 2.3698 4.4908
v  8.0155 2.6226 4.4901
v  8.5556 2.0812 2.9637
v  9.0326 3.2327 2.9634
v  8.7348 1.9008 1.4373
v  9.2865 3.2327 1.4368
v  8.5531 2.0812 -0.0889
v  9.0300 3.2327 -0.0892
v  8.4399 3.2327 -1.6150
v  8.1354 2.4976 -1.6148
v  7.4041 1.6043 2.9644
v  7.4029 1.3491 1.4383
v  7.4016 1.6043 -0.0878
v  7.4004 2.1932 -1.6141
v  6.2527 2.0812 2.9655
v  6.0709 1.9008 1.4394
v  6.2501 2.0812 -0.0869
v  6.6653 2.4976 -1.6134
v  -6.3656 2.9738 3.6999
v  -6.3656 3.2354 3.6999
v  -6.3692 3.2354 -0.8006
v  -6.3692 2.9738 -0.8006
v  -5.6287 3.8428 4.5015
v  -5.3759 3.2327 4.5012
v  -4.6116 3.2327 2.9745
v  -5.0886 4.3842 2.9749
v  -4.3576 3.2327 1.4479
v  -4.9094 4.5646 1.4484
v  -4.6141 3.2327 -0.0781
v  -5.0910 4.3842 -0.0776
v  -5.5087 3.9678 -1.6035
v  -5.2042 3.2327 -1.6037
v  -6.2387 3.2327 4.5021
v  -6.2387 4.0956 4.5021
v  -6.2401 4.8611 2.9758
v  -6.2413 5.1163 1.4495
v  -6.2425 4.8611 -0.0767
v  -6.2438 4.2722 -1.6028
v  -6.8489 3.8428 4.5025
v  -7.3915 4.3842 2.9766
v  -7.5732 4.5646 1.4505
v  -7.3941 4.3842 -0.0757
v  -6.9788 3.9678 -1.6023
v  -7.1016 3.2327 4.5027
v  -7.8684 3.2327 2.9770
v  -8.1249 3.2327 1.4512
v  -7.8709 3.2327 -0.0752
v  -7.2833 3.2327 -1.6021
v  -6.8489 2.6226 4.5025
v  -6.2387 2.3698 4.5021
v  -5.6287 2.6226 4.5015
v  -5.0886 2.0812 2.9749
v  -4.9094 1.9008 1.4484
v  -5.0910 2.0812 -0.0776
v  -5.5087 2.4976 -1.6035
v  -6.2401 1.6043 2.9758
v  -6.2413 1.3491 1.4495
v  -6.2425 1.6043 -0.0767
v  -6.2438 2.1932 -1.6028
v  -7.3915 2.0812 2.9766
v  -7.5732 1.9008 1.4505
v  -7.3941 2.0812 -0.0757
v  -6.9788 2.4976 -1.6023
v  -12.1160 22.0556 6.0537
v  -12.6960 22.0556 -2.6338
v  -10.3661 32.8520 -2.6357
v  -9.5496 32.0302 6.0516
v  0.2793 32.8520 14.7753
v  -7.2380 29.6898 14.7814
v  -3.7838 26.1872 21.0891
v  0.2845 27.8986 21.0858
v  0.2853 25.9509 22.0482
v  10.8960 32.8520 -2.6530
v  -7.2673 29.6898 -20.9111
v  0.2573 36.1617 -12.0428
v  0.2500 32.8520 -20.9173
v  -3.8239 26.1872 -27.6941
v  0.2444 27.8986 -27.6975
v  0.2450 32.9287 -26.9726
v  0.2420 33.6840 -30.6861
v  0.2419 21.9765 -30.7491
v  0.2473 31.2922 -24.2659
v  0.2488 29.2150 -22.3776
v  0.2037 22.0688 -30.8099
v  -11.5038 22.0688 -30.7375
v  -10.7455 22.0688 -27.0243
v  -9.1067 22.0688 -24.3190
v  -7.0281 22.0688 -22.4324
v  -12.1309 22.0556 -12.0328
v  -9.5645 32.0302 -12.0350
v  0.2721 36.1617 6.0434
v  0.2650 37.3240 -2.6445
v  -10.3810 22.0556 -20.9084
v  -2.4269 24.8100 22.0503
v  0.2862 22.0556 23.1295
v  -3.5504 22.0556 22.0512
# 194 vertices

vn -0.6132 -0.6192 0.4905
vn -0.6322 0.0000 0.7748
vn -0.9195 0.0000 0.3931
vn -0.3848 -0.5021 0.7745
vn 0.0007 -0.3856 0.9227
vn -0.2934 -0.2380 0.9259
vn 0.0006 -0.6274 0.7787
vn 0.3861 -0.5022 0.7738
vn 0.2949 -0.2381 0.9254
vn 0.6334 0.0000 0.7738
vn 0.6140 -0.6192 0.4894
vn 0.9201 0.0000 0.3916
vn 0.7233 -0.6540 0.2216
vn 0.9921 0.0000 0.1258
vn 0.7233 0.6540 0.2216
vn 0.6140 0.6192 0.4894
vn 0.3861 0.5022 0.7738
vn 0.3618 0.0000 0.9322
vn 0.2949 0.2381 0.9254
vn 0.0004 -0.8440 0.5364
vn 0.8608 -0.5089 0.0034
vn 1.0000 0.0000 0.0017
vn 0.9925 0.0000 -0.1219
vn 0.7241 -0.6552 -0.2157
vn 0.6210 -0.6252 -0.4728
vn 0.9250 0.0000 -0.3799
vn 0.7241 0.6552 -0.2157
vn 0.6210 0.6252 -0.4728
vn 0.0000 -1.0000 -0.0000
vn 0.0000 1.0000 -0.0000
vn 0.6952 0.0000 -0.7189
vn -0.0008 0.0000 -1.0000
vn 0.4247 0.5156 -0.7442
vn 1.0000 0.0000 -0.0008
vn -1.0000 0.0000 0.0008
vn -0.4259 -0.5156 -0.7435
vn -0.0007 -0.6231 -0.7821
vn -0.0004 -0.8572 -0.5150
vn 0.4247 -0.5156 -0.7442
vn -0.6963 0.0000 -0.7177
vn -0.6218 -0.6252 -0.4718
vn -0.0002 -0.9612 -0.2760
vn -0.7244 -0.6552 -0.2145
vn 0.0000 -1.0000 0.0050
vn -0.8608 -0.5089 0.0049
vn -0.7229 -0.6540 0.2228
vn 0.0002 -0.9593 0.2825
vn 0.0005 -0.8237 0.5670
vn -0.6194 -0.6091 0.4952
vn -0.7396 -0.6698 -0.0669
vn -0.4604 -0.8045 -0.3753
vn -0.0006 -0.6595 -0.7517
vn 0.4598 -0.8045 -0.3760
vn 0.7394 -0.6698 -0.0681
vn 0.6202 -0.6091 0.4942
vn 0.0008 -0.2581 0.9661
vn -0.7703 -0.2074 0.6030
vn -0.9765 -0.1828 0.1145
vn -0.7599 -0.2350 -0.6061
vn -0.0008 -0.2785 -0.9604
vn -0.0001 0.9945 -0.1052
vn 0.0360 0.9825 -0.1828
vn -0.0001 0.9981 -0.0622
vn -0.0793 0.9950 0.0601
vn 0.0001 0.9927 0.1210
vn 0.0794 0.9950 0.0600
vn -0.0363 0.9825 -0.1827
vn -0.0001 0.9877 -0.1565
vn 0.0009 0.0000 1.0000
vn 0.6739 0.0000 0.7389
vn 0.3601 0.3594 0.8609
vn 0.0847 0.6084 0.7891
vn 0.7076 0.6247 0.3303
vn 0.0058 0.9504 0.3110
vn 0.7071 0.7071 -0.0006
vn 0.5825 0.7694 -0.2623
vn -0.1322 0.9560 -0.2618
vn 0.1275 0.9253 -0.3571
vn 0.7443 0.5640 -0.3576
vn -0.3701 0.4897 0.7894
vn -0.6678 0.6760 0.3116
vn -0.7071 0.7071 0.0006
vn -0.7696 0.5827 -0.2613
vn -0.5642 0.7446 -0.3566
vn -0.6078 0.0840 0.7896
vn -0.9501 0.0056 0.3118
vn -0.9562 -0.1320 -0.2611
vn -0.9256 0.1277 -0.3563
vn -0.4890 -0.3709 0.7895
vn -0.0833 -0.6085 0.7892
vn 0.3715 -0.4897 0.7888
vn 0.6683 -0.6760 0.3105
vn 0.9564 -0.0819 0.2805
vn 0.7071 -0.7071 -0.0006
vn 0.7691 -0.5827 -0.2625
vn 0.9558 0.1320 -0.2626
vn 0.9250 -0.1278 -0.3578
vn 0.5637 -0.7447 -0.3575
vn -0.0054 -0.9504 0.3110
vn 0.1318 -0.9560 -0.2620
vn -0.1281 -0.9253 -0.3569
vn -0.6757 -0.6681 0.3116
vn -0.7071 -0.7071 0.0006
vn -0.5829 -0.7693 -0.2614
vn -0.7449 -0.5640 -0.3564
vn 0.7713 -0.2074 0.6018
vn 0.9767 -0.1828 0.1129
vn 0.7589 -0.2350 -0.6074
vn 0.0008 0.0000 1.0000
vn 0.4903 0.3708 0.7887
vn 0.6091 -0.0840 0.7886
vn 0.9506 -0.0056 0.3103
vn 0.6762 0.6681 0.3105
vn 0.9558 0.1320 -0.2627
vn 0.7443 0.5640 -0.3577
vn 0.1275 0.9253 -0.3572
vn -0.3702 0.4897 0.7894
vn -0.7696 0.5826 -0.2612
vn -0.9563 -0.1320 -0.2611
vn -0.0834 -0.6085 0.7892
vn 0.3715 -0.4896 0.7888
vn 0.5637 -0.7446 -0.3575
vn -0.1280 -0.9253 -0.3570
vn -0.6757 -0.6680 0.3116
vn -0.7449 -0.5639 -0.3564
vn -0.9918 0.0000 0.1274
vn -1.0000 0.0000 0.0033
vn -0.8608 0.5089 0.0049
vn -0.7229 0.6540 0.2228
vn 0.0004 0.8440 0.5364
vn -0.6132 0.6192 0.4905
vn -0.3848 0.5021 0.7745
vn 0.0006 0.6274 0.7787
vn 0.0007 0.3856 0.9227
vn 0.8608 0.5089 0.0034
vn -0.6218 0.6252 -0.4717
vn -0.0002 0.9612 -0.2760
vn -0.0004 0.8572 -0.5150
vn -0.4259 0.5156 -0.7435
vn -0.0007 0.6231 -0.7821
vn -0.9927 0.0000 -0.1202
vn -0.7244 0.6552 -0.2145
vn 0.0002 0.9593 0.2825
vn 0.0000 1.0000 0.0050
vn -0.9257 0.0000 -0.3784
vn -0.2934 0.2380 0.9259
vn -0.3603 0.0000 0.9328
# 147 vertex normals

vt 0.9537 0.5562 0.0000
vt 0.3667 0.4162 0.0000
vt 0.9537 0.3804 0.0000
vt 0.3667 0.5104 0.0000
vt 0.1123 0.4676 0.0000
vt 0.0560 0.9542 0.0000
vt 0.0465 0.8004 0.0000
vt 0.0465 0.6109 0.0000
vt 0.2793 0.5829 0.0000
vt 0.2793 0.8004 0.0000
vt 0.5068 0.8004 0.0000
vt 0.5068 0.6109 0.0000
vt 0.4846 0.6342 0.0000
vt 0.3055 0.5066 0.0000
vt 0.2550 0.5803 0.0000
vt -0.0012 0.3777 0.0000
vt 0.3199 0.4555 0.0000
vt 0.3307 0.3777 0.0000
vt 0.4846 0.6243 0.0000
vt 0.4432 0.3807 0.0000
vt 0.5000 0.0000 0.0000
vt 0.5000 0.1592 0.0000
vt 0.3750 0.1592 0.0000
vt 0.8750 0.1592 0.0000
vt 0.7500 0.1592 0.0000
vt 0.7590 0.0000 0.0000
vt 0.9944 0.0000 0.0000
vt 0.9944 0.3739 0.0000
vt 0.8536 0.4175 0.0000
vt 0.5000 0.4175 0.0000
vt 0.1464 0.3486 0.0000
vt 0.2410 0.0000 0.0000
vt 0.0119 0.0000 0.0000
vt 0.0119 0.3739 0.0000
vt 0.8750 0.4775 0.0000
vt 1.0000 0.4775 0.0000
vt 0.5000 0.6366 0.0000
vt 0.7500 0.4775 0.0000
vt 0.6250 0.4775 0.0000
vt 0.5000 0.4775 0.0000
vt 0.3750 0.4775 0.0000
vt 0.2500 0.4775 0.0000
vt 0.1250 0.4775 0.0000
vt 0.0000 0.4775 0.0000
vt 0.9917 0.3749 0.0000
vt 0.9917 0.0000 0.0000
vt 0.8536 0.4185 0.0000
vt 0.5000 0.4185 0.0000
vt 0.1464 0.3497 0.0000
vt 0.0119 0.3749 0.0000
vt 0.2979 0.5835 0.0000
vt 0.5140 0.5830 0.0000
vt 0.5140 0.7862 0.0000
vt 0.2979 0.7862 0.0000
vt 0.2979 0.9974 0.0000
vt 0.5140 0.9895 0.0000
vt 0.2793 1.0012 0.0000
vt 0.0465 0.9937 0.0000
vt 0.5068 0.9937 0.0000
vt 0.3262 0.3788 0.0000
vt 0.3122 0.4588 0.0000
vt 0.2966 0.5099 0.0000
vt 0.2483 0.5748 0.0000
vt 0.0434 0.7862 0.0000
vt 0.0434 0.5978 0.0000
vt 0.0434 0.9895 0.0000
vt 0.2926 0.3880 0.0000
# 67 texture coords

o DTZ3_Duff_blimpShape
g DTZ3_Duff_blimpShape
usemtl BlimpDuff_DTZ3_Duff_blimpShape_blimp_m
s 1
f 1/1/1 2/2/2 3/3/3 
f 2/2/2 1/1/1 4/4/4 
f 5/5/5 6/5/6 4/5/4 
f 5/5/5 4/5/4 7/5/7 
f 5/5/5 7/5/7 8/5/8 
f 5/5/5 8/5/8 9/5/9 
f 10/4/10 8/2/8 11/3/11 
f 10/4/10 11/3/11 12/1/12 
f 12/6/12 11/6/11 13/6/13 
f 12/6/12 13/6/13 14/6/14 
f 12/6/12 14/6/14 15/6/15 
f 12/6/12 15/6/15 16/6/16 
f 16/1/16 17/4/17 10/2/10 
f 16/1/16 10/2/10 12/3/12 
f 9/5/9 8/5/8 10/5/10 
f 9/5/9 10/5/10 18/5/18 
f 10/5/10 17/5/17 19/5/19 
f 10/5/10 19/5/19 18/5/18 
f 8/4/8 7/2/7 20/3/20 
f 8/4/8 20/3/20 11/1/11 
f 14/7/14 13/8/13 21/9/21 
f 14/7/14 21/9/21 22/10/22 
f 22/10/22 21/9/21 23/11/23 
f 23/11/23 21/9/21 24/12/24 
f 24/13/24 25/13/25 26/13/26 
f 24/13/24 26/13/26 23/13/23 
f 23/13/23 26/13/26 27/13/27 
f 27/13/27 26/13/26 28/13/28 
f 29/14/29 30/15/29 31/16/29 
f 29/14/29 31/16/29 32/17/29 
f 32/17/29 31/16/29 33/18/29 
f 31/16/30 30/15/30 29/14/30 
f 31/16/30 29/14/30 32/17/30 
f 31/16/30 32/17/30 33/18/30 
f 34/19/31 35/13/32 36/13/33 
f 34/19/31 36/13/33 28/13/28 
f 34/19/31 28/13/28 26/19/26 
f 34/19/31 26/19/26 25/19/25 
f 37/17/34 38/18/34 39/16/34 
f 37/17/34 39/16/34 40/14/34 
f 40/14/34 39/16/34 41/15/34 
f 39/16/35 38/18/35 37/17/35 
f 39/16/35 37/17/35 40/14/35 
f 39/16/35 40/14/35 41/15/35 
f 42/19/36 35/13/32 43/19/37 
f 42/19/36 43/19/37 44/19/38 
f 44/19/38 43/19/37 45/19/39 
f 45/19/39 43/19/37 35/13/32 
f 46/19/40 35/13/32 42/19/36 
f 46/19/40 42/19/36 47/19/41 
f 47/19/41 42/19/36 44/19/38 
f 47/19/41 44/19/38 48/19/42 
f 47/19/41 48/19/42 49/19/43 
f 49/19/43 48/19/42 50/19/44 
f 49/19/43 50/19/44 51/19/45 
f 51/19/45 50/19/44 52/19/46 
f 52/19/46 50/19/44 53/19/47 
f 54/20/29 55/20/48 56/20/49 
f 54/21/29 56/22/49 57/23/50 
f 54/20/29 57/20/50 58/20/51 
f 54/20/29 58/20/51 59/20/52 
f 54/20/29 59/20/52 60/20/53 
f 54/20/29 60/20/53 61/20/54 
f 54/21/29 61/24/54 62/25/55 
f 54/20/29 62/20/55 55/20/48 
f 56/26/49 55/27/48 63/28/56 
f 56/26/49 63/28/56 64/29/57 
f 56/26/49 64/29/57 65/30/58 
f 56/26/49 65/30/58 57/21/50 
f 57/21/50 65/30/58 66/31/59 
f 57/21/50 66/31/59 58/32/51 
f 58/32/51 66/31/59 59/33/52 
f 59/33/52 66/31/59 67/34/60 
f 68/35/61 69/36/62 70/37/63 
f 68/35/61 70/37/63 71/38/64 
f 71/38/64 70/37/63 63/39/65 
f 63/39/65 70/37/63 64/40/66 
f 64/40/66 70/37/63 65/41/61 
f 65/41/61 70/37/63 66/42/67 
f 66/42/67 70/37/63 67/43/68 
f 67/43/68 70/37/63 69/44/62 
f 72/20/34 73/20/34 74/20/34 
f 72/20/34 74/20/34 75/20/34 
f 76/20/69 77/20/70 78/20/71 
f 79/20/72 78/20/71 80/20/73 
f 79/20/72 80/20/73 81/20/74 
f 81/20/74 80/20/73 82/20/75 
f 81/20/74 82/20/75 83/20/30 
f 83/20/30 82/20/75 84/20/76 
f 83/20/30 84/20/76 85/20/77 
f 85/20/77 84/20/76 86/20/78 
f 86/20/78 84/20/76 87/20/79 
f 76/20/69 78/20/71 79/20/72 
f 88/20/80 79/20/72 81/20/74 
f 88/20/80 81/20/74 89/20/81 
f 89/20/81 81/20/74 83/20/30 
f 89/20/81 83/20/30 90/20/82 
f 90/20/82 83/20/30 85/20/77 
f 90/20/82 85/20/77 91/20/83 
f 91/20/83 85/20/77 92/20/84 
f 92/20/84 85/20/77 86/20/78 
f 76/20/69 79/20/72 88/20/80 
f 93/20/85 88/20/80 89/20/81 
f 93/20/85 89/20/81 94/20/86 
f 94/20/86 89/20/81 90/20/82 
f 94/20/86 90/20/82 95/20/35 
f 95/20/35 90/20/82 91/20/83 
f 95/20/35 91/20/83 96/20/87 
f 96/20/87 91/20/83 97/20/88 
f 97/20/88 91/20/83 92/20/84 
f 76/20/69 88/20/80 93/20/85 
f 76/20/69 93/20/85 98/20/89 
f 76/20/69 98/20/89 99/20/90 
f 76/20/69 99/20/90 100/20/91 
f 76/20/69 100/20/91 77/20/70 
f 77/20/70 100/20/91 101/20/92 
f 77/20/70 101/20/92 102/20/93 
f 102/20/93 101/20/92 103/20/94 
f 102/20/93 103/20/94 104/20/34 
f 104/20/34 103/20/94 105/20/95 
f 104/20/34 105/20/95 106/20/96 
f 106/20/96 105/20/95 107/20/97 
f 107/20/97 105/20/95 108/20/98 
f 100/20/91 99/20/90 109/20/99 
f 100/20/91 109/20/99 101/20/92 
f 101/20/92 109/20/99 110/20/29 
f 101/20/92 110/20/29 103/20/94 
f 103/20/94 110/20/29 111/20/100 
f 103/20/94 111/20/100 105/20/95 
f 105/20/95 111/20/100 108/20/98 
f 108/20/98 111/20/100 112/20/101 
f 99/20/90 98/20/89 113/20/102 
f 99/20/90 113/20/102 109/20/99 
f 109/20/99 113/20/102 114/20/103 
f 109/20/99 114/20/103 110/20/29 
f 110/20/29 114/20/103 115/20/104 
f 110/20/29 115/20/104 111/20/100 
f 111/20/100 115/20/104 112/20/101 
f 112/20/101 115/20/104 116/20/105 
f 98/20/89 93/20/85 94/20/86 
f 98/20/89 94/20/86 113/20/102 
f 113/20/102 94/20/86 95/20/35 
f 113/20/102 95/20/35 114/20/103 
f 114/20/103 95/20/35 96/20/87 
f 114/20/103 96/20/87 115/20/104 
f 115/20/104 96/20/87 116/20/105 
f 116/20/105 96/20/87 97/20/88 
f 80/20/73 78/20/71 77/20/70 
f 80/20/73 77/20/70 102/20/93 
f 80/20/73 102/20/93 104/20/34 
f 80/20/73 104/20/34 82/20/75 
f 82/20/75 104/20/34 106/20/96 
f 82/20/75 106/20/96 84/20/76 
f 84/20/76 106/20/96 87/20/79 
f 87/20/79 106/20/96 107/20/97 
f 63/45/56 55/46/48 62/26/55 
f 63/45/56 62/26/55 71/47/106 
f 71/47/106 62/26/55 68/48/107 
f 68/48/107 62/26/55 61/21/54 
f 68/48/107 61/21/54 69/49/108 
f 69/49/108 61/21/54 60/32/53 
f 69/49/108 60/32/53 59/33/52 
f 69/49/108 59/33/52 67/50/60 
f 117/20/35 118/20/35 119/20/35 
f 117/20/35 119/20/35 120/20/35 
f 120/20/32 119/20/32 75/20/32 
f 120/20/32 75/20/32 74/20/32 
f 120/20/29 74/20/29 117/20/29 
f 117/20/29 74/20/29 73/20/29 
f 117/20/109 73/20/109 118/20/109 
f 118/20/109 73/20/109 72/20/109 
f 118/20/30 72/20/30 119/20/30 
f 119/20/30 72/20/30 75/20/30 
f 121/20/110 122/20/111 123/20/112 
f 121/20/110 123/20/112 124/20/113 
f 124/20/113 123/20/112 125/20/34 
f 124/20/113 125/20/34 126/20/75 
f 126/20/75 125/20/34 127/20/114 
f 126/20/75 127/20/114 128/20/76 
f 128/20/76 127/20/114 129/20/115 
f 129/20/115 127/20/114 130/20/97 
f 131/20/109 122/20/111 121/20/110 
f 132/20/72 121/20/110 124/20/113 
f 132/20/72 124/20/113 133/20/74 
f 133/20/74 124/20/113 126/20/75 
f 133/20/74 126/20/75 134/20/30 
f 134/20/30 126/20/75 128/20/76 
f 134/20/30 128/20/76 135/20/77 
f 135/20/77 128/20/76 136/20/116 
f 136/20/116 128/20/76 129/20/115 
f 131/20/109 121/20/110 132/20/72 
f 137/20/117 132/20/72 133/20/74 
f 137/20/117 133/20/74 138/20/81 
f 138/20/81 133/20/74 134/20/30 
f 138/20/81 134/20/30 139/20/82 
f 139/20/82 134/20/30 135/20/77 
f 139/20/82 135/20/77 140/20/118 
f 140/20/118 135/20/77 141/20/84 
f 141/20/84 135/20/77 136/20/116 
f 131/20/109 132/20/72 137/20/117 
f 142/20/85 137/20/117 138/20/81 
f 142/20/85 138/20/81 143/20/86 
f 143/20/86 138/20/81 139/20/82 
f 143/20/86 139/20/82 144/20/35 
f 144/20/35 139/20/82 140/20/118 
f 144/20/35 140/20/118 145/20/119 
f 145/20/119 140/20/118 146/20/88 
f 146/20/88 140/20/118 141/20/84 
f 131/20/109 137/20/117 142/20/85 
f 131/20/109 142/20/85 147/20/89 
f 131/20/109 147/20/89 148/20/120 
f 131/20/109 148/20/120 149/20/121 
f 131/20/109 149/20/121 122/20/111 
f 122/20/111 149/20/121 150/20/92 
f 122/20/111 150/20/92 123/20/112 
f 123/20/112 150/20/92 151/20/94 
f 123/20/112 151/20/94 125/20/34 
f 125/20/34 151/20/94 152/20/95 
f 125/20/34 152/20/95 127/20/114 
f 127/20/114 152/20/95 130/20/97 
f 130/20/97 152/20/95 153/20/122 
f 149/20/121 148/20/120 154/20/99 
f 149/20/121 154/20/99 150/20/92 
f 150/20/92 154/20/99 155/20/29 
f 150/20/92 155/20/29 151/20/94 
f 151/20/94 155/20/29 156/20/100 
f 151/20/94 156/20/100 152/20/95 
f 152/20/95 156/20/100 153/20/122 
f 153/20/122 156/20/100 157/20/123 
f 148/20/120 147/20/89 158/20/124 
f 148/20/120 158/20/124 154/20/99 
f 154/20/99 158/20/124 159/20/103 
f 154/20/99 159/20/103 155/20/29 
f 155/20/29 159/20/103 160/20/104 
f 155/20/29 160/20/104 156/20/100 
f 156/20/100 160/20/104 157/20/123 
f 157/20/123 160/20/104 161/20/125 
f 147/20/89 142/20/85 143/20/86 
f 147/20/89 143/20/86 158/20/124 
f 158/20/124 143/20/86 144/20/35 
f 158/20/124 144/20/35 159/20/103 
f 159/20/103 144/20/35 145/20/119 
f 159/20/103 145/20/119 160/20/104 
f 160/20/104 145/20/119 161/20/125 
f 161/20/125 145/20/119 146/20/88 
f 51/51/45 52/52/46 162/53/126 
f 51/51/45 162/53/126 163/54/127 
f 163/54/127 162/53/126 164/55/128 
f 164/55/128 162/53/126 165/56/129 
f 166/3/130 167/1/131 168/4/132 
f 166/3/130 168/4/132 169/2/133 
f 17/5/17 169/5/133 170/5/134 
f 17/5/17 170/5/134 19/5/19 
f 166/1/130 169/4/133 17/2/17 
f 166/1/130 17/2/17 16/3/16 
f 171/57/135 15/58/15 14/7/14 
f 171/57/135 14/7/14 22/10/22 
f 171/57/135 22/10/22 23/11/23 
f 171/57/135 23/11/23 27/59/27 
f 172/13/136 173/13/137 174/13/138 
f 172/13/136 174/13/138 175/13/139 
f 175/13/139 174/13/138 176/13/140 
f 177/17/35 178/18/35 179/16/35 
f 177/17/35 179/16/35 180/14/35 
f 180/14/35 179/16/35 181/15/35 
f 179/16/34 178/60/34 177/61/34 
f 179/16/34 177/61/34 180/62/34 
f 179/16/34 180/62/34 181/63/34 
f 182/16/30 183/18/30 184/17/30 
f 182/16/30 184/17/30 185/14/30 
f 182/16/30 185/14/30 186/15/30 
f 184/17/29 183/18/29 182/16/29 
f 184/17/29 182/16/29 185/14/29 
f 185/14/29 182/16/29 186/15/29 
f 187/64/141 49/65/43 51/51/45 
f 187/64/141 51/51/45 163/54/127 
f 187/64/141 163/54/127 164/55/128 
f 187/64/141 164/55/128 188/66/142 
f 165/13/129 167/13/131 189/13/143 
f 165/13/129 189/13/143 190/13/144 
f 165/13/129 190/13/144 164/13/128 
f 164/13/128 190/13/144 188/13/142 
f 188/13/142 190/13/144 173/13/137 
f 188/13/142 173/13/137 172/13/136 
f 188/13/142 172/13/136 191/19/145 
f 188/13/142 191/19/145 187/19/141 
f 187/19/141 191/19/145 49/19/43 
f 49/19/43 191/19/145 47/19/41 
f 47/19/41 191/19/145 46/19/40 
f 46/19/40 191/19/145 172/13/136 
f 46/19/40 172/13/136 175/13/139 
f 46/19/40 175/13/139 35/13/32 
f 35/13/32 175/13/139 176/13/140 
f 35/13/32 176/13/140 36/13/33 
f 36/13/33 176/13/140 174/13/138 
f 36/13/33 174/13/138 28/13/28 
f 28/13/28 174/13/138 173/13/137 
f 28/13/28 173/13/137 27/13/27 
f 27/13/27 173/13/137 190/13/144 
f 27/13/27 190/13/144 171/13/135 
f 171/13/135 190/13/144 15/13/15 
f 15/13/15 190/13/144 189/13/143 
f 15/13/15 189/13/143 16/13/16 
f 16/13/16 189/13/143 166/13/130 
f 166/13/130 189/13/143 167/13/131 
f 3/13/3 167/13/131 165/13/129 
f 3/13/3 165/13/129 162/13/126 
f 3/13/3 162/13/126 52/19/46 
f 3/13/3 52/19/46 1/13/1 
f 1/13/1 52/19/46 53/19/47 
f 1/13/1 53/19/47 20/13/20 
f 20/13/20 53/19/47 11/13/11 
f 11/13/11 53/19/47 13/19/13 
f 13/19/13 53/19/47 50/19/44 
f 13/19/13 50/19/44 21/19/21 
f 21/19/21 50/19/44 24/19/24 
f 24/19/24 50/19/44 48/19/42 
f 24/19/24 48/19/42 25/19/25 
f 25/19/25 48/19/42 44/19/38 
f 25/19/25 44/19/38 45/19/39 
f 25/19/25 45/19/39 34/19/31 
f 34/19/31 45/19/39 35/13/32 
f 167/3/131 3/1/3 2/4/2 
f 167/3/131 2/4/2 168/2/132 
f 168/5/132 192/5/146 170/5/134 
f 168/5/132 170/5/134 169/5/133 
f 193/67/109 194/67/147 6/67/6 
f 193/67/109 6/67/6 5/67/5 
f 193/67/109 5/67/5 9/67/9 
f 193/67/109 9/67/9 18/67/18 
f 193/67/109 18/67/18 19/67/19 
f 193/67/109 19/67/19 170/67/134 
f 193/67/109 170/67/134 192/67/146 
f 193/67/109 192/67/146 194/67/147 
f 6/5/6 194/5/147 2/5/2 
f 6/5/6 2/5/2 4/5/4 
f 2/5/2 194/5/147 192/5/146 
f 2/5/2 192/5/146 168/5/132 
f 4/2/4 1/3/1 20/1/20 
f 4/2/4 20/1/20 7/4/7 
# 340 faces

