# 3ds Max Wavefront OBJ Exporter v0.99 - (c)2007 guruware
# File Created: 20.04.2024 14:34:34

mtllib Lampara01.mtl

#
# object Lampara01
#

v  0.4647 9.1820 0.5809
v  0.4558 9.0700 0.5698
v  0.5698 9.0700 0.5698
v  0.5809 9.1820 0.5809
v  0.4647 9.1820 -0.5809
v  0.5809 9.1820 -0.5809
v  0.5698 9.0700 -0.5698
v  0.4558 9.0700 -0.5698
v  0.4864 -0.6333 -0.4986
v  0.6080 -0.6333 -0.4986
v  0.6080 -0.6333 0.4864
v  0.4864 -0.6333 0.4864
v  0.5698 9.0700 0.4558
v  0.5698 9.0700 -0.4672
v  0.5809 9.1820 -0.4763
v  0.5809 9.1820 0.4647
v  -0.5698 9.0700 -0.4672
v  -0.5698 9.0700 0.4558
v  -0.5809 9.1820 0.4647
v  -0.5809 9.1820 -0.4763
v  0.4864 -0.4210 0.6080
v  0.6080 -0.4210 0.6080
v  0.1913 -0.2225 0.1913
v  0.1530 -0.2225 0.1913
v  0.6080 -0.4210 0.4864
v  0.6080 -0.4210 -0.4986
v  0.1913 -0.2225 -0.1569
v  0.1913 -0.2225 0.1530
v  0.4864 -0.4210 -0.6080
v  0.1530 -0.2225 -0.1913
v  0.1913 -0.2225 -0.1913
v  0.6080 -0.4210 -0.6080
v  -0.1913 -0.2225 -0.1569
v  -0.6080 -0.4210 -0.4986
v  -0.6080 -0.4210 0.4864
v  -0.1913 -0.2225 0.1530
v  0.8129 9.3797 -0.8129
v  0.8129 9.1820 -0.8129
v  -0.8129 9.1820 -0.8129
v  -0.8129 9.3797 -0.8129
v  0.8129 9.3797 0.8129
v  0.8129 9.1820 0.8129
v  -0.8129 9.3797 0.8129
v  -0.8129 9.1820 0.8129
v  0.1913 7.8351 0.1913
v  0.1530 7.8351 0.1913
v  0.1913 7.8351 -0.1569
v  0.1913 7.8351 0.1530
v  0.1530 7.8351 -0.1913
v  0.1913 7.8351 -0.1913
v  -0.1913 7.8351 0.1530
v  -0.1913 7.8351 -0.1569
v  0.6080 -0.6333 -0.6080
v  0.4864 -0.6333 -0.6080
v  0.4864 -0.6333 0.6080
v  0.6080 -0.6333 0.6080
v  -0.6080 -0.6333 -0.4986
v  -0.6080 -0.6333 0.4864
v  0.3581 7.8351 0.4476
v  0.4476 7.8351 0.4476
v  -0.4763 9.1820 0.5809
v  -0.4763 9.1820 -0.5809
v  0.3581 7.8351 -0.4476
v  0.4476 7.8351 -0.4476
v  0.4476 7.8351 0.3581
v  0.4476 7.8351 -0.3670
v  -0.4476 7.8351 0.3581
v  -0.4476 7.8351 -0.3670
v  0.4571 7.9311 -0.4571
v  0.3657 7.9311 -0.4571
v  0.3657 7.9311 0.4571
v  0.4571 7.9311 0.4571
v  0.4571 7.9311 -0.3748
v  0.4571 7.9311 0.3657
v  -0.4571 7.9311 0.3657
v  -0.4571 7.9311 -0.3748
v  -0.6080 -0.6333 0.6080
v  -0.6080 -0.4210 0.6080
v  -0.1913 -0.2225 0.1913
v  -0.1913 7.8351 0.1913
v  -0.4476 7.8351 0.4476
v  -0.4571 7.9311 0.4571
v  -0.5698 9.0700 0.5698
v  -0.5809 9.1820 0.5809
v  -0.6080 -0.4210 -0.6080
v  -0.6080 -0.6333 -0.6080
v  -0.5698 9.0700 -0.5698
v  -0.5809 9.1820 -0.5809
v  -0.4571 7.9311 -0.4571
v  -0.4476 7.8351 -0.4476
v  -0.1913 7.8351 -0.1913
v  -0.1913 -0.2225 -0.1913
v  -0.4986 -0.4210 0.6080
v  -0.4986 -0.6333 0.6080
v  -0.4986 -0.6333 0.4864
v  -0.4986 -0.6333 -0.4986
v  -0.4986 -0.6333 -0.6080
v  -0.4986 -0.4210 -0.6080
v  -0.1569 -0.2225 -0.1913
v  -0.1569 7.8351 -0.1913
v  -0.3670 7.8351 -0.4476
v  -0.3748 7.9311 -0.4571
v  -0.4672 9.0700 -0.5698
v  -0.4672 9.0700 0.5698
v  -0.3670 7.8351 0.4476
v  -0.3748 7.9311 0.4571
v  -0.1569 7.8351 0.1913
v  -0.1569 -0.2225 0.1913
v  0.4151 7.9708 0.3321
v  0.5174 9.0284 0.4140
v  0.4151 7.9708 -0.3404
v  0.5174 9.0284 -0.4243
v  -0.4151 7.9708 -0.3404
v  -0.5174 9.0284 -0.4243
v  -0.4151 7.9708 0.3321
v  -0.5174 9.0284 0.4140
v  -0.4243 9.0284 -0.5174
v  -0.3404 7.9708 -0.4151
v  0.4140 9.0284 -0.5174
v  0.3321 7.9708 -0.4151
v  -0.3404 7.9708 0.4151
v  -0.4243 9.0284 0.5174
v  0.3321 7.9708 0.4151
v  0.4140 9.0284 0.5174
v  0.1430 10.0554 -0.1430
v  -0.1430 10.0554 -0.1430
v  -0.1430 10.0554 0.1430
v  0.1430 10.0554 0.1430
# 128 vertices

vn 0.0000 -0.0989 0.9951
vn 0.0000 -0.0986 0.9951
vn 0.0000 -0.0985 0.9951
vn 0.0000 -0.0989 -0.9951
vn 0.0000 -0.0985 -0.9951
vn 0.0000 -0.0986 -0.9951
vn 0.0000 -1.0000 0.0000
vn 0.9951 -0.0987 -0.0000
vn 0.9951 -0.0989 -0.0000
vn -0.9951 -0.0987 0.0000
vn -0.9951 -0.0986 0.0000
vn -0.9951 -0.0989 0.0000
vn 0.0000 0.9028 0.4300
vn 0.0000 0.1459 0.9893
vn 0.0000 0.1315 0.9913
vn 0.4300 0.9028 -0.0000
vn 0.9911 0.1328 -0.0000
vn 0.9913 0.1315 -0.0000
vn 0.0000 0.9028 -0.4300
vn 0.0000 0.1315 -0.9913
vn 0.0000 0.1459 -0.9893
vn -0.9911 0.1328 -0.0000
vn -0.4300 0.9028 -0.0000
vn -0.9913 0.1315 -0.0000
vn 0.0000 0.0000 -1.0000
vn 1.0000 0.0000 0.0000
vn 0.0000 0.0000 1.0000
vn -1.0000 0.0000 0.0000
vn 0.0000 -1.0000 -0.0000
vn -0.0000 -1.0000 0.0000
vn 0.9951 -0.0988 0.0000
vn 0.9951 -0.0986 0.0000
vn -0.9951 -0.0988 0.0000
vn 0.9951 -0.0985 0.0000
vn 0.9951 -0.0989 0.0000
vn 0.9893 0.1459 0.0000
vn 0.4300 0.9028 0.0000
vn -0.9893 0.1459 -0.0000
vn -0.9951 -0.0985 0.0000
vn 0.9893 0.1459 -0.0000
vn 0.0000 0.1328 -0.9911
vn 0.0000 -0.0987 -0.9951
vn 0.0000 -0.0987 0.9951
vn 0.0000 0.1328 0.9911
vn 0.6247 -0.0000 -0.7809
vn 0.6869 0.7268 -0.0000
vn 0.6341 -0.0000 0.7733
vn 0.6227 -0.7825 0.0000
vn -0.6341 -0.0000 0.7733
vn -0.6869 0.7267 -0.0000
vn -0.6247 0.0000 -0.7809
vn -0.6226 -0.7825 0.0000
vn 0.7733 -0.0000 -0.6341
vn 0.0000 -0.7825 -0.6227
vn -0.7809 -0.0000 -0.6247
vn 0.0000 0.7267 -0.6869
vn 0.7733 -0.0000 0.6341
vn 0.0000 0.7268 0.6869
vn -0.7809 -0.0000 0.6247
vn 0.0000 -0.7825 0.6226
vn 0.0000 1.0000 0.0000
vn 0.7101 0.7041 0.0000
vn 0.0000 0.7041 -0.7101
vn -0.7101 0.7041 0.0000
vn 0.0000 0.7041 0.7101
# 65 vertex normals

vt 0.6557 0.4575 0.0000
vt 0.6557 0.4574 0.0000
vt 0.6567 0.4574 0.0000
vt 0.6567 0.4575 0.0000
vt 0.6557 0.4643 0.0000
vt 0.6567 0.4643 0.0000
vt 0.6567 0.4644 0.0000
vt 0.6557 0.4644 0.0000
vt 0.6557 0.4713 0.0000
vt 0.6567 0.4713 0.0000
vt 0.6567 0.4767 0.0000
vt 0.6557 0.4767 0.0000
vt 0.6577 0.4574 0.0000
vt 0.6659 0.4574 0.0000
vt 0.6659 0.4575 0.0000
vt 0.6577 0.4575 0.0000
vt 0.6373 0.4574 0.0000
vt 0.6455 0.4574 0.0000
vt 0.6455 0.4575 0.0000
vt 0.6373 0.4575 0.0000
vt 0.6557 0.4510 0.0000
vt 0.6567 0.4510 0.0000
vt 0.6567 0.4511 0.0000
vt 0.6557 0.4511 0.0000
vt 0.6577 0.4510 0.0000
vt 0.6659 0.4510 0.0000
vt 0.6659 0.4511 0.0000
vt 0.6577 0.4511 0.0000
vt 0.6557 0.4707 0.0000
vt 0.6557 0.4706 0.0000
vt 0.6567 0.4706 0.0000
vt 0.6567 0.4707 0.0000
vt 0.6373 0.4511 0.0000
vt 0.6373 0.4510 0.0000
vt 0.6455 0.4510 0.0000
vt 0.6455 0.4511 0.0000
vt 0.6567 0.4642 0.0000
vt 0.6465 0.4643 0.0000
vt 0.6465 0.4642 0.0000
vt 0.6567 0.4576 0.0000
vt 0.6668 0.4575 0.0000
vt 0.6668 0.4576 0.0000
vt 0.6465 0.4576 0.0000
vt 0.6465 0.4575 0.0000
vt 0.6364 0.4576 0.0000
vt 0.6364 0.4575 0.0000
vt 0.6567 0.4567 0.0000
vt 0.6557 0.4567 0.0000
vt 0.6659 0.4567 0.0000
vt 0.6577 0.4567 0.0000
vt 0.6557 0.4650 0.0000
vt 0.6567 0.4650 0.0000
vt 0.6455 0.4567 0.0000
vt 0.6373 0.4567 0.0000
vt 0.6557 0.4773 0.0000
vt 0.6567 0.4773 0.0000
vt 0.6465 0.4767 0.0000
vt 0.6465 0.4713 0.0000
vt 0.6474 0.4575 0.0000
vt 0.6474 0.4643 0.0000
vt 0.6557 0.4568 0.0000
vt 0.6567 0.4568 0.0000
vt 0.6659 0.4568 0.0000
vt 0.6577 0.4568 0.0000
vt 0.6455 0.4568 0.0000
vt 0.6373 0.4568 0.0000
vt 0.6465 0.4773 0.0000
vt 0.6465 0.4510 0.0000
vt 0.6465 0.4511 0.0000
vt 0.6465 0.4567 0.0000
vt 0.6465 0.4568 0.0000
vt 0.6465 0.4574 0.0000
vt 0.6465 0.4707 0.0000
vt 0.6668 0.4510 0.0000
vt 0.6668 0.4511 0.0000
vt 0.6668 0.4567 0.0000
vt 0.6668 0.4568 0.0000
vt 0.6668 0.4574 0.0000
vt 0.6364 0.4574 0.0000
vt 0.6364 0.4568 0.0000
vt 0.6364 0.4567 0.0000
vt 0.6364 0.4511 0.0000
vt 0.6364 0.4510 0.0000
vt 0.6474 0.4773 0.0000
vt 0.6474 0.4767 0.0000
vt 0.6474 0.4713 0.0000
vt 0.6474 0.4707 0.0000
vt 0.6474 0.4706 0.0000
vt 0.6474 0.4650 0.0000
vt 0.6474 0.4644 0.0000
vt 0.6474 0.4574 0.0000
vt 0.6474 0.4567 0.0000
vt 0.6474 0.4568 0.0000
vt 0.6474 0.4511 0.0000
vt 0.6474 0.4510 0.0000
vt 0.6465 0.4706 0.0000
vt 0.6465 0.4650 0.0000
vt 0.6465 0.4644 0.0000
# 98 texture coords

o Lampara01
g Lampara01
usemtl 03___Default
s 24
f 1/1/1 2/2/2 3/3/3 4/4/1 
s 25
f 5/5/4 6/6/4 7/7/5 8/8/6 
s 26
f 9/9/7 10/10/7 11/11/7 12/12/7 
s 27
f 13/13/8 14/14/8 15/15/9 16/16/9 
s 28
f 17/17/10 18/18/11 19/19/12 20/20/12 
s 29
f 21/21/13 22/22/13 23/23/14 24/24/15 
s 30
f 25/25/16 26/26/16 27/27/17 28/28/18 
s 31
f 29/29/19 30/30/20 31/31/21 32/32/19 
s 32
f 33/33/22 34/34/23 35/35/23 36/36/24 
s off
f 37/37/25 38/6/25 39/38/25 40/39/25 
f 41/40/26 42/4/26 38/41/26 37/42/26 
f 41/40/27 43/43/27 44/44/27 42/4/27 
f 43/43/28 40/45/28 39/46/28 44/44/28 
s 29
f 24/24/15 23/23/14 45/47/27 46/48/27 
s 30
f 28/28/18 27/27/17 47/49/26 48/50/26 
s 31
f 49/51/25 50/52/25 31/31/21 30/30/20 
s 32
f 33/33/22 36/36/24 51/53/28 52/54/28 
s 33
f 29/29/25 32/32/25 53/32/25 54/29/25 
s 34
f 26/10/26 25/11/26 11/11/26 10/10/26 
s 35
f 21/55/27 55/55/27 56/56/27 22/56/27 
s 36
f 35/57/28 34/58/28 57/58/28 58/57/28 
s 37
f 59/48/7 46/48/7 45/47/29 60/47/29 
s 38
f 1/1/7 42/4/7 44/44/7 61/59/7 
s 39
f 5/5/29 62/60/29 39/38/29 38/6/29 
s 40
f 50/52/7 49/51/7 63/51/7 64/52/7 
s 41
f 65/50/7 48/50/7 47/49/7 66/49/7 
s 42
f 16/16/30 15/15/30 38/41/30 42/4/30 
s 43
f 52/54/30 51/53/30 67/53/30 68/54/30 
s 44
f 19/19/7 44/44/7 39/46/7 20/20/7 
s 25
f 8/8/6 7/7/5 69/52/5 70/51/6 
s 24
f 2/2/2 71/61/2 72/62/3 3/3/3 
s 27
f 65/50/31 66/49/31 73/63/32 74/64/32 
s 25
f 70/51/6 69/52/5 64/52/4 63/51/4 
s 28
f 68/54/33 67/53/33 75/65/11 76/66/11 
s 24
f 71/61/2 59/48/1 60/47/1 72/62/3 
s 27
f 3/3/34 13/13/8 16/16/9 4/4/35 
f 72/62/34 74/64/32 13/13/8 3/3/34 
f 60/47/31 65/50/31 74/64/32 72/62/34 
s 41
f 45/47/7 48/50/7 65/50/7 60/47/7 
s 30
f 28/28/18 48/50/26 45/47/26 23/23/36 
f 25/25/16 28/28/18 23/23/36 22/22/37 
s 34
f 25/11/26 22/56/26 56/56/26 11/11/26 
s 26
f 12/12/7 11/11/7 56/56/7 55/55/7 
s 36
f 35/57/28 58/57/28 77/67/28 78/67/28 
s 32
f 35/35/23 78/68/23 79/69/38 36/36/24 
f 36/36/24 79/69/38 80/70/28 51/53/28 
s 43
f 67/53/30 51/53/30 80/70/7 81/70/7 
s 28
f 75/65/11 67/53/33 81/70/33 82/71/39 
f 18/18/11 75/65/11 82/71/39 83/72/39 
f 19/19/12 18/18/11 83/72/39 84/44/12 
s 36
f 34/58/28 85/73/28 86/73/28 57/58/28 
s 26
f 54/29/7 53/32/7 10/10/7 9/9/7 
s 34
f 26/10/26 10/10/26 53/32/26 32/32/26 
s 30
f 26/26/16 32/74/16 31/75/40 27/27/17 
f 27/27/17 31/75/40 50/76/26 47/49/26 
s 41
f 66/49/7 47/49/7 50/76/7 64/76/7 
s 27
f 73/63/32 66/49/31 64/76/31 69/77/34 
f 14/14/8 73/63/32 69/77/34 7/78/34 
f 15/15/9 14/14/8 7/78/34 6/41/35 
s 28
f 87/79/39 17/17/10 20/20/12 88/46/12 
f 89/80/39 76/66/11 17/17/10 87/79/39 
f 90/81/33 68/54/33 76/66/11 89/80/39 
s 43
f 91/81/7 52/54/30 68/54/30 90/81/7 
s 32
f 33/33/22 52/54/28 91/81/28 92/82/38 
f 34/34/23 33/33/22 92/82/38 85/83/23 
s 35
f 21/55/27 93/84/27 94/84/27 55/55/27 
s 26
f 95/85/7 12/12/7 55/55/7 94/84/7 
f 96/86/7 9/9/7 12/12/7 95/85/7 
f 97/87/7 54/29/7 9/9/7 96/86/7 
s 33
f 98/87/25 29/29/25 54/29/25 97/87/25 
s 31
f 99/88/41 30/30/20 29/29/19 98/87/19 
f 100/89/25 49/51/25 30/30/20 99/88/41 
s 40
f 63/51/7 49/51/7 100/89/7 101/89/7 
s 25
f 102/89/6 70/51/6 63/51/4 101/89/4 
f 62/60/4 5/5/4 8/8/6 103/90/42 
s 24
f 104/91/43 2/2/2 1/1/1 61/59/1 
f 105/92/1 59/48/1 71/61/2 106/93/2 
s 37
f 107/92/7 46/48/7 59/48/7 105/92/7 
s 29
f 108/94/44 24/24/15 46/48/27 107/92/27 
f 108/94/44 93/95/13 21/21/13 24/24/15 
s 35
f 93/84/27 78/67/27 77/67/27 94/84/27 
s 26
f 95/85/7 94/84/7 77/67/7 58/57/7 
f 96/86/7 95/85/7 58/57/7 57/58/7 
f 97/87/7 96/86/7 57/58/7 86/73/7 
s 33
f 98/87/25 97/87/25 86/73/25 85/73/25 
s 31
f 92/96/21 99/88/41 98/87/19 85/73/19 
f 100/89/25 99/88/41 92/96/21 91/97/25 
s 40
f 101/89/7 100/89/7 91/97/29 90/97/29 
s 25
f 102/89/6 101/89/4 90/97/4 89/97/5 
f 103/90/42 102/89/6 89/97/5 87/98/5 
f 62/60/4 103/90/42 87/98/5 88/38/4 
s 24
f 83/72/3 104/91/43 61/59/1 84/44/1 
f 82/71/3 106/93/2 104/91/43 83/72/3 
f 81/70/1 105/92/1 106/93/2 82/71/3 
s 37
f 80/70/7 107/92/7 105/92/7 81/70/7 
s 29
f 108/94/44 107/92/27 80/70/27 79/69/14 
f 93/95/13 108/94/44 79/69/14 78/68/13 
s off
f 74/64/45 109/64/45 110/13/45 13/13/45 
f 73/63/46 111/63/46 109/64/46 74/64/46 
f 73/63/47 14/14/47 112/14/47 111/63/47 
f 13/13/48 110/13/48 112/14/48 14/14/48 
f 76/66/49 113/66/49 114/17/49 17/17/49 
f 75/65/50 115/65/50 113/66/50 76/66/50 
f 75/65/51 18/18/51 116/18/51 115/65/51 
f 17/17/52 114/17/52 116/18/52 18/18/52 
f 102/89/53 103/90/53 117/90/53 118/89/53 
f 8/8/54 119/8/54 117/90/54 103/90/54 
f 70/51/55 120/51/55 119/8/55 8/8/55 
f 102/89/56 118/89/56 120/51/56 70/51/56 
f 106/93/57 121/93/57 122/91/57 104/91/57 
f 71/61/58 123/61/58 121/93/58 106/93/58 
f 71/61/59 2/2/59 124/2/59 123/61/59 
f 104/91/60 122/91/60 124/2/60 2/2/60 
s 42
f 38/41/30 15/15/30 6/41/7 
s 39
f 5/5/29 38/6/29 6/6/7 
f 39/38/29 62/60/29 88/38/30 
s 44
f 20/20/7 39/46/7 88/46/7 
f 44/44/7 19/19/7 84/44/7 
s 38
f 61/59/7 44/44/7 84/44/29 
f 42/4/7 1/1/7 4/4/7 
s 42
f 16/16/30 42/4/30 4/4/7 
s off
f 125/37/61 126/45/61 127/43/61 128/40/61 
f 37/37/62 125/37/62 128/40/62 41/40/62 
f 40/45/63 126/45/63 125/37/63 37/37/63 
f 43/43/64 127/43/64 126/45/64 40/45/64 
f 41/40/65 128/40/65 127/43/65 43/43/65 
# 118 polygons - 8 triangles

#
# object Faro
#

v  0.4151 7.9708 0.3321
v  0.4151 7.9708 -0.3404
v  0.5174 9.0284 -0.4243
v  0.5174 9.0284 0.4140
v  -0.4151 7.9708 -0.3404
v  -0.4151 7.9708 0.3321
v  -0.5174 9.0284 0.4140
v  -0.5174 9.0284 -0.4243
v  -0.4243 9.0284 -0.5174
v  0.4140 9.0284 -0.5174
v  0.3321 7.9708 -0.4151
v  -0.3404 7.9708 -0.4151
v  -0.3404 7.9708 0.4151
v  0.3321 7.9708 0.4151
v  0.4140 9.0284 0.5174
v  -0.4243 9.0284 0.5174
# 16 vertices

vn 0.9954 -0.0963 0.0000
vn -0.9954 -0.0963 0.0000
vn 0.0000 -0.0963 -0.9954
vn -0.0000 -0.0963 0.9954
# 4 vertex normals

vt 0.3655 0.1220 0.0000
vt 0.3728 0.1220 0.0000
vt 0.3728 0.1237 0.0000
vt 0.3655 0.1237 0.0000
vt 0.3472 0.1220 0.0000
vt 0.3545 0.1220 0.0000
vt 0.3545 0.1237 0.0000
vt 0.3472 0.1237 0.0000
vt 0.3563 0.1440 0.0000
vt 0.3636 0.1440 0.0000
vt 0.3636 0.1458 0.0000
vt 0.3563 0.1458 0.0000
vt 0.3563 0.1220 0.0000
vt 0.3636 0.1220 0.0000
vt 0.3636 0.1237 0.0000
vt 0.3563 0.1237 0.0000
# 16 texture coords

o Faro
g Faro
usemtl 03___Default
s off
f 129/99/66 130/100/66 131/101/66 132/102/66 
f 133/103/67 134/104/67 135/105/67 136/106/67 
f 137/107/68 138/108/68 139/109/68 140/110/68 
f 141/111/69 142/112/69 143/113/69 144/114/69 
# 4 polygons

