# 3ds Max Wavefront OBJ Exporter v0.99 - (c)2007 guruware
# File Created: 17.04.2024 00:28:52

mtllib Crabdozer_PataTrasDer.mtl

#
# object PataTraDer
#

v  -2.7405 -2.0268 2.7904
v  -0.0319 -2.3957 0.7778
v  -0.6145 2.4284 5.2284
v  1.4175 0.9980 4.1556
v  0.8298 -1.8255 0.6631
v  2.0264 0.8235 3.2731
v  2.0979 4.5076 1.4375
v  2.5094 3.5637 1.1385
v  1.7784 2.1005 -2.1961
v  2.1912 1.6842 -1.6922
v  0.5184 -1.3853 -2.3141
v  -2.0568 -1.3933 -2.2766
v  -0.1383 3.3020 -3.3928
v  1.2028 -1.0370 -1.7610
v  4.0856 -2.4790 0.2947
v  4.9654 -0.5717 2.0459
v  5.1779 1.3320 0.5611
v  4.8759 0.0264 -1.3934
v  4.2385 -1.9278 -1.3941
v  8.5916 -1.7241 0.1952
v  8.9230 -0.3457 1.3937
v  9.0247 1.0137 0.2941
v  8.9706 0.1320 -1.2821
v  8.6994 -1.4985 -1.2141
v  9.2654 -1.6112 0.1804
v  9.4453 -0.3159 1.3075
v  9.5664 0.9689 0.2565
v  9.5351 0.1465 -1.2667
v  9.3304 -1.4378 -1.1886
v  -0.1534 5.4498 4.1060
v  0.2831 7.0586 1.6424
v  0.1102 6.1089 -1.0832
v  10.1137 -0.0926 -3.6183
v  10.2739 3.5936 -0.2397
v  10.1466 -5.9829 -0.9806
v  11.2623 -4.7044 -5.4978
v  12.9716 -0.8349 -2.6065
v  13.5384 -4.7527 -4.5910
v  14.7210 -2.5815 -2.3007
v  15.5409 -6.9102 -1.8594
v  15.3903 -3.2022 -0.9849
v  15.8074 -8.5074 -1.4021
v  15.5374 -9.8269 -2.6011
v  14.0240 -11.6191 -3.8452
v  13.4041 -12.0834 -2.0294
v  15.0637 -10.0886 -1.1696
v  14.1692 -7.0005 1.4551
v  15.4194 -7.0257 -0.7031
v  13.6156 -2.8879 1.1634
v  10.5759 -3.2210 3.8465
v  13.0852 -1.0929 1.0449
v  11.0105 0.6517 1.4946
v  12.2696 -7.9779 2.4311
v  14.1266 -12.2224 -0.4392
v  15.8029 -11.9113 -2.0294
v  14.6820 -16.7717 -2.9239
v  16.3716 -10.1022 -1.7412
v  13.4295 0.2789 -0.4997
v  16.4344 -6.5543 -1.2399
v  14.8094 0.3624 0.5582
v  14.3101 1.4336 -0.4309
v  15.9850 -0.0057 -0.5463
v  15.0006 1.0166 -1.3877
v  15.3423 3.0857 -0.2815
# 64 vertices

vn 0.4192 -0.8824 0.2138
vn 0.2389 -0.9645 0.1125
vn 0.7798 -0.2336 0.5808
vn 0.5133 -0.3278 0.7932
vn 0.3173 -0.9407 0.1201
vn 0.6387 -0.2121 0.7396
vn 0.8974 0.4376 0.0564
vn 0.8582 0.5023 -0.1058
vn 0.6779 0.1583 -0.7179
vn 0.6466 0.2445 -0.7226
vn 0.3016 -0.5957 -0.7444
vn 0.3408 -0.8426 -0.4170
vn 0.7641 0.0355 -0.6441
vn 0.4192 -0.6240 -0.6595
vn -0.0041 -0.9861 0.1663
vn 0.2389 -0.1966 0.9509
vn 0.4270 0.8952 0.1277
vn 0.1840 0.3630 -0.9134
vn 0.0194 -0.6511 -0.7587
vn 0.1606 -0.9511 0.2637
vn 0.1683 -0.0384 0.9850
vn 0.0978 0.9693 0.2255
vn 0.0273 0.4661 -0.8843
vn 0.1605 -0.9511 0.2638
vn 0.0978 -0.6737 -0.7325
vn -0.6469 -0.6986 0.3057
vn -0.3726 0.2485 0.8941
vn -0.5529 0.7250 0.4107
vn -0.7096 0.3906 -0.5864
vn -0.7096 -0.4014 -0.5791
vn 0.8582 0.1785 0.4813
vn 0.9131 0.4016 -0.0708
vn 0.8896 0.3299 -0.3160
vn -0.4353 0.4063 -0.8034
vn -0.1844 0.9674 0.1735
vn -0.9291 -0.3598 -0.0852
vn -0.3961 -0.0293 -0.9178
vn 0.3879 0.5256 -0.7571
vn 0.5839 0.1713 -0.7936
vn 0.7485 0.1769 -0.6391
vn 0.8347 0.1416 -0.5322
vn 0.9993 -0.0183 0.0323
vn 0.9883 -0.1521 0.0055
vn 0.8582 0.0876 -0.5058
vn -0.1060 -0.3127 -0.9439
vn -0.9134 -0.3989 -0.0807
vn 0.7798 -0.1147 0.6154
vn 0.7171 -0.0569 0.6947
vn 0.8347 0.1100 0.5396
vn 0.6779 0.0856 0.7302
vn -0.3020 0.0075 0.9533
vn 0.3800 0.3877 0.8398
vn 0.0978 0.5520 0.8281
vn -0.2314 -0.4989 0.8352
vn -0.0198 -0.5378 0.8428
vn 0.9785 -0.2063 0.0075
vn 0.0665 -0.9891 -0.1315
vn 0.0664 -0.9891 -0.1316
vn 0.0665 -0.9891 -0.1316
vn 0.9052 0.3502 0.2407
vn -0.0041 0.9834 0.1814
vn 0.8582 0.0877 -0.5057
vn -0.5528 0.7251 0.4107
vn -0.1844 0.9674 0.1734
vn 0.0978 0.5521 0.8281
vn -0.3725 0.2485 0.8941
vn -0.5528 0.7250 0.4107
vn 0.8347 0.1100 0.5395
vn 0.7641 0.6418 0.0643
vn 0.8347 0.1417 -0.5322
vn 0.7642 0.6418 0.0643
vn 0.1919 0.2505 0.9489
vn -0.8194 0.5580 0.1314
vn 0.9993 -0.0182 0.0323
vn 0.9993 -0.0103 0.0356
vn 0.1840 0.4668 -0.8650
vn 0.1840 0.9674 0.1737
vn 0.1840 0.9674 0.1738
vn 0.1841 0.9674 0.1737
# 79 vertex normals

vt 0.0110 0.0875 0.0000
vt 0.0386 0.0781 0.0000
vt 0.0497 0.1415 0.0000
vt 0.0682 0.1165 0.0000
vt 0.0530 0.0751 0.0000
vt 0.0773 0.1094 0.0000
vt 0.1174 0.1533 0.0000
vt 0.1212 0.1382 0.0000
vt 0.1773 0.1454 0.0000
vt 0.1712 0.1323 0.0000
vt 0.2151 0.1222 0.0000
vt 0.2486 0.1385 0.0000
vt 0.2414 0.0996 0.0000
vt 0.2728 0.1166 0.0000
vt 0.1921 0.1766 0.0000
vt 0.2054 0.1142 0.0000
vt 0.2303 0.0902 0.0000
vt 0.0782 0.0519 0.0000
vt 0.0993 0.0686 0.0000
vt 0.1281 0.0873 0.0000
vt 0.1611 0.0894 0.0000
vt 0.1866 0.0814 0.0000
vt 0.2067 0.0619 0.0000
vt 0.1069 0.0227 0.0000
vt 0.1220 0.0311 0.0000
vt 0.1373 0.0403 0.0000
vt 0.1529 0.0434 0.0000
vt 0.1801 0.0321 0.0000
vt 0.1640 0.0424 0.0000
vt 0.1095 0.0171 0.0000
vt 0.1222 0.0243 0.0000
vt 0.1361 0.0321 0.0000
vt 0.1526 0.0365 0.0000
vt 0.1777 0.0264 0.0000
vt 0.1622 0.0359 0.0000
vt 0.0773 0.1716 0.0000
vt 0.1113 0.1847 0.0000
vt 0.1539 0.1882 0.0000
vt 0.2463 0.2867 0.0000
vt 0.2789 0.2878 0.0000
vt 0.2680 0.3313 0.0000
vt 0.2661 0.2527 0.0000
vt 0.1923 0.2157 0.0000
vt 0.1887 0.2590 0.0000
vt 0.2723 0.2321 0.0000
vt 0.2205 0.3152 0.0000
vt 0.1781 0.2906 0.0000
vt 0.2000 0.3265 0.0000
vt 0.1525 0.3220 0.0000
vt 0.1917 0.3378 0.0000
vt 0.1318 0.3318 0.0000
vt 0.1169 0.3163 0.0000
vt 0.0957 0.2817 0.0000
vt 0.0838 0.2515 0.0000
vt 0.1142 0.3459 0.0000
vt 0.1553 0.3682 0.0000
vt 0.1498 0.3376 0.0000
vt 0.2030 0.3531 0.0000
vt 0.2202 0.3979 0.0000
vt 0.2252 0.3510 0.0000
vt 0.2539 0.3665 0.0000
vt 0.2959 0.3842 0.0000
vt 0.2572 0.4350 0.0000
vt 0.1849 0.4460 0.0000
vt 0.1578 0.3916 0.0000
vt 0.0921 0.3673 0.0000
vt 0.0840 0.3898 0.0000
vt 0.0927 0.3315 0.0000
vt 0.0317 0.3203 0.0000
vt 0.1033 0.3318 0.0000
vt 0.2274 0.3373 0.0000
vt 0.3008 0.3302 0.0000
vt 0.1446 0.3299 0.0000
vt 0.5827 0.6320 0.0000
vt 0.5478 0.6058 0.0000
vt 0.5754 0.6082 0.0000
vt 0.5595 0.5859 0.0000
vt 0.5413 0.5865 0.0000
vt 0.5565 0.6570 0.0000
vt 0.5364 0.6216 0.0000
vt 0.5366 0.6639 0.0000
vt 0.5183 0.6186 0.0000
vt 0.5063 0.6562 0.0000
vt 0.4951 0.6258 0.0000
vt 0.5053 0.6099 0.0000
vt 0.5168 0.5871 0.0000
# 86 texture coords

o PataTraDer
g PataTraDer
usemtl 01___Default
s off
f 1/1/1 2/2/2 3/3/3 
f 4/4/4 3/3/3 2/2/2 
f 2/2/2 5/5/5 4/4/4 
f 6/6/6 4/4/4 5/5/5 
f 4/4/4 6/6/6 7/7/7 
f 8/8/8 7/7/7 6/6/6 
f 7/7/7 8/8/8 9/9/9 
f 10/10/10 9/9/9 8/8/8 
f 9/9/9 10/10/10 11/11/11 
f 11/11/11 12/12/12 9/9/9 
f 11/11/11 2/13/2 12/12/12 
f 1/14/1 12/12/12 2/13/2 
f 13/15/13 9/9/9 12/12/12 
f 9/9/9 13/15/13 7/7/7 
f 11/11/11 14/16/14 2/13/2 
f 14/16/14 11/11/11 10/10/10 
f 5/17/5 2/13/2 14/16/14 
f 5/5/5 15/18/15 6/6/6 
f 16/19/16 6/6/6 15/18/15 
f 6/6/6 16/19/16 8/8/8 
f 17/20/17 8/8/8 16/19/16 
f 8/8/8 17/20/17 10/10/10 
f 18/21/18 10/10/10 17/20/17 
f 10/10/10 18/21/18 14/16/14 
f 14/16/14 19/22/19 5/17/5 
f 19/22/19 14/16/14 18/21/18 
f 15/23/15 5/17/5 19/22/19 
f 15/18/15 20/24/20 16/19/16 
f 21/25/21 16/19/16 20/24/20 
f 16/19/16 21/25/21 17/20/17 
f 22/26/22 17/20/17 21/25/21 
f 22/26/22 23/27/23 17/20/17 
f 18/21/18 17/20/17 23/27/23 
f 15/23/15 19/22/19 20/28/24 
f 24/29/25 20/28/24 19/22/19 
f 23/27/23 24/29/25 18/21/18 
f 19/22/19 18/21/18 24/29/25 
f 20/24/20 25/30/26 21/25/21 
f 26/31/27 21/25/21 25/30/26 
f 21/25/21 26/31/27 22/26/22 
f 27/32/28 22/26/22 26/31/27 
f 27/32/28 28/33/29 22/26/22 
f 23/27/23 22/26/22 28/33/29 
f 20/28/24 24/29/25 25/34/26 
f 29/35/30 25/34/26 24/29/25 
f 28/33/29 29/35/30 23/27/23 
f 24/29/25 23/27/23 29/35/30 
f 30/36/31 7/7/7 31/37/32 
f 31/37/32 7/7/7 32/38/33 
f 7/7/7 30/36/31 4/4/4 
f 3/3/3 4/4/4 30/36/31 
f 32/38/33 7/7/7 13/15/13 
f 33/39/34 28/40/29 34/41/35 
f 28/40/29 33/39/34 29/42/30 
f 29/42/30 33/39/34 35/43/36 
f 36/44/37 35/43/36 33/39/34 
f 29/42/30 35/43/36 25/45/26 
f 33/39/34 34/41/35 37/46/38 
f 37/46/38 38/47/39 33/39/34 
f 36/44/37 33/39/34 38/47/39 
f 38/47/39 37/46/38 39/48/40 
f 38/47/39 39/48/40 40/49/41 
f 41/50/42 40/49/41 39/48/40 
f 40/49/41 42/51/43 38/47/39 
f 43/52/44 38/47/39 42/51/43 
f 36/44/37 44/53/45 35/43/36 
f 38/47/39 43/52/44 44/53/45 
f 36/44/37 38/47/39 44/53/45 
f 45/54/46 35/43/36 44/53/45 
f 43/52/44 42/51/43 46/55/47 
f 46/55/47 42/51/43 47/56/48 
f 48/57/49 47/56/48 42/51/43 
f 41/50/42 48/57/49 40/49/41 
f 47/56/48 48/57/49 49/58/50 
f 41/50/42 49/58/50 48/57/49 
f 49/58/50 50/59/51 47/56/48 
f 51/60/52 50/59/51 49/58/50 
f 52/61/53 50/59/51 51/60/52 
f 52/61/53 26/62/27 50/59/51 
f 25/63/26 50/59/51 26/62/27 
f 25/63/26 35/64/36 50/59/51 
f 50/59/51 35/64/36 53/65/54 
f 53/65/54 47/56/48 50/59/51 
f 47/56/48 54/66/55 46/55/47 
f 53/65/54 54/66/55 47/56/48 
f 54/66/55 53/65/54 45/67/46 
f 35/64/36 45/67/46 53/65/54 
f 44/53/45 43/52/44 55/68/56 
f 55/68/56 46/55/47 54/66/55 
f 44/53/45 55/68/56 56/69/57 
f 54/66/55 56/69/57 55/68/56 
f 45/67/46 56/69/58 54/66/55 
f 44/53/45 56/69/59 45/54/46 
f 43/52/44 57/70/60 55/68/56 
f 55/68/56 57/70/60 46/55/47 
f 52/61/53 51/60/52 34/41/35 
f 58/71/61 34/41/35 51/60/52 
f 58/71/61 37/46/38 34/41/35 
f 46/55/47 57/70/60 43/52/62 
f 27/72/63 34/41/64 28/40/29 
f 34/41/64 27/72/63 52/61/65 
f 26/62/66 52/61/53 27/72/67 
f 48/57/68 59/73/69 40/49/70 
f 40/49/41 59/73/71 42/51/43 
f 42/51/43 59/73/71 48/57/49 
f 49/74/50 60/75/72 51/76/52 
f 51/76/52 60/75/72 58/77/61 
f 61/78/73 58/77/61 60/75/72 
f 49/74/50 41/79/74 60/75/72 
f 62/80/75 60/75/72 41/79/74 
f 41/79/74 39/81/40 62/80/75 
f 63/82/76 62/80/75 39/81/40 
f 37/83/38 63/82/76 39/81/40 
f 37/83/38 58/84/61 63/82/76 
f 61/85/73 63/82/76 58/84/61 
f 64/86/77 61/78/73 60/75/72 
f 64/86/77 60/75/72 62/80/75 
f 64/86/78 63/82/76 61/85/73 
f 64/86/79 62/80/75 63/82/76 
# 119 faces

