# 3ds Max Wavefront OBJ Exporter v0.99 - (c)2007 guruware
# File Created: 17.04.2024 00:27:25

mtllib Crabdozer_PataMediaIzq.mtl

#
# object PataMediaIzq
#

v  -1.5920 3.3479 -0.4082
v  -1.7560 1.0293 1.7403
v  0.4545 6.2964 -0.0569
v  -0.5001 1.8942 3.1025
v  1.4396 2.3743 -3.6091
v  -0.3887 0.2771 -2.1312
v  3.2619 -1.2315 -1.9462
v  -0.5829 -0.7246 0.5280
v  2.0180 -1.4629 1.3232
v  -4.3849 -2.8250 1.0333
v  -4.5558 -1.5837 -0.7177
v  -3.1431 -3.6092 -1.9484
v  -3.1455 -4.2883 0.1168
v  -4.3712 -5.0945 -0.2032
v  -4.4426 -4.2998 -1.8865
v  -5.0296 -3.3734 0.8507
v  -5.1223 -1.8644 -0.6311
v  -8.7731 -5.3126 -0.4141
v  -9.2581 -3.4573 -1.2057
v  -8.8432 -5.0699 -1.8948
v  -9.6756 -3.7045 -1.2413
v  -9.5853 -5.1461 -1.8125
v  -9.5263 -5.2776 -0.4894
v  -9.3152 -4.0147 -0.0648
v  -9.8743 -4.1382 -0.2566
v  -10.3577 -4.3336 0.9143
v  -10.0176 -7.3561 -0.7971
v  -11.3160 -6.5725 1.4317
v  -11.3418 -3.5953 -0.4493
v  -13.2068 -7.4555 -1.2055
v  -10.3295 -5.7258 -3.0493
v  -9.6825 -3.5145 -2.3051
v  -9.9733 -2.1901 -0.8077
v  -11.3801 -8.8363 -2.9425
v  -12.3525 -8.7500 1.3532
v  -12.2567 -11.3204 -2.6332
v  -13.6629 -13.0530 -1.0839
v  -12.8804 -11.3509 0.8441
v  -12.9617 -13.4009 -0.4105
v  -12.3375 -13.3762 -1.0518
v  -11.7994 -11.4044 -0.3462
v  -12.9919 -15.9616 -0.8954
v  -12.8512 -13.2960 -1.8400
v  -11.1008 -11.2492 -1.2690
v  -10.6756 -10.9227 -1.2153
v  -10.8615 -9.3251 -0.6736
v  -10.8652 -10.8212 -1.6653
v  -11.9150 -11.0312 0.8724
v  -11.6756 -10.6348 1.1934
v  -11.2093 -12.1613 -1.1840
v  -10.9766 -9.0361 0.9459
v  -10.3939 -8.7658 0.7112
v  -10.7504 -8.6024 1.3622
v  -11.5778 -10.5885 0.6857
v  -10.9193 -9.8560 1.2554
v  -11.8290 -11.8908 1.1206
v  -10.1483 -9.0966 -1.9271
v  -9.6933 -8.9533 -1.6079
v  -9.8781 -8.7662 -2.3200
v  -10.2177 -10.1479 -1.6756
# 60 vertices

vn -0.8350 0.4976 -0.2347
vn -0.6077 0.0095 0.7941
vn -0.8586 0.3270 -0.3949
vn -0.9291 -0.3269 0.1729
vn -0.8899 -0.1682 -0.4240
vn -0.2863 -0.3809 -0.8792
vn -0.4666 -0.8448 -0.2619
vn 0.2154 -0.8999 0.3793
vn -0.4666 -0.8837 -0.0374
vn -0.2863 -0.3809 -0.8791
vn -0.2706 0.0548 0.9611
vn -0.6783 0.6088 -0.4115
vn 0.3565 -0.3645 -0.8602
vn 0.5760 -0.7191 0.3888
vn 0.2546 -0.9455 0.2029
vn 0.1056 -0.4132 -0.9045
vn -0.2158 0.0005 0.9764
vn -0.4274 0.8835 -0.1916
vn -0.0198 -0.8892 0.4571
vn -0.3256 0.8605 -0.3918
vn -0.0197 -0.8892 0.4571
vn -0.6782 0.6088 -0.4115
vn 0.3565 -0.3646 -0.8602
vn -0.4274 0.8835 -0.1915
vn 0.1057 -0.4132 -0.9045
vn -0.3255 0.8605 -0.3918
vn 0.0115 -0.5135 -0.8580
vn 0.7642 0.6354 -0.1109
vn 0.7798 -0.3521 -0.5176
vn 0.6387 -0.5570 0.5308
vn -0.3020 0.3734 0.8771
vn 0.6387 -0.5571 0.5308
vn -0.2157 0.0005 0.9765
vn -0.3254 0.8606 -0.3918
vn -0.3020 0.3734 0.8772
vn -0.0197 -0.8892 0.4572
vn -0.3255 0.8606 -0.3918
vn 0.4976 0.5235 0.6916
vn 0.7641 0.6355 -0.1109
vn 0.2703 0.3351 0.9026
vn 0.2702 0.3351 0.9026
vn 0.9758 -0.1226 0.1811
vn -0.0198 0.2512 0.9677
vn -0.7880 0.5978 0.1473
vn -0.9291 0.2776 -0.2443
vn 0.2076 0.1651 -0.9642
vn 0.3957 0.5257 -0.7530
vn 0.2232 0.9659 0.1312
vn 0.0351 -0.1730 -0.9843
vn -0.4666 -0.0422 0.8835
vn 0.0194 -0.3826 -0.9237
vn -0.9840 -0.1559 -0.0863
vn -0.4666 -0.3906 0.7936
vn -0.0276 -0.3779 0.9254
vn 0.9671 -0.2542 0.0093
vn 0.7720 -0.5743 0.2725
vn -0.0041 -0.9973 0.0733
vn 0.0900 -0.3050 -0.9481
vn -0.0041 -0.9973 0.0732
vn -0.1609 -0.9800 0.1169
vn 0.8817 -0.4195 0.2159
vn 0.5290 -0.3457 -0.7750
vn 0.0273 -0.9765 0.2138
vn 0.6074 -0.0926 0.7890
vn -0.2392 -0.9645 0.1115
vn -0.3020 -0.9533 -0.0097
vn 0.8739 -0.4839 -0.0462
vn 0.4976 -0.1294 0.8577
vn 0.9652 -0.2615 0.0095
vn 0.8817 -0.4194 0.2159
vn -0.1609 -0.9603 0.2280
vn -0.0590 -0.9866 0.1523
vn -0.4979 -0.7639 -0.4105
vn 0.8817 -0.4195 0.2158
vn 0.9209 -0.3505 0.1704
vn 0.2075 0.1650 -0.9642
vn 0.3958 0.5258 -0.7530
vn 0.9758 -0.1227 0.1810
vn 0.3800 -0.2247 -0.8973
vn 0.9758 -0.1227 0.1811
vn -0.2314 -0.9638 0.1327
vn 0.2703 0.3350 0.9026
vn 0.7641 0.6354 -0.1109
vn 0.4976 -0.1293 0.8577
vn -0.4667 -0.0421 0.8834
vn 0.8817 -0.4194 0.2160
vn 0.5290 -0.3458 -0.7750
vn -0.1608 -0.9800 0.1169
vn 0.3800 -0.2248 -0.8973
vn 0.0272 -0.9765 0.2138
vn -0.4980 -0.7639 -0.4104
vn 0.9209 -0.3505 0.1703
vn -0.0590 -0.9866 0.1522
vn 0.9651 -0.2616 0.0095
vn 0.6073 -0.0927 0.7890
vn -0.2393 -0.9645 0.1114
vn -0.1609 -0.9800 0.1170
# 97 vertex normals

vt 0.8843 0.3861 0.0000
vt 0.8436 0.3724 0.0000
vt 0.8815 0.4348 0.0000
vt 0.8308 0.4150 0.0000
vt 0.9320 0.4142 0.0000
vt 0.9379 0.3591 0.0000
vt 0.9694 0.3887 0.0000
vt 0.8149 0.3566 0.0000
vt 0.7937 0.3866 0.0000
vt 0.7899 0.3305 0.0000
vt 0.7614 0.3679 0.0000
vt 0.8543 0.3035 0.0000
vt 0.8824 0.3082 0.0000
vt 0.8115 0.2987 0.0000
vt 0.8296 0.3023 0.0000
vt 0.8305 0.2829 0.0000
vt 0.8191 0.2803 0.0000
vt 0.8536 0.2867 0.0000
vt 0.8813 0.2920 0.0000
vt 0.8457 0.2312 0.0000
vt 0.8729 0.2310 0.0000
vt 0.9224 0.3027 0.0000
vt 0.9220 0.2843 0.0000
vt 0.9013 0.2269 0.0000
vt 0.8725 0.2245 0.0000
vt 0.8963 0.2178 0.0000
vt 0.8302 0.2288 0.0000
vt 0.8463 0.2205 0.0000
vt 0.8335 0.2205 0.0000
vt 0.8553 0.2456 0.0000
vt 0.8530 0.2378 0.0000
vt 0.7868 0.2590 0.0000
vt 0.8002 0.2807 0.0000
vt 0.8113 0.2520 0.0000
vt 0.7635 0.3050 0.0000
vt 0.7538 0.2728 0.0000
vt 0.7795 0.2352 0.0000
vt 0.7249 0.2406 0.0000
vt 0.7726 0.1893 0.0000
vt 0.7962 0.2090 0.0000
vt 0.7978 0.2283 0.0000
vt 0.7244 0.1837 0.0000
vt 0.7110 0.2704 0.0000
vt 0.6745 0.1858 0.0000
vt 0.6435 0.2285 0.0000
vt 0.6679 0.2667 0.0000
vt 0.6379 0.2501 0.0000
vt 0.6306 0.2685 0.0000
vt 0.6625 0.3028 0.0000
vt 0.6012 0.2217 0.0000
vt 0.6433 0.1997 0.0000
vt 0.6658 0.1433 0.0000
vt 0.6357 0.1771 0.0000
vt 0.6824 0.1635 0.0000
vt 0.6995 0.1559 0.0000
vt 0.7137 0.1375 0.0000
vt 0.7035 0.1719 0.0000
vt 0.6740 0.2821 0.0000
vt 0.7145 0.3087 0.0000
vt 0.6928 0.2771 0.0000
vt 0.6874 0.1615 0.0000
vt 0.7184 0.2891 0.0000
vt 0.7466 0.2982 0.0000
vt 0.7370 0.2798 0.0000
vt 0.6918 0.2941 0.0000
vt 0.7313 0.2887 0.0000
vt 0.6815 0.2829 0.0000
vt 0.7257 0.1606 0.0000
vt 0.7386 0.1493 0.0000
vt 0.7898 0.1756 0.0000
vt 0.7535 0.1375 0.0000
vt 0.7848 0.1426 0.0000
vt 0.7414 0.1700 0.0000
vt 0.7303 0.1585 0.0000
vt 0.8135 0.2224 0.0000
# 75 texture coords

o PataMediaIzq
g PataMediaIzq
usemtl 01___Default
s off
f 1/1/1 2/2/2 3/3/3 
f 4/4/4 3/3/3 2/2/2 
f 3/3/3 5/5/5 1/1/1 
f 6/6/6 1/1/1 5/5/5 
f 6/6/6 5/5/5 7/7/7 
f 2/2/2 8/8/8 4/4/4 
f 9/9/9 4/4/4 8/8/8 
f 8/8/8 6/10/10 9/9/9 
f 7/11/7 9/9/9 6/10/10 
f 2/2/2 1/1/1 10/12/11 
f 11/13/12 10/12/11 1/1/1 
f 6/10/10 8/8/8 12/14/13 
f 13/15/14 12/14/13 8/8/8 
f 10/12/11 13/15/14 2/2/2 
f 1/1/1 6/6/6 11/13/12 
f 8/8/8 2/2/2 13/15/14 
f 13/15/14 14/16/15 12/14/13 
f 15/17/16 12/14/13 14/16/15 
f 10/12/11 16/18/17 13/15/14 
f 14/16/15 13/15/14 16/18/17 
f 16/18/17 10/12/11 17/19/18 
f 11/13/12 17/19/18 10/12/11 
f 14/16/15 18/20/19 15/17/16 
f 17/19/18 19/21/20 16/18/17 
f 14/16/15 16/18/17 18/20/21 
f 11/13/22 12/22/23 17/19/24 
f 12/22/23 11/13/22 6/6/6 
f 15/23/25 17/19/24 12/22/23 
f 17/19/24 15/23/25 19/21/26 
f 20/24/27 19/21/26 15/23/25 
f 19/21/26 20/24/27 21/25/28 
f 22/26/29 21/25/28 20/24/27 
f 20/27/27 15/17/16 18/20/21 
f 18/20/21 23/28/30 20/27/27 
f 22/29/29 20/27/27 23/28/30 
f 18/20/21 24/30/31 23/28/32 
f 24/30/31 16/18/33 19/21/34 
f 24/30/35 18/20/36 16/18/33 
f 19/21/37 21/25/28 24/30/31 
f 25/31/38 24/30/35 21/25/39 
f 25/31/38 23/28/32 24/30/35 
f 26/32/40 23/33/30 25/34/38 
f 23/33/32 26/32/41 27/35/42 
f 28/36/43 27/35/42 26/32/41 
f 26/32/41 29/37/44 28/36/43 
f 30/38/45 28/36/43 29/37/44 
f 30/38/45 29/37/44 31/39/46 
f 29/37/44 32/40/47 31/39/46 
f 33/41/48 32/40/47 29/37/44 
f 29/37/44 26/32/41 33/41/48 
f 30/38/45 31/39/46 34/42/49 
f 35/43/50 28/36/43 30/38/45 
f 34/42/49 36/44/51 30/38/45 
f 37/45/52 30/38/45 36/44/51 
f 30/38/45 37/45/52 35/43/50 
f 38/46/53 35/43/50 37/45/52 
f 39/47/54 38/46/53 37/45/52 
f 39/47/54 40/48/55 38/46/53 
f 41/49/56 38/46/53 40/48/55 
f 37/45/52 42/50/57 39/47/54 
f 39/47/54 42/50/57 40/48/55 
f 43/51/58 42/50/57 37/45/52 
f 36/44/51 43/51/58 37/45/52 
f 36/44/51 41/52/56 43/51/58 
f 40/53/55 43/51/58 41/52/56 
f 40/53/55 42/50/59 43/51/58 
f 36/44/51 34/42/49 44/54/60 
f 44/54/60 41/52/56 36/44/51 
f 44/54/60 45/55/55 41/52/56 
f 46/56/61 41/52/56 45/55/55 
f 45/55/55 47/57/62 46/56/61 
f 34/42/49 46/56/61 47/57/62 
f 48/58/63 38/46/53 41/49/56 
f 41/49/56 46/59/61 48/58/63 
f 48/58/63 49/60/64 38/46/53 
f 50/61/65 47/57/62 45/55/55 
f 46/59/61 27/35/42 51/62/66 
f 27/35/42 28/36/43 52/63/67 
f 53/64/68 52/63/67 28/36/43 
f 51/62/66 53/64/68 35/43/50 
f 28/36/43 35/43/50 53/64/68 
f 49/60/64 54/65/69 35/43/50 
f 46/59/70 35/43/50 54/65/69 
f 35/43/50 38/46/53 49/60/64 
f 55/66/71 52/63/67 53/64/68 
f 56/67/72 54/65/69 49/60/64 
f 34/42/49 31/39/46 57/68/73 
f 57/68/73 46/56/74 34/42/49 
f 57/68/73 58/69/75 46/56/74 
f 31/39/76 32/40/77 22/70/29 
f 27/71/78 31/39/76 22/70/29 
f 27/71/78 22/70/29 23/72/30 
f 31/39/76 27/71/78 59/73/79 
f 58/69/75 59/73/79 27/71/78 
f 27/71/80 46/56/61 58/69/75 
f 60/74/81 59/73/79 58/69/75 
f 21/75/39 22/70/29 32/40/47 
f 33/41/48 26/32/82 21/75/83 
f 21/75/83 32/40/47 33/41/48 
f 52/63/67 51/62/66 27/35/80 
f 55/66/71 51/62/66 52/63/67 
f 55/66/71 53/64/84 51/62/66 
f 51/62/66 35/43/85 46/59/86 
f 47/57/87 44/54/88 34/42/49 
f 59/73/89 57/68/73 31/39/46 
f 54/65/69 48/58/90 46/59/70 
f 60/74/81 57/68/91 59/73/79 
f 60/74/81 58/69/92 57/68/91 
f 56/67/93 48/58/63 54/65/94 
f 56/67/93 49/60/95 48/58/63 
f 50/61/96 44/54/97 47/57/87 
f 50/61/96 45/55/55 44/54/97 
f 25/34/38 21/75/39 26/32/41 
# 113 faces

