# 3ds Max Wavefront OBJ Exporter v0.99 - (c)2007 guruware
# File Created: 17.04.2024 00:30:00

mtllib Crabdozer_PataTrasIzq.mtl

#
# object PataTraIzq
#

v  -0.6120 0.7967 4.1556
v  0.8374 -2.5971 0.7778
v  1.4201 2.2270 5.2284
v  3.5460 -2.2282 2.7903
v  -0.0242 -2.0269 0.6631
v  -1.2208 0.6221 3.2731
v  -1.2924 4.3062 1.4375
v  -1.7040 3.3623 1.1385
v  -0.9729 1.8992 -2.1961
v  -1.3856 1.4829 -1.6922
v  0.2872 -1.5867 -2.3141
v  2.8624 -1.5946 -2.2766
v  0.9439 3.1007 -3.3928
v  -0.3973 -1.2384 -1.7610
v  -3.2801 -2.6803 0.2947
v  -4.1599 -0.7730 2.0459
v  -4.3723 1.1306 0.5611
v  -4.0702 -0.1750 -1.3934
v  -3.4330 -2.1291 -1.3941
v  -7.7861 -1.9255 0.1952
v  -8.1175 -0.5471 1.3937
v  -8.2191 0.8124 0.2941
v  -8.1651 -0.0694 -1.2821
v  -7.8939 -1.6999 -1.2141
v  -8.4600 -1.8126 0.1804
v  -8.6398 -0.5173 1.3075
v  -8.7609 0.7675 0.2565
v  -8.7296 -0.0548 -1.2667
v  -8.5250 -1.6391 -1.1886
v  0.9633 5.2262 4.1293
v  0.5225 6.8573 1.6424
v  0.7441 5.4650 -1.8838
v  -9.4683 3.3922 -0.2397
v  -10.2049 0.4504 1.4946
v  -9.3081 -0.2940 -3.6183
v  -9.3411 -6.1843 -0.9806
v  -10.4568 -4.9058 -5.4978
v  -12.1660 -1.0363 -2.6066
v  -12.7329 -4.9541 -4.5910
v  -13.9155 -2.7828 -2.3007
v  -14.7352 -7.1115 -1.8594
v  -14.5848 -3.4036 -0.9849
v  -15.0019 -8.7088 -1.4021
v  -14.7317 -10.0282 -2.6011
v  -13.2185 -11.8204 -3.8452
v  -12.5985 -12.2848 -2.0294
v  -14.2582 -10.2900 -1.1696
v  -13.3638 -7.2019 1.4551
v  -14.6138 -7.2271 -0.7032
v  -12.8102 -3.0893 1.1634
v  -9.7704 -3.4224 3.8465
v  -12.2796 -1.2942 1.0449
v  -11.4641 -8.1793 2.4311
v  -13.3210 -12.4237 -0.4392
v  -14.9975 -12.1126 -2.0295
v  -13.8765 -16.9730 -2.9239
v  -15.5660 -10.3036 -1.7412
v  -12.6240 0.0776 -0.4997
v  -15.6288 -6.7556 -1.2399
v  -14.0039 0.1610 0.5582
v  -13.5046 1.2322 -0.4309
v  -15.1794 -0.2071 -0.5463
v  -14.1951 0.8152 -1.3877
v  -14.5367 2.8843 -0.2815
# 64 vertices

vn -0.4979 -0.3275 0.8030
vn -0.2314 -0.9638 0.1327
vn -0.7645 -0.2408 0.5980
vn -0.4117 -0.8818 0.2301
vn -0.3020 -0.9391 0.1641
vn -0.6234 -0.2116 0.7527
vn -0.8742 0.4428 0.1991
vn -0.8507 0.5107 0.1244
vn -0.6626 0.1578 -0.7322
vn -0.6391 0.2442 -0.7294
vn -0.2863 -0.5959 -0.7503
vn -0.3255 -0.8430 -0.4282
vn -0.4117 -0.8818 0.2302
vn -0.7488 0.0113 -0.6627
vn -0.4117 -0.6241 -0.6640
vn 0.0194 -0.9861 0.1649
vn -0.2314 -0.1965 0.9528
vn -0.4117 0.8965 0.1637
vn -0.1609 0.3629 -0.9178
vn -0.0041 -0.6511 -0.7590
vn -0.1452 -0.9508 0.2738
vn -0.1609 -0.0384 0.9862
vn -0.0747 0.9696 0.2330
vn -0.0198 0.4661 -0.8845
vn -0.1452 -0.9508 0.2737
vn -0.0903 -0.6737 -0.7335
vn 0.6701 -0.7008 0.2447
vn 0.3957 0.2482 0.8842
vn 0.5682 0.7243 0.3906
vn 0.7171 0.3910 -0.5770
vn 0.6701 -0.7008 0.2446
vn 0.7328 -0.4003 -0.5502
vn -0.8507 0.1790 0.4942
vn -0.9056 0.4152 0.0868
vn -0.8742 0.2960 -0.3848
vn 0.5681 0.7244 0.3905
vn 0.2154 0.9663 0.1413
vn -0.0903 0.5521 0.8289
vn 0.4584 0.4067 -0.7902
vn 0.2154 0.9662 0.1413
vn 0.7328 -0.4003 -0.5503
vn 0.9346 -0.3555 0.0130
vn 0.4114 -0.0291 -0.9110
vn -0.3647 0.5252 -0.7689
vn -0.5685 0.1709 -0.8047
vn -0.7331 0.1763 -0.6568
vn -0.8194 0.1407 -0.5557
vn -0.9840 -0.0129 0.1778
vn -0.9761 -0.1470 0.1598
vn -0.8507 0.0872 -0.5183
vn 0.1292 -0.3126 -0.9411
vn 0.9228 -0.3851 0.0140
vn -0.7645 -0.1140 0.6345
vn -0.7096 -0.0566 0.7023
vn -0.8194 0.1109 0.5624
vn -0.6626 0.0861 0.7440
vn 0.3173 0.0073 0.9483
vn -0.3569 0.3881 0.8497
vn -0.0903 0.5520 0.8289
vn 0.3957 0.2481 0.8842
vn 0.2389 -0.4990 0.8330
vn 0.0351 -0.5378 0.8423
vn -0.9761 -0.2143 0.0349
vn -0.0433 -0.9894 -0.1390
vn -0.0433 -0.9893 -0.1390
vn -0.8899 0.3520 0.2901
vn 0.5681 0.7243 0.3906
vn -0.7645 -0.1140 0.6344
vn -0.8507 0.0872 -0.5184
vn 0.0195 0.9834 0.1805
vn -0.7488 0.6450 0.1523
vn -0.8194 0.1108 0.5624
vn -0.7488 0.6451 0.1523
vn -0.1687 0.2506 0.9533
vn 0.0194 0.9834 0.1805
vn 0.8347 0.5417 -0.0990
vn -0.9840 -0.0130 0.1778
vn -0.9840 -0.0051 0.1782
vn -0.1609 0.4666 -0.8697
vn -0.1609 0.9681 0.1921
vn -0.1609 0.9681 0.1920
# 81 vertex normals

vt 0.0682 0.1165 0.0000
vt 0.0386 0.0781 0.0000
vt 0.0497 0.1415 0.0000
vt 0.0110 0.0875 0.0000
vt 0.0530 0.0751 0.0000
vt 0.0773 0.1094 0.0000
vt 0.1174 0.1533 0.0000
vt 0.1212 0.1382 0.0000
vt 0.1773 0.1454 0.0000
vt 0.1712 0.1323 0.0000
vt 0.2151 0.1222 0.0000
vt 0.2486 0.1385 0.0000
vt 0.2414 0.0996 0.0000
vt 0.2728 0.1166 0.0000
vt 0.1921 0.1766 0.0000
vt 0.2054 0.1142 0.0000
vt 0.2303 0.0902 0.0000
vt 0.0782 0.0519 0.0000
vt 0.0993 0.0686 0.0000
vt 0.1281 0.0873 0.0000
vt 0.1611 0.0894 0.0000
vt 0.1866 0.0814 0.0000
vt 0.2067 0.0619 0.0000
vt 0.1069 0.0227 0.0000
vt 0.1220 0.0311 0.0000
vt 0.1373 0.0403 0.0000
vt 0.1529 0.0434 0.0000
vt 0.1801 0.0321 0.0000
vt 0.1640 0.0424 0.0000
vt 0.1095 0.0171 0.0000
vt 0.1222 0.0243 0.0000
vt 0.1361 0.0321 0.0000
vt 0.1526 0.0365 0.0000
vt 0.1777 0.0264 0.0000
vt 0.1622 0.0359 0.0000
vt 0.0773 0.1716 0.0000
vt 0.1113 0.1847 0.0000
vt 0.1539 0.1882 0.0000
vt 0.3008 0.3302 0.0000
vt 0.2789 0.2878 0.0000
vt 0.2680 0.3313 0.0000
vt 0.2539 0.3665 0.0000
vt 0.2463 0.2867 0.0000
vt 0.2661 0.2527 0.0000
vt 0.1923 0.2157 0.0000
vt 0.1887 0.2590 0.0000
vt 0.2723 0.2321 0.0000
vt 0.2205 0.3152 0.0000
vt 0.1781 0.2906 0.0000
vt 0.2000 0.3265 0.0000
vt 0.1525 0.3220 0.0000
vt 0.1917 0.3378 0.0000
vt 0.1318 0.3318 0.0000
vt 0.1169 0.3163 0.0000
vt 0.0957 0.2817 0.0000
vt 0.0838 0.2515 0.0000
vt 0.1142 0.3459 0.0000
vt 0.1553 0.3682 0.0000
vt 0.1498 0.3376 0.0000
vt 0.2030 0.3531 0.0000
vt 0.2202 0.3979 0.0000
vt 0.2252 0.3510 0.0000
vt 0.2959 0.3842 0.0000
vt 0.2572 0.4350 0.0000
vt 0.1849 0.4460 0.0000
vt 0.1578 0.3916 0.0000
vt 0.0921 0.3673 0.0000
vt 0.0840 0.3898 0.0000
vt 0.0927 0.3315 0.0000
vt 0.0317 0.3203 0.0000
vt 0.1033 0.3318 0.0000
vt 0.2274 0.3373 0.0000
vt 0.1446 0.3299 0.0000
vt 0.5478 0.6058 0.0000
vt 0.5827 0.6320 0.0000
vt 0.5754 0.6082 0.0000
vt 0.5595 0.5859 0.0000
vt 0.5413 0.5865 0.0000
vt 0.5565 0.6570 0.0000
vt 0.5364 0.6216 0.0000
vt 0.5366 0.6639 0.0000
vt 0.5183 0.6186 0.0000
vt 0.5063 0.6562 0.0000
vt 0.4951 0.6258 0.0000
vt 0.5053 0.6099 0.0000
vt 0.5168 0.5871 0.0000
# 86 texture coords

o PataTraIzq
g PataTraIzq
usemtl 01___Default
s off
f 1/1/1 2/2/2 3/3/3 
f 4/4/4 3/3/3 2/2/2 
f 2/2/2 1/1/1 5/5/5 
f 6/6/6 5/5/5 1/1/1 
f 1/1/1 7/7/7 6/6/6 
f 8/8/8 6/6/6 7/7/7 
f 7/7/7 9/9/9 8/8/8 
f 10/10/10 8/8/8 9/9/9 
f 9/9/9 11/11/11 10/10/10 
f 11/11/11 9/9/9 12/12/12 
f 11/11/11 12/12/12 2/13/2 
f 4/14/13 2/13/2 12/12/12 
f 13/15/14 12/12/12 9/9/9 
f 9/9/9 7/7/7 13/15/14 
f 11/11/11 2/13/2 14/16/15 
f 14/16/15 10/10/10 11/11/11 
f 5/17/5 14/16/15 2/13/2 
f 5/5/5 6/6/6 15/18/16 
f 16/19/17 15/18/16 6/6/6 
f 6/6/6 8/8/8 16/19/17 
f 17/20/18 16/19/17 8/8/8 
f 8/8/8 10/10/10 17/20/18 
f 18/21/19 17/20/18 10/10/10 
f 10/10/10 14/16/15 18/21/19 
f 14/16/15 5/17/5 19/22/20 
f 19/22/20 18/21/19 14/16/15 
f 15/23/16 19/22/20 5/17/5 
f 15/18/16 16/19/17 20/24/21 
f 21/25/22 20/24/21 16/19/17 
f 16/19/17 17/20/18 21/25/22 
f 22/26/23 21/25/22 17/20/18 
f 18/21/19 23/27/24 17/20/18 
f 22/26/23 17/20/18 23/27/24 
f 15/23/16 20/28/25 19/22/20 
f 24/29/26 19/22/20 20/28/25 
f 19/22/20 24/29/26 18/21/19 
f 23/27/24 18/21/19 24/29/26 
f 20/24/21 21/25/22 25/30/27 
f 26/31/28 25/30/27 21/25/22 
f 21/25/22 22/26/23 26/31/28 
f 27/32/29 26/31/28 22/26/23 
f 23/27/24 28/33/30 22/26/23 
f 27/32/29 22/26/23 28/33/30 
f 20/28/25 25/34/31 24/29/26 
f 29/35/32 24/29/26 25/34/31 
f 24/29/26 29/35/32 23/27/24 
f 28/33/30 23/27/24 29/35/32 
f 7/7/7 30/36/33 31/37/34 
f 31/37/34 32/38/35 7/7/7 
f 32/38/35 13/15/14 7/7/7 
f 7/7/7 1/1/1 30/36/33 
f 3/3/3 30/36/33 1/1/1 
f 27/39/36 28/40/30 33/41/37 
f 33/41/37 34/42/38 27/39/36 
f 35/43/39 33/41/40 28/40/30 
f 35/43/39 28/40/30 29/44/41 
f 29/44/41 36/45/42 35/43/39 
f 37/46/43 35/43/39 36/45/42 
f 36/45/42 29/44/41 25/47/27 
f 33/41/40 35/43/39 38/48/44 
f 37/46/43 39/49/45 35/43/39 
f 38/48/44 35/43/39 39/49/45 
f 38/48/44 39/49/45 40/50/46 
f 39/49/45 41/51/47 40/50/46 
f 42/52/48 40/50/46 41/51/47 
f 41/51/47 39/49/45 43/53/49 
f 44/54/50 43/53/49 39/49/45 
f 37/46/43 36/45/42 45/55/51 
f 44/54/50 39/49/45 45/55/51 
f 39/49/45 37/46/43 45/55/51 
f 46/56/52 45/55/51 36/45/42 
f 43/53/49 44/54/50 47/57/53 
f 47/57/53 48/58/54 43/53/49 
f 49/59/55 43/53/49 48/58/54 
f 42/52/48 41/51/47 49/59/55 
f 42/52/48 49/59/55 50/60/56 
f 48/58/54 50/60/56 49/59/55 
f 50/60/56 48/58/54 51/61/57 
f 51/61/57 52/62/58 50/60/56 
f 51/61/57 34/42/59 52/62/58 
f 34/42/59 51/61/57 26/63/60 
f 25/64/27 26/63/60 51/61/57 
f 36/65/42 25/64/27 51/61/57 
f 36/65/42 51/61/57 53/66/61 
f 53/66/61 51/61/57 48/58/54 
f 54/67/62 48/58/54 47/57/53 
f 54/67/62 53/66/61 48/58/54 
f 36/65/42 53/66/61 46/68/52 
f 54/67/62 46/68/52 53/66/61 
f 44/54/50 45/55/51 55/69/63 
f 47/57/53 55/69/63 54/67/62 
f 56/70/64 54/67/62 55/69/63 
f 55/69/63 45/55/51 56/70/64 
f 56/70/64 46/68/52 54/67/62 
f 56/70/65 45/55/51 46/56/52 
f 57/71/66 44/54/50 55/69/63 
f 57/71/66 55/69/63 47/57/53 
f 34/42/59 33/41/40 52/62/58 
f 26/63/60 27/39/67 34/42/59 
f 57/71/66 47/57/68 44/54/69 
f 38/48/44 58/72/70 33/41/40 
f 58/72/70 52/62/58 33/41/40 
f 59/73/71 49/59/72 41/51/47 
f 59/73/73 41/51/47 43/53/49 
f 59/73/73 43/53/49 49/59/55 
f 60/74/74 50/75/56 52/76/58 
f 52/76/58 58/77/75 60/74/74 
f 61/78/76 60/74/74 58/77/75 
f 50/75/56 60/74/74 42/79/77 
f 62/80/78 42/79/77 60/74/74 
f 42/79/77 62/80/78 40/81/46 
f 63/82/79 40/81/46 62/80/78 
f 63/82/79 38/83/44 40/81/46 
f 38/83/44 63/82/79 58/84/70 
f 61/85/76 58/84/70 63/82/79 
f 61/78/76 64/86/80 60/74/74 
f 60/74/74 64/86/80 62/80/78 
f 63/82/79 64/86/81 61/85/76 
f 62/80/78 64/86/80 63/82/79 
# 119 faces

