# 3ds Max Wavefront OBJ Exporter v0.99 - (c)2007 guruware
# File Created: 22.04.2024 12:03:33

mtllib Diamante_ManoIzq.mtl

#
# object ManoIzq
#

v  -2.8931 3.5300 -0.7830
v  -2.5271 3.2263 -1.1428
v  -2.6077 3.1204 -0.9055
v  -2.7820 3.1431 -0.5851
v  -2.4245 2.3383 -0.2326
v  -2.8086 2.6953 -0.2004
v  -2.7019 2.6663 -0.4498
v  -2.5105 2.4892 -0.0133
v  -2.6923 2.8036 -0.1245
v  -2.2317 3.4075 -1.0888
v  -2.4760 3.5189 -1.1636
v  -2.2787 2.9469 -0.0089
v  -2.1319 3.4354 -0.0313
v  -2.3735 3.3880 0.0063
v  -2.3541 2.7943 -1.1971
v  -2.2853 3.1130 -1.1545
v  -2.1767 2.8374 -1.1581
v  -3.1142 3.3991 -0.2913
v  -2.7355 3.4464 -0.1611
v  -2.5096 2.3313 -0.0330
v  -2.3734 2.4662 -0.2156
v  -2.5812 3.1805 -0.5349
v  -2.4897 3.3588 -0.3247
v  -2.1955 3.6706 -0.2313
v  -2.4438 3.1762 -0.1187
v  -2.0625 2.9625 -0.0438
v  -2.3010 2.9162 -0.1247
v  -2.0879 2.9294 -0.1807
v  -2.1719 3.3065 -0.2545
v  -2.4699 3.1258 -0.8734
v  -2.4793 2.7498 -0.5041
v  -2.3757 2.7557 -0.8171
v  -2.3001 2.3760 -0.4901
v  -2.2052 2.4883 -0.7118
v  -2.2790 2.5012 -0.4559
v  -2.2061 2.3777 -0.7205
v  -2.6671 2.6279 -0.6376
v  -2.5642 2.6471 -0.8990
v  -2.4478 3.7903 -0.1807
v  -2.3119 2.8506 -0.9103
v  -2.0836 2.5567 -0.8579
v  -2.0472 2.6516 -1.0469
v  -2.1221 2.6728 -0.8448
v  -2.0187 2.5496 -1.0124
v  -2.4395 2.7432 -0.9831
v  -2.8796 3.6380 -0.2027
v  -2.2347 3.8170 -0.6562
v  -2.5308 2.7757 -0.3784
v  -2.1628 3.7372 -1.0789
# 49 vertices

vn -0.7810 -0.4413 -0.4420
vn -0.4312 -0.1546 -0.8889
vn -0.7991 -0.3732 -0.4714
vn -0.7934 -0.4300 -0.4309
vn 0.3596 -0.8456 -0.3945
vn -0.8714 -0.3997 0.2845
vn -0.3146 -0.4929 -0.8112
vn 0.2478 0.1770 0.9525
vn 0.1693 0.2141 0.9620
vn 0.8327 -0.2555 -0.4913
vn 0.2600 -0.0758 -0.9626
vn -0.2787 -0.6010 0.7491
vn 0.7493 0.2862 0.5972
vn -0.1790 0.0705 0.9813
vn -0.3353 -0.4013 -0.8524
vn 0.7939 0.2295 -0.5631
vn 0.7891 0.2294 -0.5698
vn -0.8540 -0.3244 0.4068
vn -0.1928 -0.2767 0.9414
vn -0.0237 -0.7970 0.6035
vn 0.9900 0.0684 -0.1232
vn 0.8299 -0.3622 0.4244
vn 0.4506 -0.7122 0.5383
vn 0.8930 0.4072 0.1917
vn -0.8432 -0.5170 -0.1478
vn 0.7588 -0.4236 0.4947
vn -0.4852 -0.8082 -0.3338
vn 0.5384 -0.6236 -0.5668
vn 0.4682 -0.0294 -0.8831
vn 0.8858 -0.2336 0.4010
vn 0.2419 0.1712 0.9551
vn 0.8367 0.2465 -0.4890
vn 0.1189 -0.8114 0.5723
vn 0.9350 0.2234 -0.2753
vn 0.4792 0.1177 0.8698
vn 0.5766 -0.7288 -0.3694
vn -0.8427 -0.4913 0.2200
vn -0.3607 -0.3879 -0.8482
vn 0.1575 0.6416 0.7507
vn 0.2666 0.2055 0.9416
vn 0.3441 -0.6714 0.6564
vn 0.8674 0.2673 -0.4197
vn 0.3464 0.3148 0.8837
vn 0.7085 -0.6696 -0.2230
vn -0.7492 -0.6188 0.2363
vn -0.3071 0.0756 0.9487
vn 0.9826 0.1802 0.0445
vn 0.9243 0.1488 -0.3515
vn 0.9607 -0.1947 -0.1980
# 49 vertex normals

vt 0.6098 0.5314 0.0000
vt 0.6101 0.5272 0.0000
vt 0.6117 0.5283 0.0000
vt 0.6129 0.5306 0.0000
vt 0.4887 0.1888 0.0000
vt 0.5358 0.1834 0.0000
vt 0.5255 0.1650 0.0000
vt 0.5057 0.2127 0.0000
vt 0.5387 0.1973 0.0000
vt 0.5921 0.0452 0.0000
vt 0.5868 0.0767 0.0000
vt 0.6167 0.0559 0.0000
vt 0.6252 0.2631 0.0000
vt 0.6388 0.2265 0.0000
vt 0.6163 0.2250 0.0000
vt 0.5535 0.0580 0.0000
vt 0.5758 0.0553 0.0000
vt 0.5560 0.0425 0.0000
vt 0.5603 0.1402 0.0000
vt 0.5849 0.1745 0.0000
vt 0.5810 0.2065 0.0000
vt 0.4139 0.1955 0.0000
vt 0.4181 0.2183 0.0000
vt 0.4310 0.2077 0.0000
vt 0.4545 0.2261 0.0000
vt 0.4566 0.2639 0.0000
vt 0.4807 0.2505 0.0000
vt 0.4681 0.2687 0.0000
vt 0.4898 0.2868 0.0000
vt 0.4461 0.3114 0.0000
vt 0.5980 0.2377 0.0000
vt 0.6388 0.2733 0.0000
vt 0.6213 0.2709 0.0000
vt 0.6218 0.2873 0.0000
vt 0.5782 0.2593 0.0000
vt 0.4395 0.2811 0.0000
vt 0.4310 0.2463 0.0000
vt 0.4179 0.2644 0.0000
vt 0.3931 0.2225 0.0000
vt 0.3958 0.2467 0.0000
vt 0.4067 0.2323 0.0000
vt 0.4895 0.0886 0.0000
vt 0.5261 0.1188 0.0000
vt 0.5297 0.0979 0.0000
vt 0.5668 0.0992 0.0000
vt 0.6395 0.1932 0.0000
vt 0.4271 0.3027 0.0000
vt 0.4088 0.2805 0.0000
vt 0.4037 0.2989 0.0000
vt 0.3694 0.2774 0.0000
vt 0.3830 0.2945 0.0000
vt 0.3857 0.2800 0.0000
vt 0.5358 0.0244 0.0000
vt 0.5375 0.0653 0.0000
vt 0.6124 0.1828 0.0000
vt 0.4831 0.3103 0.0000
vt 0.5121 0.2954 0.0000
vt 0.5593 0.0955 0.0000
vt 0.5251 0.0681 0.0000
vt 0.5177 0.0352 0.0000
vt 0.5253 0.0815 0.0000
vt 0.5126 0.1544 0.0000
vt 0.5463 0.1412 0.0000
vt 0.4801 0.1154 0.0000
vt 0.5132 0.1336 0.0000
vt 0.5338 0.2633 0.0000
vt 0.5108 0.2627 0.0000
vt 0.4390 0.2394 0.0000
vt 0.4811 0.1808 0.0000
vt 0.4898 0.0854 0.0000
vt 0.5408 0.0262 0.0000
vt 0.5115 0.2230 0.0000
vt 0.4992 0.2209 0.0000
vt 0.6106 0.0379 0.0000
vt 0.6126 0.5342 0.0000
vt 0.4971 0.2042 0.0000
vt 0.4040 0.2058 0.0000
vt 0.3839 0.2354 0.0000
vt 0.4835 0.1084 0.0000
vt 0.3690 0.2899 0.0000
vt 0.5229 0.0284 0.0000
vt 0.4564 0.3232 0.0000
# 82 texture coords

o ManoIzq
g ManoIzq
usemtl 01___Default
s off
f 1/1/1 2/2/2 3/3/3 
f 1/1/1 3/3/3 4/4/4 
s 1
f 5/5/5 6/6/6 7/7/7 
s 2
f 6/6/6 8/8/8 9/9/9 
s 1
f 10/10/10 2/11/2 11/12/11 
f 12/13/12 13/14/13 14/15/14 
s 2
f 15/16/15 16/17/16 17/18/17 
f 4/19/4 6/6/6 18/20/18 
s 1
f 18/20/18 9/9/9 19/21/19 
s 4
f 20/22/20 21/23/21 8/24/8 
s 2
f 9/25/9 22/26/22 19/27/19 
s off
f 19/27/19 23/28/23 24/29/24 
f 10/30/10 24/29/24 23/28/23 
s 2
f 25/31/25 12/13/12 14/15/14 
s off
f 19/27/19 22/26/22 23/28/23 
s 4
f 26/32/26 27/33/27 28/34/28 
s off
f 29/35/29 25/31/25 19/21/19 
s 1
f 29/35/29 27/33/27 25/31/25 
f 30/36/30 31/37/31 32/38/32 
f 33/39/33 34/40/34 35/41/35 
s 2
f 36/42/36 37/43/37 38/44/38 
s 1
f 3/45/3 37/43/37 4/19/4 
s 2
f 39/46/39 14/15/14 13/14/13 
s 1
f 16/47/16 40/48/40 17/49/17 
f 41/50/41 42/51/42 43/52/43 
s 2
f 44/53/44 45/54/45 15/16/15 
s 1
f 15/16/15 3/45/3 2/11/2 
s off
f 46/55/46 19/21/19 14/15/14 
s 4
f 10/30/10 47/56/47 24/29/24 
s 1
f 24/29/24 47/56/47 39/57/39 
s off
f 14/15/14 19/21/19 25/31/25 
s 2
f 30/58/30 45/54/45 40/59/40 
s 4
f 45/54/45 43/60/43 40/59/40 
f 32/61/32 3/45/3 30/58/30 
s 1
f 48/62/48 4/19/4 22/63/22 
s 4
f 37/43/37 35/64/35 31/65/31 
s 2
f 31/65/31 4/19/4 37/43/37 
s 4
f 24/29/24 13/66/13 29/67/29 
s off
f 29/67/29 19/27/19 24/29/24 
s 2
f 30/36/30 16/47/16 10/30/10 
s 8
f 48/68/48 8/24/8 21/23/21 
f 34/40/34 31/37/31 35/41/35 
f 42/51/42 40/48/40 43/52/43 
f 21/69/21 7/7/7 48/62/48 
f 34/70/34 38/44/38 32/61/32 
f 15/16/15 42/71/42 44/53/44 
s 2
f 29/67/29 26/72/26 28/73/28 
f 11/12/11 49/74/49 10/10/10 
f 46/55/46 18/20/18 19/21/19 
f 30/36/30 23/28/23 22/26/22 
s off
f 1/1/1 4/4/4 18/75/18 
s 1
f 5/5/5 20/76/20 6/6/6 
s 2
f 6/6/6 20/76/20 8/8/8 
s 1
f 10/10/10 16/17/16 2/11/2 
f 12/13/12 26/32/26 13/14/13 
s 2
f 15/16/15 2/11/2 16/17/16 
f 4/19/4 7/7/7 6/6/6 
s 1
f 18/20/18 6/6/6 9/9/9 
s 4
f 20/22/20 5/77/5 21/23/21 
s 2
f 9/25/9 48/68/48 22/26/22 
f 25/31/25 27/33/27 12/13/12 
s 4
f 26/32/26 12/13/12 27/33/27 
s 1
f 29/35/29 28/34/28 27/33/27 
f 30/36/30 22/26/22 31/37/31 
f 33/39/33 36/78/36 34/40/34 
s 2
f 36/42/36 33/79/33 37/43/37 
s 1
f 3/45/3 38/44/38 37/43/37 
s 2
f 39/46/39 46/55/46 14/15/14 
s 1
f 16/47/16 30/36/30 40/48/40 
f 41/50/41 44/80/44 42/51/42 
s 2
f 44/53/44 41/81/41 45/54/45 
s 1
f 15/16/15 45/54/45 3/45/3 
s 4
f 10/30/10 49/82/49 47/56/47 
s 2
f 30/58/30 3/45/3 45/54/45 
s 4
f 45/54/45 41/81/41 43/60/43 
f 32/61/32 38/44/38 3/45/3 
s 1
f 48/62/48 7/7/7 4/19/4 
s 4
f 37/43/37 33/79/33 35/64/35 
s 2
f 31/65/31 22/63/22 4/19/4 
s 4
f 24/29/24 39/57/39 13/66/13 
s 8
f 48/68/48 9/25/9 8/24/8 
f 34/40/34 32/38/32 31/37/31 
f 42/51/42 17/49/17 40/48/40 
f 21/69/21 5/5/5 7/7/7 
f 34/70/34 36/42/36 38/44/38 
f 15/16/15 17/18/17 42/71/42 
s 2
f 29/67/29 13/66/13 26/72/26 
f 30/36/30 10/30/10 23/28/23 
# 0 polygons - 88 triangles

